<?xml version="1.0" encoding="utf-8" standalone="no"?>
<!DOCTYPE svg PUBLIC "-//W3C//DTD SVG 1.1//EN"
  "http://www.w3.org/Graphics/SVG/1.1/DTD/svg11.dtd">
<!-- Created with matplotlib (https://matplotlib.org/) -->
<svg height="424.641406pt" version="1.1" viewBox="0 0 280.3775 424.641406" width="280.3775pt" xmlns="http://www.w3.org/2000/svg" xmlns:xlink="http://www.w3.org/1999/xlink">
 <metadata>
  <rdf:RDF xmlns:cc="http://creativecommons.org/ns#" xmlns:dc="http://purl.org/dc/elements/1.1/" xmlns:rdf="http://www.w3.org/1999/02/22-rdf-syntax-ns#">
   <cc:Work>
    <dc:type rdf:resource="http://purl.org/dc/dcmitype/StillImage"/>
    <dc:date>2020-08-28T13:18:57.247603</dc:date>
    <dc:format>image/svg+xml</dc:format>
    <dc:creator>
     <cc:Agent>
      <dc:title>Matplotlib v3.3.0, https://matplotlib.org/</dc:title>
     </cc:Agent>
    </dc:creator>
   </cc:Work>
  </rdf:RDF>
 </metadata>
 <defs>
  <style type="text/css">*{stroke-linecap:butt;stroke-linejoin:round;}</style>
 </defs>
 <g id="figure_1">
  <g id="patch_1">
   <path d="M 0 424.641406 
L 280.3775 424.641406 
L 280.3775 0 
L 0 0 
z
" style="fill:none;"/>
  </g>
  <g id="axes_1">
   <g id="patch_2">
    <path d="M 47.6525 388.024219 
L 153.265 388.024219 
L 153.265 10.999219 
L 47.6525 10.999219 
z
" style="fill:#ffffff;"/>
   </g>
   <g id="patch_3">
    <path clip-path="url(#pea9b326c53)" d="M 47.6525 388.024219 
L 68.775 388.024219 
L 68.775 289.018789 
L 47.6525 289.018789 
z
" style="fill:#abd0e6;"/>
   </g>
   <g id="patch_4">
    <path clip-path="url(#pea9b326c53)" d="M 68.775 388.024219 
L 89.8975 388.024219 
L 89.8975 289.018789 
L 68.775 289.018789 
z
" style="fill:#f7fbff;"/>
   </g>
   <g id="patch_5">
    <path clip-path="url(#pea9b326c53)" d="M 89.8975 388.024219 
L 111.02 388.024219 
L 111.02 289.018789 
L 89.8975 289.018789 
z
" style="fill:#f7fbff;"/>
   </g>
   <g id="patch_6">
    <path clip-path="url(#pea9b326c53)" d="M 111.02 388.024219 
L 132.1425 388.024219 
L 132.1425 289.018789 
L 111.02 289.018789 
z
" style="fill:#f7fbff;"/>
   </g>
   <g id="patch_7">
    <path clip-path="url(#pea9b326c53)" d="M 132.1425 388.024219 
L 153.265 388.024219 
L 153.265 289.018789 
L 132.1425 289.018789 
z
" style="fill:#f7fbff;"/>
   </g>
   <g id="patch_8">
    <path clip-path="url(#pea9b326c53)" d="M 47.6525 289.018789 
L 68.775 289.018789 
L 68.775 226.124241 
L 47.6525 226.124241 
z
" style="fill:#f7fbff;"/>
   </g>
   <g id="patch_9">
    <path clip-path="url(#pea9b326c53)" d="M 68.775 289.018789 
L 89.8975 289.018789 
L 89.8975 226.124241 
L 68.775 226.124241 
z
" style="fill:#f7fbff;"/>
   </g>
   <g id="patch_10">
    <path clip-path="url(#pea9b326c53)" d="M 89.8975 289.018789 
L 111.02 289.018789 
L 111.02 226.124241 
L 89.8975 226.124241 
z
" style="fill:#abd0e6;"/>
   </g>
   <g id="patch_11">
    <path clip-path="url(#pea9b326c53)" d="M 111.02 289.018789 
L 132.1425 289.018789 
L 132.1425 226.124241 
L 111.02 226.124241 
z
" style="fill:#f7fbff;"/>
   </g>
   <g id="patch_12">
    <path clip-path="url(#pea9b326c53)" d="M 132.1425 289.018789 
L 153.265 289.018789 
L 153.265 226.124241 
L 132.1425 226.124241 
z
" style="fill:#f7fbff;"/>
   </g>
   <g id="patch_13">
    <path clip-path="url(#pea9b326c53)" d="M 47.6525 226.124241 
L 68.775 226.124241 
L 68.775 165.454535 
L 47.6525 165.454535 
z
" style="fill:#f7fbff;"/>
   </g>
   <g id="patch_14">
    <path clip-path="url(#pea9b326c53)" d="M 68.775 226.124241 
L 89.8975 226.124241 
L 89.8975 165.454535 
L 68.775 165.454535 
z
" style="fill:#f7fbff;"/>
   </g>
   <g id="patch_15">
    <path clip-path="url(#pea9b326c53)" d="M 89.8975 226.124241 
L 111.02 226.124241 
L 111.02 165.454535 
L 89.8975 165.454535 
z
" style="fill:#f7fbff;"/>
   </g>
   <g id="patch_16">
    <path clip-path="url(#pea9b326c53)" d="M 111.02 226.124241 
L 132.1425 226.124241 
L 132.1425 165.454535 
L 111.02 165.454535 
z
" style="fill:#f7fbff;"/>
   </g>
   <g id="patch_17">
    <path clip-path="url(#pea9b326c53)" d="M 132.1425 226.124241 
L 153.265 226.124241 
L 153.265 165.454535 
L 132.1425 165.454535 
z
" style="fill:#abd0e6;"/>
   </g>
   <g id="patch_18">
    <path clip-path="url(#pea9b326c53)" d="M 47.6525 165.454535 
L 68.775 165.454535 
L 68.775 121.128854 
L 47.6525 121.128854 
z
" style="fill:#f7fbff;"/>
   </g>
   <g id="patch_19">
    <path clip-path="url(#pea9b326c53)" d="M 68.775 165.454535 
L 89.8975 165.454535 
L 89.8975 121.128854 
L 68.775 121.128854 
z
" style="fill:#f7fbff;"/>
   </g>
   <g id="patch_20">
    <path clip-path="url(#pea9b326c53)" d="M 89.8975 165.454535 
L 111.02 165.454535 
L 111.02 121.128854 
L 89.8975 121.128854 
z
" style="fill:#f7fbff;"/>
   </g>
   <g id="patch_21">
    <path clip-path="url(#pea9b326c53)" d="M 111.02 165.454535 
L 132.1425 165.454535 
L 132.1425 121.128854 
L 111.02 121.128854 
z
" style="fill:#abd0e6;"/>
   </g>
   <g id="patch_22">
    <path clip-path="url(#pea9b326c53)" d="M 132.1425 165.454535 
L 153.265 165.454535 
L 153.265 121.128854 
L 132.1425 121.128854 
z
" style="fill:#f7fbff;"/>
   </g>
   <g id="patch_23">
    <path clip-path="url(#pea9b326c53)" d="M 47.6525 121.128854 
L 68.775 121.128854 
L 68.775 89.809937 
L 47.6525 89.809937 
z
" style="fill:#f7fbff;"/>
   </g>
   <g id="patch_24">
    <path clip-path="url(#pea9b326c53)" d="M 68.775 121.128854 
L 89.8975 121.128854 
L 89.8975 89.809937 
L 68.775 89.809937 
z
" style="fill:#abd0e6;"/>
   </g>
   <g id="patch_25">
    <path clip-path="url(#pea9b326c53)" d="M 89.8975 121.128854 
L 111.02 121.128854 
L 111.02 89.809937 
L 89.8975 89.809937 
z
" style="fill:#f7fbff;"/>
   </g>
   <g id="patch_26">
    <path clip-path="url(#pea9b326c53)" d="M 111.02 121.128854 
L 132.1425 121.128854 
L 132.1425 89.809937 
L 111.02 89.809937 
z
" style="fill:#f7fbff;"/>
   </g>
   <g id="patch_27">
    <path clip-path="url(#pea9b326c53)" d="M 132.1425 121.128854 
L 153.265 121.128854 
L 153.265 89.809937 
L 132.1425 89.809937 
z
" style="fill:#f7fbff;"/>
   </g>
   <g id="patch_28">
    <path clip-path="url(#pea9b326c53)" d="M 47.6525 89.809937 
L 68.775 89.809937 
L 68.775 69.272942 
L 47.6525 69.272942 
z
" style="fill:#08306b;"/>
   </g>
   <g id="patch_29">
    <path clip-path="url(#pea9b326c53)" d="M 68.775 89.809937 
L 89.8975 89.809937 
L 89.8975 69.272942 
L 68.775 69.272942 
z
" style="fill:#08306b;"/>
   </g>
   <g id="patch_30">
    <path clip-path="url(#pea9b326c53)" d="M 89.8975 89.809937 
L 111.02 89.809937 
L 111.02 69.272942 
L 89.8975 69.272942 
z
" style="fill:#08306b;"/>
   </g>
   <g id="patch_31">
    <path clip-path="url(#pea9b326c53)" d="M 111.02 89.809937 
L 132.1425 89.809937 
L 132.1425 69.272942 
L 111.02 69.272942 
z
" style="fill:#08306b;"/>
   </g>
   <g id="patch_32">
    <path clip-path="url(#pea9b326c53)" d="M 132.1425 89.809937 
L 153.265 89.809937 
L 153.265 69.272942 
L 132.1425 69.272942 
z
" style="fill:#08306b;"/>
   </g>
   <g id="patch_33">
    <path clip-path="url(#pea9b326c53)" d="M 47.6525 69.272942 
L 68.775 69.272942 
L 68.775 57.720882 
L 47.6525 57.720882 
z
" style="fill:#3787c0;"/>
   </g>
   <g id="patch_34">
    <path clip-path="url(#pea9b326c53)" d="M 68.775 69.272942 
L 89.8975 69.272942 
L 89.8975 57.720882 
L 68.775 57.720882 
z
" style="fill:#abd0e6;"/>
   </g>
   <g id="patch_35">
    <path clip-path="url(#pea9b326c53)" d="M 89.8975 69.272942 
L 111.02 69.272942 
L 111.02 57.720882 
L 89.8975 57.720882 
z
" style="fill:#f7fbff;"/>
   </g>
   <g id="patch_36">
    <path clip-path="url(#pea9b326c53)" d="M 111.02 69.272942 
L 132.1425 69.272942 
L 132.1425 57.720882 
L 111.02 57.720882 
z
" style="fill:#f7fbff;"/>
   </g>
   <g id="patch_37">
    <path clip-path="url(#pea9b326c53)" d="M 132.1425 69.272942 
L 153.265 69.272942 
L 153.265 57.720882 
L 132.1425 57.720882 
z
" style="fill:#f7fbff;"/>
   </g>
   <g id="patch_38">
    <path clip-path="url(#pea9b326c53)" d="M 47.6525 57.720882 
L 68.775 57.720882 
L 68.775 49.848368 
L 47.6525 49.848368 
z
" style="fill:#abd0e6;"/>
   </g>
   <g id="patch_39">
    <path clip-path="url(#pea9b326c53)" d="M 68.775 57.720882 
L 89.8975 57.720882 
L 89.8975 49.848368 
L 68.775 49.848368 
z
" style="fill:#abd0e6;"/>
   </g>
   <g id="patch_40">
    <path clip-path="url(#pea9b326c53)" d="M 89.8975 57.720882 
L 111.02 57.720882 
L 111.02 49.848368 
L 89.8975 49.848368 
z
" style="fill:#f7fbff;"/>
   </g>
   <g id="patch_41">
    <path clip-path="url(#pea9b326c53)" d="M 111.02 57.720882 
L 132.1425 57.720882 
L 132.1425 49.848368 
L 111.02 49.848368 
z
" style="fill:#f7fbff;"/>
   </g>
   <g id="patch_42">
    <path clip-path="url(#pea9b326c53)" d="M 132.1425 57.720882 
L 153.265 57.720882 
L 153.265 49.848368 
L 132.1425 49.848368 
z
" style="fill:#f7fbff;"/>
   </g>
   <g id="patch_43">
    <path clip-path="url(#pea9b326c53)" d="M 47.6525 49.848368 
L 68.775 49.848368 
L 68.775 42.831561 
L 47.6525 42.831561 
z
" style="fill:#3787c0;"/>
   </g>
   <g id="patch_44">
    <path clip-path="url(#pea9b326c53)" d="M 68.775 49.848368 
L 89.8975 49.848368 
L 89.8975 42.831561 
L 68.775 42.831561 
z
" style="fill:#f7fbff;"/>
   </g>
   <g id="patch_45">
    <path clip-path="url(#pea9b326c53)" d="M 89.8975 49.848368 
L 111.02 49.848368 
L 111.02 42.831561 
L 89.8975 42.831561 
z
" style="fill:#f7fbff;"/>
   </g>
   <g id="patch_46">
    <path clip-path="url(#pea9b326c53)" d="M 111.02 49.848368 
L 132.1425 49.848368 
L 132.1425 42.831561 
L 111.02 42.831561 
z
" style="fill:#f7fbff;"/>
   </g>
   <g id="patch_47">
    <path clip-path="url(#pea9b326c53)" d="M 132.1425 49.848368 
L 153.265 49.848368 
L 153.265 42.831561 
L 132.1425 42.831561 
z
" style="fill:#f7fbff;"/>
   </g>
   <g id="patch_48">
    <path clip-path="url(#pea9b326c53)" d="M 47.6525 42.831561 
L 68.775 42.831561 
L 68.775 37.526171 
L 47.6525 37.526171 
z
" style="fill:#f7fbff;"/>
   </g>
   <g id="patch_49">
    <path clip-path="url(#pea9b326c53)" d="M 68.775 42.831561 
L 89.8975 42.831561 
L 89.8975 37.526171 
L 68.775 37.526171 
z
" style="fill:#abd0e6;"/>
   </g>
   <g id="patch_50">
    <path clip-path="url(#pea9b326c53)" d="M 89.8975 42.831561 
L 111.02 42.831561 
L 111.02 37.526171 
L 89.8975 37.526171 
z
" style="fill:#f7fbff;"/>
   </g>
   <g id="patch_51">
    <path clip-path="url(#pea9b326c53)" d="M 111.02 42.831561 
L 132.1425 42.831561 
L 132.1425 37.526171 
L 111.02 37.526171 
z
" style="fill:#abd0e6;"/>
   </g>
   <g id="patch_52">
    <path clip-path="url(#pea9b326c53)" d="M 132.1425 42.831561 
L 153.265 42.831561 
L 153.265 37.526171 
L 132.1425 37.526171 
z
" style="fill:#f7fbff;"/>
   </g>
   <g id="patch_53">
    <path clip-path="url(#pea9b326c53)" d="M 47.6525 37.526171 
L 68.775 37.526171 
L 68.775 32.648634 
L 47.6525 32.648634 
z
" style="fill:#08306b;"/>
   </g>
   <g id="patch_54">
    <path clip-path="url(#pea9b326c53)" d="M 68.775 37.526171 
L 89.8975 37.526171 
L 89.8975 32.648634 
L 68.775 32.648634 
z
" style="fill:#abd0e6;"/>
   </g>
   <g id="patch_55">
    <path clip-path="url(#pea9b326c53)" d="M 89.8975 37.526171 
L 111.02 37.526171 
L 111.02 32.648634 
L 89.8975 32.648634 
z
" style="fill:#f7fbff;"/>
   </g>
   <g id="patch_56">
    <path clip-path="url(#pea9b326c53)" d="M 111.02 37.526171 
L 132.1425 37.526171 
L 132.1425 32.648634 
L 111.02 32.648634 
z
" style="fill:#f7fbff;"/>
   </g>
   <g id="patch_57">
    <path clip-path="url(#pea9b326c53)" d="M 132.1425 37.526171 
L 153.265 37.526171 
L 153.265 32.648634 
L 132.1425 32.648634 
z
" style="fill:#f7fbff;"/>
   </g>
   <g id="patch_58">
    <path clip-path="url(#pea9b326c53)" d="M 47.6525 32.648634 
L 68.775 32.648634 
L 68.775 29.225802 
L 47.6525 29.225802 
z
" style="fill:#f7fbff;"/>
   </g>
   <g id="patch_59">
    <path clip-path="url(#pea9b326c53)" d="M 68.775 32.648634 
L 89.8975 32.648634 
L 89.8975 29.225802 
L 68.775 29.225802 
z
" style="fill:#f7fbff;"/>
   </g>
   <g id="patch_60">
    <path clip-path="url(#pea9b326c53)" d="M 89.8975 32.648634 
L 111.02 32.648634 
L 111.02 29.225802 
L 89.8975 29.225802 
z
" style="fill:#f7fbff;"/>
   </g>
   <g id="patch_61">
    <path clip-path="url(#pea9b326c53)" d="M 111.02 32.648634 
L 132.1425 32.648634 
L 132.1425 29.225802 
L 111.02 29.225802 
z
" style="fill:#f7fbff;"/>
   </g>
   <g id="patch_62">
    <path clip-path="url(#pea9b326c53)" d="M 132.1425 32.648634 
L 153.265 32.648634 
L 153.265 29.225802 
L 132.1425 29.225802 
z
" style="fill:#3787c0;"/>
   </g>
   <g id="patch_63">
    <path clip-path="url(#pea9b326c53)" d="M 47.6525 29.225802 
L 68.775 29.225802 
L 68.775 25.802969 
L 47.6525 25.802969 
z
" style="fill:#f7fbff;"/>
   </g>
   <g id="patch_64">
    <path clip-path="url(#pea9b326c53)" d="M 68.775 29.225802 
L 89.8975 29.225802 
L 89.8975 25.802969 
L 68.775 25.802969 
z
" style="fill:#f7fbff;"/>
   </g>
   <g id="patch_65">
    <path clip-path="url(#pea9b326c53)" d="M 89.8975 29.225802 
L 111.02 29.225802 
L 111.02 25.802969 
L 89.8975 25.802969 
z
" style="fill:#abd0e6;"/>
   </g>
   <g id="patch_66">
    <path clip-path="url(#pea9b326c53)" d="M 111.02 29.225802 
L 132.1425 29.225802 
L 132.1425 25.802969 
L 111.02 25.802969 
z
" style="fill:#f7fbff;"/>
   </g>
   <g id="patch_67">
    <path clip-path="url(#pea9b326c53)" d="M 132.1425 29.225802 
L 153.265 29.225802 
L 153.265 25.802969 
L 132.1425 25.802969 
z
" style="fill:#abd0e6;"/>
   </g>
   <g id="patch_68">
    <path clip-path="url(#pea9b326c53)" d="M 47.6525 25.802969 
L 68.775 25.802969 
L 68.775 22.807991 
L 47.6525 22.807991 
z
" style="fill:#abd0e6;"/>
   </g>
   <g id="patch_69">
    <path clip-path="url(#pea9b326c53)" d="M 68.775 25.802969 
L 89.8975 25.802969 
L 89.8975 22.807991 
L 68.775 22.807991 
z
" style="fill:#f7fbff;"/>
   </g>
   <g id="patch_70">
    <path clip-path="url(#pea9b326c53)" d="M 89.8975 25.802969 
L 111.02 25.802969 
L 111.02 22.807991 
L 89.8975 22.807991 
z
" style="fill:#f7fbff;"/>
   </g>
   <g id="patch_71">
    <path clip-path="url(#pea9b326c53)" d="M 111.02 25.802969 
L 132.1425 25.802969 
L 132.1425 22.807991 
L 111.02 22.807991 
z
" style="fill:#abd0e6;"/>
   </g>
   <g id="patch_72">
    <path clip-path="url(#pea9b326c53)" d="M 132.1425 25.802969 
L 153.265 25.802969 
L 153.265 22.807991 
L 132.1425 22.807991 
z
" style="fill:#f7fbff;"/>
   </g>
   <g id="patch_73">
    <path clip-path="url(#pea9b326c53)" d="M 47.6525 22.807991 
L 68.775 22.807991 
L 68.775 20.069725 
L 47.6525 20.069725 
z
" style="fill:#f7fbff;"/>
   </g>
   <g id="patch_74">
    <path clip-path="url(#pea9b326c53)" d="M 68.775 22.807991 
L 89.8975 22.807991 
L 89.8975 20.069725 
L 68.775 20.069725 
z
" style="fill:#f7fbff;"/>
   </g>
   <g id="patch_75">
    <path clip-path="url(#pea9b326c53)" d="M 89.8975 22.807991 
L 111.02 22.807991 
L 111.02 20.069725 
L 89.8975 20.069725 
z
" style="fill:#f7fbff;"/>
   </g>
   <g id="patch_76">
    <path clip-path="url(#pea9b326c53)" d="M 111.02 22.807991 
L 132.1425 22.807991 
L 132.1425 20.069725 
L 111.02 20.069725 
z
" style="fill:#abd0e6;"/>
   </g>
   <g id="patch_77">
    <path clip-path="url(#pea9b326c53)" d="M 132.1425 22.807991 
L 153.265 22.807991 
L 153.265 20.069725 
L 132.1425 20.069725 
z
" style="fill:#abd0e6;"/>
   </g>
   <g id="patch_78">
    <path clip-path="url(#pea9b326c53)" d="M 47.6525 20.069725 
L 68.775 20.069725 
L 68.775 17.588171 
L 47.6525 17.588171 
z
" style="fill:#abd0e6;"/>
   </g>
   <g id="patch_79">
    <path clip-path="url(#pea9b326c53)" d="M 68.775 20.069725 
L 89.8975 20.069725 
L 89.8975 17.588171 
L 68.775 17.588171 
z
" style="fill:#abd0e6;"/>
   </g>
   <g id="patch_80">
    <path clip-path="url(#pea9b326c53)" d="M 89.8975 20.069725 
L 111.02 20.069725 
L 111.02 17.588171 
L 89.8975 17.588171 
z
" style="fill:#f7fbff;"/>
   </g>
   <g id="patch_81">
    <path clip-path="url(#pea9b326c53)" d="M 111.02 20.069725 
L 132.1425 20.069725 
L 132.1425 17.588171 
L 111.02 17.588171 
z
" style="fill:#abd0e6;"/>
   </g>
   <g id="patch_82">
    <path clip-path="url(#pea9b326c53)" d="M 132.1425 20.069725 
L 153.265 20.069725 
L 153.265 17.588171 
L 132.1425 17.588171 
z
" style="fill:#f7fbff;"/>
   </g>
   <g id="patch_83">
    <path clip-path="url(#pea9b326c53)" d="M 47.6525 17.588171 
L 68.775 17.588171 
L 68.775 15.277759 
L 47.6525 15.277759 
z
" style="fill:#abd0e6;"/>
   </g>
   <g id="patch_84">
    <path clip-path="url(#pea9b326c53)" d="M 68.775 17.588171 
L 89.8975 17.588171 
L 89.8975 15.277759 
L 68.775 15.277759 
z
" style="fill:#f7fbff;"/>
   </g>
   <g id="patch_85">
    <path clip-path="url(#pea9b326c53)" d="M 89.8975 17.588171 
L 111.02 17.588171 
L 111.02 15.277759 
L 89.8975 15.277759 
z
" style="fill:#abd0e6;"/>
   </g>
   <g id="patch_86">
    <path clip-path="url(#pea9b326c53)" d="M 111.02 17.588171 
L 132.1425 17.588171 
L 132.1425 15.277759 
L 111.02 15.277759 
z
" style="fill:#f7fbff;"/>
   </g>
   <g id="patch_87">
    <path clip-path="url(#pea9b326c53)" d="M 132.1425 17.588171 
L 153.265 17.588171 
L 153.265 15.277759 
L 132.1425 15.277759 
z
" style="fill:#f7fbff;"/>
   </g>
   <g id="patch_88">
    <path clip-path="url(#pea9b326c53)" d="M 47.6525 15.277759 
L 68.775 15.277759 
L 68.775 13.138489 
L 47.6525 13.138489 
z
" style="fill:#f7fbff;"/>
   </g>
   <g id="patch_89">
    <path clip-path="url(#pea9b326c53)" d="M 68.775 15.277759 
L 89.8975 15.277759 
L 89.8975 13.138489 
L 68.775 13.138489 
z
" style="fill:#f7fbff;"/>
   </g>
   <g id="patch_90">
    <path clip-path="url(#pea9b326c53)" d="M 89.8975 15.277759 
L 111.02 15.277759 
L 111.02 13.138489 
L 89.8975 13.138489 
z
" style="fill:#3787c0;"/>
   </g>
   <g id="patch_91">
    <path clip-path="url(#pea9b326c53)" d="M 111.02 15.277759 
L 132.1425 15.277759 
L 132.1425 13.138489 
L 111.02 13.138489 
z
" style="fill:#f7fbff;"/>
   </g>
   <g id="patch_92">
    <path clip-path="url(#pea9b326c53)" d="M 132.1425 15.277759 
L 153.265 15.277759 
L 153.265 13.138489 
L 132.1425 13.138489 
z
" style="fill:#f7fbff;"/>
   </g>
   <g id="patch_93">
    <path clip-path="url(#pea9b326c53)" d="M 47.6525 13.138489 
L 68.775 13.138489 
L 68.775 10.999219 
L 47.6525 10.999219 
z
" style="fill:#f7fbff;"/>
   </g>
   <g id="patch_94">
    <path clip-path="url(#pea9b326c53)" d="M 68.775 13.138489 
L 89.8975 13.138489 
L 89.8975 10.999219 
L 68.775 10.999219 
z
" style="fill:#abd0e6;"/>
   </g>
   <g id="patch_95">
    <path clip-path="url(#pea9b326c53)" d="M 89.8975 13.138489 
L 111.02 13.138489 
L 111.02 10.999219 
L 89.8975 10.999219 
z
" style="fill:#f7fbff;"/>
   </g>
   <g id="patch_96">
    <path clip-path="url(#pea9b326c53)" d="M 111.02 13.138489 
L 132.1425 13.138489 
L 132.1425 10.999219 
L 111.02 10.999219 
z
" style="fill:#abd0e6;"/>
   </g>
   <g id="patch_97">
    <path clip-path="url(#pea9b326c53)" d="M 132.1425 13.138489 
L 153.265 13.138489 
L 153.265 10.999219 
L 132.1425 10.999219 
z
" style="fill:#abd0e6;"/>
   </g>
   <g id="matplotlib.axis_1">
    <g id="xtick_1">
     <g id="line2d_1">
      <defs>
       <path d="M 0 0 
L 0 3.5 
" id="me9a8e85005" style="stroke:#000000;stroke-width:0.8;"/>
      </defs>
      <g>
       <use style="stroke:#000000;stroke-width:0.8;" x="58.21375" xlink:href="#me9a8e85005" y="388.024219"/>
      </g>
     </g>
     <g id="text_1">
      <!-- AFR -->
      <g transform="translate(60.973125 414.564844)rotate(-90)scale(0.1 -0.1)">
       <defs>
        <path d="M 34.1875 63.1875 
L 20.796875 26.90625 
L 47.609375 26.90625 
z
M 28.609375 72.90625 
L 39.796875 72.90625 
L 67.578125 0 
L 57.328125 0 
L 50.6875 18.703125 
L 17.828125 18.703125 
L 11.1875 0 
L 0.78125 0 
z
" id="DejaVuSans-65"/>
        <path d="M 9.8125 72.90625 
L 51.703125 72.90625 
L 51.703125 64.59375 
L 19.671875 64.59375 
L 19.671875 43.109375 
L 48.578125 43.109375 
L 48.578125 34.8125 
L 19.671875 34.8125 
L 19.671875 0 
L 9.8125 0 
z
" id="DejaVuSans-70"/>
        <path d="M 44.390625 34.1875 
Q 47.5625 33.109375 50.5625 29.59375 
Q 53.5625 26.078125 56.59375 19.921875 
L 66.609375 0 
L 56 0 
L 46.6875 18.703125 
Q 43.0625 26.03125 39.671875 28.421875 
Q 36.28125 30.8125 30.421875 30.8125 
L 19.671875 30.8125 
L 19.671875 0 
L 9.8125 0 
L 9.8125 72.90625 
L 32.078125 72.90625 
Q 44.578125 72.90625 50.734375 67.671875 
Q 56.890625 62.453125 56.890625 51.90625 
Q 56.890625 45.015625 53.6875 40.46875 
Q 50.484375 35.9375 44.390625 34.1875 
z
M 19.671875 64.796875 
L 19.671875 38.921875 
L 32.078125 38.921875 
Q 39.203125 38.921875 42.84375 42.21875 
Q 46.484375 45.515625 46.484375 51.90625 
Q 46.484375 58.296875 42.84375 61.546875 
Q 39.203125 64.796875 32.078125 64.796875 
z
" id="DejaVuSans-82"/>
       </defs>
       <use xlink:href="#DejaVuSans-65"/>
       <use x="68.408203" xlink:href="#DejaVuSans-70"/>
       <use x="125.927734" xlink:href="#DejaVuSans-82"/>
      </g>
     </g>
    </g>
    <g id="xtick_2">
     <g id="line2d_2">
      <g>
       <use style="stroke:#000000;stroke-width:0.8;" x="79.33625" xlink:href="#me9a8e85005" y="388.024219"/>
      </g>
     </g>
     <g id="text_2">
      <!-- AMR -->
      <g transform="translate(82.095625 417.441406)rotate(-90)scale(0.1 -0.1)">
       <defs>
        <path d="M 9.8125 72.90625 
L 24.515625 72.90625 
L 43.109375 23.296875 
L 61.8125 72.90625 
L 76.515625 72.90625 
L 76.515625 0 
L 66.890625 0 
L 66.890625 64.015625 
L 48.09375 14.015625 
L 38.1875 14.015625 
L 19.390625 64.015625 
L 19.390625 0 
L 9.8125 0 
z
" id="DejaVuSans-77"/>
       </defs>
       <use xlink:href="#DejaVuSans-65"/>
       <use x="68.408203" xlink:href="#DejaVuSans-77"/>
       <use x="154.6875" xlink:href="#DejaVuSans-82"/>
      </g>
     </g>
    </g>
    <g id="xtick_3">
     <g id="line2d_3">
      <g>
       <use style="stroke:#000000;stroke-width:0.8;" x="100.45875" xlink:href="#me9a8e85005" y="388.024219"/>
      </g>
     </g>
     <g id="text_3">
      <!-- EAS -->
      <g transform="translate(103.218125 414.532031)rotate(-90)scale(0.1 -0.1)">
       <defs>
        <path d="M 9.8125 72.90625 
L 55.90625 72.90625 
L 55.90625 64.59375 
L 19.671875 64.59375 
L 19.671875 43.015625 
L 54.390625 43.015625 
L 54.390625 34.71875 
L 19.671875 34.71875 
L 19.671875 8.296875 
L 56.78125 8.296875 
L 56.78125 0 
L 9.8125 0 
z
" id="DejaVuSans-69"/>
        <path d="M 53.515625 70.515625 
L 53.515625 60.890625 
Q 47.90625 63.578125 42.921875 64.890625 
Q 37.9375 66.21875 33.296875 66.21875 
Q 25.25 66.21875 20.875 63.09375 
Q 16.5 59.96875 16.5 54.203125 
Q 16.5 49.359375 19.40625 46.890625 
Q 22.3125 44.4375 30.421875 42.921875 
L 36.375 41.703125 
Q 47.40625 39.59375 52.65625 34.296875 
Q 57.90625 29 57.90625 20.125 
Q 57.90625 9.515625 50.796875 4.046875 
Q 43.703125 -1.421875 29.984375 -1.421875 
Q 24.8125 -1.421875 18.96875 -0.25 
Q 13.140625 0.921875 6.890625 3.21875 
L 6.890625 13.375 
Q 12.890625 10.015625 18.65625 8.296875 
Q 24.421875 6.59375 29.984375 6.59375 
Q 38.421875 6.59375 43.015625 9.90625 
Q 47.609375 13.234375 47.609375 19.390625 
Q 47.609375 24.75 44.3125 27.78125 
Q 41.015625 30.8125 33.5 32.328125 
L 27.484375 33.5 
Q 16.453125 35.6875 11.515625 40.375 
Q 6.59375 45.0625 6.59375 53.421875 
Q 6.59375 63.09375 13.40625 68.65625 
Q 20.21875 74.21875 32.171875 74.21875 
Q 37.3125 74.21875 42.625 73.28125 
Q 47.953125 72.359375 53.515625 70.515625 
z
" id="DejaVuSans-83"/>
       </defs>
       <use xlink:href="#DejaVuSans-69"/>
       <use x="63.183594" xlink:href="#DejaVuSans-65"/>
       <use x="131.591797" xlink:href="#DejaVuSans-83"/>
      </g>
     </g>
    </g>
    <g id="xtick_4">
     <g id="line2d_4">
      <g>
       <use style="stroke:#000000;stroke-width:0.8;" x="121.58125" xlink:href="#me9a8e85005" y="388.024219"/>
      </g>
     </g>
     <g id="text_4">
      <!-- EUR -->
      <g transform="translate(124.340625 415.610156)rotate(-90)scale(0.1 -0.1)">
       <defs>
        <path d="M 8.6875 72.90625 
L 18.609375 72.90625 
L 18.609375 28.609375 
Q 18.609375 16.890625 22.84375 11.734375 
Q 27.09375 6.59375 36.625 6.59375 
Q 46.09375 6.59375 50.34375 11.734375 
Q 54.59375 16.890625 54.59375 28.609375 
L 54.59375 72.90625 
L 64.5 72.90625 
L 64.5 27.390625 
Q 64.5 13.140625 57.4375 5.859375 
Q 50.390625 -1.421875 36.625 -1.421875 
Q 22.796875 -1.421875 15.734375 5.859375 
Q 8.6875 13.140625 8.6875 27.390625 
z
" id="DejaVuSans-85"/>
       </defs>
       <use xlink:href="#DejaVuSans-69"/>
       <use x="63.183594" xlink:href="#DejaVuSans-85"/>
       <use x="136.376953" xlink:href="#DejaVuSans-82"/>
      </g>
     </g>
    </g>
    <g id="xtick_5">
     <g id="line2d_5">
      <g>
       <use style="stroke:#000000;stroke-width:0.8;" x="142.70375" xlink:href="#me9a8e85005" y="388.024219"/>
      </g>
     </g>
     <g id="text_5">
      <!-- SAS -->
      <g transform="translate(145.463125 414.749219)rotate(-90)scale(0.1 -0.1)">
       <use xlink:href="#DejaVuSans-83"/>
       <use x="65.351562" xlink:href="#DejaVuSans-65"/>
       <use x="133.759766" xlink:href="#DejaVuSans-83"/>
      </g>
     </g>
    </g>
   </g>
   <g id="matplotlib.axis_2">
    <g id="ytick_1">
     <g id="line2d_6">
      <defs>
       <path d="M 0 0 
L -3.5 0 
" id="ma1cc09f6d2" style="stroke:#000000;stroke-width:0.8;"/>
      </defs>
      <g>
       <use style="stroke:#000000;stroke-width:0.8;" x="47.6525" xlink:href="#ma1cc09f6d2" y="388.024219"/>
      </g>
     </g>
     <g id="text_6">
      <!-- 0.0 -->
      <g transform="translate(24.749375 391.823438)scale(0.1 -0.1)">
       <defs>
        <path d="M 31.78125 66.40625 
Q 24.171875 66.40625 20.328125 58.90625 
Q 16.5 51.421875 16.5 36.375 
Q 16.5 21.390625 20.328125 13.890625 
Q 24.171875 6.390625 31.78125 6.390625 
Q 39.453125 6.390625 43.28125 13.890625 
Q 47.125 21.390625 47.125 36.375 
Q 47.125 51.421875 43.28125 58.90625 
Q 39.453125 66.40625 31.78125 66.40625 
z
M 31.78125 74.21875 
Q 44.046875 74.21875 50.515625 64.515625 
Q 56.984375 54.828125 56.984375 36.375 
Q 56.984375 17.96875 50.515625 8.265625 
Q 44.046875 -1.421875 31.78125 -1.421875 
Q 19.53125 -1.421875 13.0625 8.265625 
Q 6.59375 17.96875 6.59375 36.375 
Q 6.59375 54.828125 13.0625 64.515625 
Q 19.53125 74.21875 31.78125 74.21875 
z
" id="DejaVuSans-48"/>
        <path d="M 10.6875 12.40625 
L 21 12.40625 
L 21 0 
L 10.6875 0 
z
" id="DejaVuSans-46"/>
       </defs>
       <use xlink:href="#DejaVuSans-48"/>
       <use x="63.623047" xlink:href="#DejaVuSans-46"/>
       <use x="95.410156" xlink:href="#DejaVuSans-48"/>
      </g>
     </g>
    </g>
    <g id="ytick_2">
     <g id="line2d_7">
      <g>
       <use style="stroke:#000000;stroke-width:0.8;" x="47.6525" xlink:href="#ma1cc09f6d2" y="312.619219"/>
      </g>
     </g>
     <g id="text_7">
      <!-- 0.2 -->
      <g transform="translate(24.749375 316.418437)scale(0.1 -0.1)">
       <defs>
        <path d="M 19.1875 8.296875 
L 53.609375 8.296875 
L 53.609375 0 
L 7.328125 0 
L 7.328125 8.296875 
Q 12.9375 14.109375 22.625 23.890625 
Q 32.328125 33.6875 34.8125 36.53125 
Q 39.546875 41.84375 41.421875 45.53125 
Q 43.3125 49.21875 43.3125 52.78125 
Q 43.3125 58.59375 39.234375 62.25 
Q 35.15625 65.921875 28.609375 65.921875 
Q 23.96875 65.921875 18.8125 64.3125 
Q 13.671875 62.703125 7.8125 59.421875 
L 7.8125 69.390625 
Q 13.765625 71.78125 18.9375 73 
Q 24.125 74.21875 28.421875 74.21875 
Q 39.75 74.21875 46.484375 68.546875 
Q 53.21875 62.890625 53.21875 53.421875 
Q 53.21875 48.921875 51.53125 44.890625 
Q 49.859375 40.875 45.40625 35.40625 
Q 44.1875 33.984375 37.640625 27.21875 
Q 31.109375 20.453125 19.1875 8.296875 
z
" id="DejaVuSans-50"/>
       </defs>
       <use xlink:href="#DejaVuSans-48"/>
       <use x="63.623047" xlink:href="#DejaVuSans-46"/>
       <use x="95.410156" xlink:href="#DejaVuSans-50"/>
      </g>
     </g>
    </g>
    <g id="ytick_3">
     <g id="line2d_8">
      <g>
       <use style="stroke:#000000;stroke-width:0.8;" x="47.6525" xlink:href="#ma1cc09f6d2" y="237.214219"/>
      </g>
     </g>
     <g id="text_8">
      <!-- 0.4 -->
      <g transform="translate(24.749375 241.013437)scale(0.1 -0.1)">
       <defs>
        <path d="M 37.796875 64.3125 
L 12.890625 25.390625 
L 37.796875 25.390625 
z
M 35.203125 72.90625 
L 47.609375 72.90625 
L 47.609375 25.390625 
L 58.015625 25.390625 
L 58.015625 17.1875 
L 47.609375 17.1875 
L 47.609375 0 
L 37.796875 0 
L 37.796875 17.1875 
L 4.890625 17.1875 
L 4.890625 26.703125 
z
" id="DejaVuSans-52"/>
       </defs>
       <use xlink:href="#DejaVuSans-48"/>
       <use x="63.623047" xlink:href="#DejaVuSans-46"/>
       <use x="95.410156" xlink:href="#DejaVuSans-52"/>
      </g>
     </g>
    </g>
    <g id="ytick_4">
     <g id="line2d_9">
      <g>
       <use style="stroke:#000000;stroke-width:0.8;" x="47.6525" xlink:href="#ma1cc09f6d2" y="161.809219"/>
      </g>
     </g>
     <g id="text_9">
      <!-- 0.6 -->
      <g transform="translate(24.749375 165.608437)scale(0.1 -0.1)">
       <defs>
        <path d="M 33.015625 40.375 
Q 26.375 40.375 22.484375 35.828125 
Q 18.609375 31.296875 18.609375 23.390625 
Q 18.609375 15.53125 22.484375 10.953125 
Q 26.375 6.390625 33.015625 6.390625 
Q 39.65625 6.390625 43.53125 10.953125 
Q 47.40625 15.53125 47.40625 23.390625 
Q 47.40625 31.296875 43.53125 35.828125 
Q 39.65625 40.375 33.015625 40.375 
z
M 52.59375 71.296875 
L 52.59375 62.3125 
Q 48.875 64.0625 45.09375 64.984375 
Q 41.3125 65.921875 37.59375 65.921875 
Q 27.828125 65.921875 22.671875 59.328125 
Q 17.53125 52.734375 16.796875 39.40625 
Q 19.671875 43.65625 24.015625 45.921875 
Q 28.375 48.1875 33.59375 48.1875 
Q 44.578125 48.1875 50.953125 41.515625 
Q 57.328125 34.859375 57.328125 23.390625 
Q 57.328125 12.15625 50.6875 5.359375 
Q 44.046875 -1.421875 33.015625 -1.421875 
Q 20.359375 -1.421875 13.671875 8.265625 
Q 6.984375 17.96875 6.984375 36.375 
Q 6.984375 53.65625 15.1875 63.9375 
Q 23.390625 74.21875 37.203125 74.21875 
Q 40.921875 74.21875 44.703125 73.484375 
Q 48.484375 72.75 52.59375 71.296875 
z
" id="DejaVuSans-54"/>
       </defs>
       <use xlink:href="#DejaVuSans-48"/>
       <use x="63.623047" xlink:href="#DejaVuSans-46"/>
       <use x="95.410156" xlink:href="#DejaVuSans-54"/>
      </g>
     </g>
    </g>
    <g id="ytick_5">
     <g id="line2d_10">
      <g>
       <use style="stroke:#000000;stroke-width:0.8;" x="47.6525" xlink:href="#ma1cc09f6d2" y="86.404219"/>
      </g>
     </g>
     <g id="text_10">
      <!-- 0.8 -->
      <g transform="translate(24.749375 90.203437)scale(0.1 -0.1)">
       <defs>
        <path d="M 31.78125 34.625 
Q 24.75 34.625 20.71875 30.859375 
Q 16.703125 27.09375 16.703125 20.515625 
Q 16.703125 13.921875 20.71875 10.15625 
Q 24.75 6.390625 31.78125 6.390625 
Q 38.8125 6.390625 42.859375 10.171875 
Q 46.921875 13.96875 46.921875 20.515625 
Q 46.921875 27.09375 42.890625 30.859375 
Q 38.875 34.625 31.78125 34.625 
z
M 21.921875 38.8125 
Q 15.578125 40.375 12.03125 44.71875 
Q 8.5 49.078125 8.5 55.328125 
Q 8.5 64.0625 14.71875 69.140625 
Q 20.953125 74.21875 31.78125 74.21875 
Q 42.671875 74.21875 48.875 69.140625 
Q 55.078125 64.0625 55.078125 55.328125 
Q 55.078125 49.078125 51.53125 44.71875 
Q 48 40.375 41.703125 38.8125 
Q 48.828125 37.15625 52.796875 32.3125 
Q 56.78125 27.484375 56.78125 20.515625 
Q 56.78125 9.90625 50.3125 4.234375 
Q 43.84375 -1.421875 31.78125 -1.421875 
Q 19.734375 -1.421875 13.25 4.234375 
Q 6.78125 9.90625 6.78125 20.515625 
Q 6.78125 27.484375 10.78125 32.3125 
Q 14.796875 37.15625 21.921875 38.8125 
z
M 18.3125 54.390625 
Q 18.3125 48.734375 21.84375 45.5625 
Q 25.390625 42.390625 31.78125 42.390625 
Q 38.140625 42.390625 41.71875 45.5625 
Q 45.3125 48.734375 45.3125 54.390625 
Q 45.3125 60.0625 41.71875 63.234375 
Q 38.140625 66.40625 31.78125 66.40625 
Q 25.390625 66.40625 21.84375 63.234375 
Q 18.3125 60.0625 18.3125 54.390625 
z
" id="DejaVuSans-56"/>
       </defs>
       <use xlink:href="#DejaVuSans-48"/>
       <use x="63.623047" xlink:href="#DejaVuSans-46"/>
       <use x="95.410156" xlink:href="#DejaVuSans-56"/>
      </g>
     </g>
    </g>
    <g id="ytick_6">
     <g id="line2d_11">
      <g>
       <use style="stroke:#000000;stroke-width:0.8;" x="47.6525" xlink:href="#ma1cc09f6d2" y="10.999219"/>
      </g>
     </g>
     <g id="text_11">
      <!-- 1.0 -->
      <g transform="translate(24.749375 14.798437)scale(0.1 -0.1)">
       <defs>
        <path d="M 12.40625 8.296875 
L 28.515625 8.296875 
L 28.515625 63.921875 
L 10.984375 60.40625 
L 10.984375 69.390625 
L 28.421875 72.90625 
L 38.28125 72.90625 
L 38.28125 8.296875 
L 54.390625 8.296875 
L 54.390625 0 
L 12.40625 0 
z
" id="DejaVuSans-49"/>
       </defs>
       <use xlink:href="#DejaVuSans-49"/>
       <use x="63.623047" xlink:href="#DejaVuSans-46"/>
       <use x="95.410156" xlink:href="#DejaVuSans-48"/>
      </g>
     </g>
    </g>
    <g id="text_12">
     <!-- Cumulative fraction of variants -->
     <g transform="translate(17.837812 308.14625)rotate(-90)scale(0.14 -0.14)">
      <defs>
       <path d="M 64.40625 67.28125 
L 64.40625 56.890625 
Q 59.421875 61.53125 53.78125 63.8125 
Q 48.140625 66.109375 41.796875 66.109375 
Q 29.296875 66.109375 22.65625 58.46875 
Q 16.015625 50.828125 16.015625 36.375 
Q 16.015625 21.96875 22.65625 14.328125 
Q 29.296875 6.6875 41.796875 6.6875 
Q 48.140625 6.6875 53.78125 8.984375 
Q 59.421875 11.28125 64.40625 15.921875 
L 64.40625 5.609375 
Q 59.234375 2.09375 53.4375 0.328125 
Q 47.65625 -1.421875 41.21875 -1.421875 
Q 24.65625 -1.421875 15.125 8.703125 
Q 5.609375 18.84375 5.609375 36.375 
Q 5.609375 53.953125 15.125 64.078125 
Q 24.65625 74.21875 41.21875 74.21875 
Q 47.75 74.21875 53.53125 72.484375 
Q 59.328125 70.75 64.40625 67.28125 
z
" id="DejaVuSans-67"/>
       <path d="M 8.5 21.578125 
L 8.5 54.6875 
L 17.484375 54.6875 
L 17.484375 21.921875 
Q 17.484375 14.15625 20.5 10.265625 
Q 23.53125 6.390625 29.59375 6.390625 
Q 36.859375 6.390625 41.078125 11.03125 
Q 45.3125 15.671875 45.3125 23.6875 
L 45.3125 54.6875 
L 54.296875 54.6875 
L 54.296875 0 
L 45.3125 0 
L 45.3125 8.40625 
Q 42.046875 3.421875 37.71875 1 
Q 33.40625 -1.421875 27.6875 -1.421875 
Q 18.265625 -1.421875 13.375 4.4375 
Q 8.5 10.296875 8.5 21.578125 
z
M 31.109375 56 
z
" id="DejaVuSans-117"/>
       <path d="M 52 44.1875 
Q 55.375 50.25 60.0625 53.125 
Q 64.75 56 71.09375 56 
Q 79.640625 56 84.28125 50.015625 
Q 88.921875 44.046875 88.921875 33.015625 
L 88.921875 0 
L 79.890625 0 
L 79.890625 32.71875 
Q 79.890625 40.578125 77.09375 44.375 
Q 74.3125 48.1875 68.609375 48.1875 
Q 61.625 48.1875 57.5625 43.546875 
Q 53.515625 38.921875 53.515625 30.90625 
L 53.515625 0 
L 44.484375 0 
L 44.484375 32.71875 
Q 44.484375 40.625 41.703125 44.40625 
Q 38.921875 48.1875 33.109375 48.1875 
Q 26.21875 48.1875 22.15625 43.53125 
Q 18.109375 38.875 18.109375 30.90625 
L 18.109375 0 
L 9.078125 0 
L 9.078125 54.6875 
L 18.109375 54.6875 
L 18.109375 46.1875 
Q 21.1875 51.21875 25.484375 53.609375 
Q 29.78125 56 35.6875 56 
Q 41.65625 56 45.828125 52.96875 
Q 50 49.953125 52 44.1875 
z
" id="DejaVuSans-109"/>
       <path d="M 9.421875 75.984375 
L 18.40625 75.984375 
L 18.40625 0 
L 9.421875 0 
z
" id="DejaVuSans-108"/>
       <path d="M 34.28125 27.484375 
Q 23.390625 27.484375 19.1875 25 
Q 14.984375 22.515625 14.984375 16.5 
Q 14.984375 11.71875 18.140625 8.90625 
Q 21.296875 6.109375 26.703125 6.109375 
Q 34.1875 6.109375 38.703125 11.40625 
Q 43.21875 16.703125 43.21875 25.484375 
L 43.21875 27.484375 
z
M 52.203125 31.203125 
L 52.203125 0 
L 43.21875 0 
L 43.21875 8.296875 
Q 40.140625 3.328125 35.546875 0.953125 
Q 30.953125 -1.421875 24.3125 -1.421875 
Q 15.921875 -1.421875 10.953125 3.296875 
Q 6 8.015625 6 15.921875 
Q 6 25.140625 12.171875 29.828125 
Q 18.359375 34.515625 30.609375 34.515625 
L 43.21875 34.515625 
L 43.21875 35.40625 
Q 43.21875 41.609375 39.140625 45 
Q 35.0625 48.390625 27.6875 48.390625 
Q 23 48.390625 18.546875 47.265625 
Q 14.109375 46.140625 10.015625 43.890625 
L 10.015625 52.203125 
Q 14.9375 54.109375 19.578125 55.046875 
Q 24.21875 56 28.609375 56 
Q 40.484375 56 46.34375 49.84375 
Q 52.203125 43.703125 52.203125 31.203125 
z
" id="DejaVuSans-97"/>
       <path d="M 18.3125 70.21875 
L 18.3125 54.6875 
L 36.8125 54.6875 
L 36.8125 47.703125 
L 18.3125 47.703125 
L 18.3125 18.015625 
Q 18.3125 11.328125 20.140625 9.421875 
Q 21.96875 7.515625 27.59375 7.515625 
L 36.8125 7.515625 
L 36.8125 0 
L 27.59375 0 
Q 17.1875 0 13.234375 3.875 
Q 9.28125 7.765625 9.28125 18.015625 
L 9.28125 47.703125 
L 2.6875 47.703125 
L 2.6875 54.6875 
L 9.28125 54.6875 
L 9.28125 70.21875 
z
" id="DejaVuSans-116"/>
       <path d="M 9.421875 54.6875 
L 18.40625 54.6875 
L 18.40625 0 
L 9.421875 0 
z
M 9.421875 75.984375 
L 18.40625 75.984375 
L 18.40625 64.59375 
L 9.421875 64.59375 
z
" id="DejaVuSans-105"/>
       <path d="M 2.984375 54.6875 
L 12.5 54.6875 
L 29.59375 8.796875 
L 46.6875 54.6875 
L 56.203125 54.6875 
L 35.6875 0 
L 23.484375 0 
z
" id="DejaVuSans-118"/>
       <path d="M 56.203125 29.59375 
L 56.203125 25.203125 
L 14.890625 25.203125 
Q 15.484375 15.921875 20.484375 11.0625 
Q 25.484375 6.203125 34.421875 6.203125 
Q 39.59375 6.203125 44.453125 7.46875 
Q 49.3125 8.734375 54.109375 11.28125 
L 54.109375 2.78125 
Q 49.265625 0.734375 44.1875 -0.34375 
Q 39.109375 -1.421875 33.890625 -1.421875 
Q 20.796875 -1.421875 13.15625 6.1875 
Q 5.515625 13.8125 5.515625 26.8125 
Q 5.515625 40.234375 12.765625 48.109375 
Q 20.015625 56 32.328125 56 
Q 43.359375 56 49.78125 48.890625 
Q 56.203125 41.796875 56.203125 29.59375 
z
M 47.21875 32.234375 
Q 47.125 39.59375 43.09375 43.984375 
Q 39.0625 48.390625 32.421875 48.390625 
Q 24.90625 48.390625 20.390625 44.140625 
Q 15.875 39.890625 15.1875 32.171875 
z
" id="DejaVuSans-101"/>
       <path id="DejaVuSans-32"/>
       <path d="M 37.109375 75.984375 
L 37.109375 68.5 
L 28.515625 68.5 
Q 23.6875 68.5 21.796875 66.546875 
Q 19.921875 64.59375 19.921875 59.515625 
L 19.921875 54.6875 
L 34.71875 54.6875 
L 34.71875 47.703125 
L 19.921875 47.703125 
L 19.921875 0 
L 10.890625 0 
L 10.890625 47.703125 
L 2.296875 47.703125 
L 2.296875 54.6875 
L 10.890625 54.6875 
L 10.890625 58.5 
Q 10.890625 67.625 15.140625 71.796875 
Q 19.390625 75.984375 28.609375 75.984375 
z
" id="DejaVuSans-102"/>
       <path d="M 41.109375 46.296875 
Q 39.59375 47.171875 37.8125 47.578125 
Q 36.03125 48 33.890625 48 
Q 26.265625 48 22.1875 43.046875 
Q 18.109375 38.09375 18.109375 28.8125 
L 18.109375 0 
L 9.078125 0 
L 9.078125 54.6875 
L 18.109375 54.6875 
L 18.109375 46.1875 
Q 20.953125 51.171875 25.484375 53.578125 
Q 30.03125 56 36.53125 56 
Q 37.453125 56 38.578125 55.875 
Q 39.703125 55.765625 41.0625 55.515625 
z
" id="DejaVuSans-114"/>
       <path d="M 48.78125 52.59375 
L 48.78125 44.1875 
Q 44.96875 46.296875 41.140625 47.34375 
Q 37.3125 48.390625 33.40625 48.390625 
Q 24.65625 48.390625 19.8125 42.84375 
Q 14.984375 37.3125 14.984375 27.296875 
Q 14.984375 17.28125 19.8125 11.734375 
Q 24.65625 6.203125 33.40625 6.203125 
Q 37.3125 6.203125 41.140625 7.25 
Q 44.96875 8.296875 48.78125 10.40625 
L 48.78125 2.09375 
Q 45.015625 0.34375 40.984375 -0.53125 
Q 36.96875 -1.421875 32.421875 -1.421875 
Q 20.0625 -1.421875 12.78125 6.34375 
Q 5.515625 14.109375 5.515625 27.296875 
Q 5.515625 40.671875 12.859375 48.328125 
Q 20.21875 56 33.015625 56 
Q 37.15625 56 41.109375 55.140625 
Q 45.0625 54.296875 48.78125 52.59375 
z
" id="DejaVuSans-99"/>
       <path d="M 30.609375 48.390625 
Q 23.390625 48.390625 19.1875 42.75 
Q 14.984375 37.109375 14.984375 27.296875 
Q 14.984375 17.484375 19.15625 11.84375 
Q 23.34375 6.203125 30.609375 6.203125 
Q 37.796875 6.203125 41.984375 11.859375 
Q 46.1875 17.53125 46.1875 27.296875 
Q 46.1875 37.015625 41.984375 42.703125 
Q 37.796875 48.390625 30.609375 48.390625 
z
M 30.609375 56 
Q 42.328125 56 49.015625 48.375 
Q 55.71875 40.765625 55.71875 27.296875 
Q 55.71875 13.875 49.015625 6.21875 
Q 42.328125 -1.421875 30.609375 -1.421875 
Q 18.84375 -1.421875 12.171875 6.21875 
Q 5.515625 13.875 5.515625 27.296875 
Q 5.515625 40.765625 12.171875 48.375 
Q 18.84375 56 30.609375 56 
z
" id="DejaVuSans-111"/>
       <path d="M 54.890625 33.015625 
L 54.890625 0 
L 45.90625 0 
L 45.90625 32.71875 
Q 45.90625 40.484375 42.875 44.328125 
Q 39.84375 48.1875 33.796875 48.1875 
Q 26.515625 48.1875 22.3125 43.546875 
Q 18.109375 38.921875 18.109375 30.90625 
L 18.109375 0 
L 9.078125 0 
L 9.078125 54.6875 
L 18.109375 54.6875 
L 18.109375 46.1875 
Q 21.34375 51.125 25.703125 53.5625 
Q 30.078125 56 35.796875 56 
Q 45.21875 56 50.046875 50.171875 
Q 54.890625 44.34375 54.890625 33.015625 
z
" id="DejaVuSans-110"/>
       <path d="M 44.28125 53.078125 
L 44.28125 44.578125 
Q 40.484375 46.53125 36.375 47.5 
Q 32.28125 48.484375 27.875 48.484375 
Q 21.1875 48.484375 17.84375 46.4375 
Q 14.5 44.390625 14.5 40.28125 
Q 14.5 37.15625 16.890625 35.375 
Q 19.28125 33.59375 26.515625 31.984375 
L 29.59375 31.296875 
Q 39.15625 29.25 43.1875 25.515625 
Q 47.21875 21.78125 47.21875 15.09375 
Q 47.21875 7.46875 41.1875 3.015625 
Q 35.15625 -1.421875 24.609375 -1.421875 
Q 20.21875 -1.421875 15.453125 -0.5625 
Q 10.6875 0.296875 5.421875 2 
L 5.421875 11.28125 
Q 10.40625 8.6875 15.234375 7.390625 
Q 20.0625 6.109375 24.8125 6.109375 
Q 31.15625 6.109375 34.5625 8.28125 
Q 37.984375 10.453125 37.984375 14.40625 
Q 37.984375 18.0625 35.515625 20.015625 
Q 33.0625 21.96875 24.703125 23.78125 
L 21.578125 24.515625 
Q 13.234375 26.265625 9.515625 29.90625 
Q 5.8125 33.546875 5.8125 39.890625 
Q 5.8125 47.609375 11.28125 51.796875 
Q 16.75 56 26.8125 56 
Q 31.78125 56 36.171875 55.265625 
Q 40.578125 54.546875 44.28125 53.078125 
z
" id="DejaVuSans-115"/>
      </defs>
      <use xlink:href="#DejaVuSans-67"/>
      <use x="69.824219" xlink:href="#DejaVuSans-117"/>
      <use x="133.203125" xlink:href="#DejaVuSans-109"/>
      <use x="230.615234" xlink:href="#DejaVuSans-117"/>
      <use x="293.994141" xlink:href="#DejaVuSans-108"/>
      <use x="321.777344" xlink:href="#DejaVuSans-97"/>
      <use x="383.056641" xlink:href="#DejaVuSans-116"/>
      <use x="422.265625" xlink:href="#DejaVuSans-105"/>
      <use x="450.048828" xlink:href="#DejaVuSans-118"/>
      <use x="509.228516" xlink:href="#DejaVuSans-101"/>
      <use x="570.751953" xlink:href="#DejaVuSans-32"/>
      <use x="602.539062" xlink:href="#DejaVuSans-102"/>
      <use x="637.744141" xlink:href="#DejaVuSans-114"/>
      <use x="678.857422" xlink:href="#DejaVuSans-97"/>
      <use x="740.136719" xlink:href="#DejaVuSans-99"/>
      <use x="795.117188" xlink:href="#DejaVuSans-116"/>
      <use x="834.326172" xlink:href="#DejaVuSans-105"/>
      <use x="862.109375" xlink:href="#DejaVuSans-111"/>
      <use x="923.291016" xlink:href="#DejaVuSans-110"/>
      <use x="986.669922" xlink:href="#DejaVuSans-32"/>
      <use x="1018.457031" xlink:href="#DejaVuSans-111"/>
      <use x="1079.638672" xlink:href="#DejaVuSans-102"/>
      <use x="1114.84375" xlink:href="#DejaVuSans-32"/>
      <use x="1146.630859" xlink:href="#DejaVuSans-118"/>
      <use x="1205.810547" xlink:href="#DejaVuSans-97"/>
      <use x="1267.089844" xlink:href="#DejaVuSans-114"/>
      <use x="1308.203125" xlink:href="#DejaVuSans-105"/>
      <use x="1335.986328" xlink:href="#DejaVuSans-97"/>
      <use x="1397.265625" xlink:href="#DejaVuSans-110"/>
      <use x="1460.644531" xlink:href="#DejaVuSans-116"/>
      <use x="1499.853516" xlink:href="#DejaVuSans-115"/>
     </g>
    </g>
   </g>
   <g id="line2d_12">
    <path clip-path="url(#pea9b326c53)" d="M 47.6525 388.024219 
L 47.6525 10.999219 
" style="fill:none;stroke:#808080;stroke-linecap:square;stroke-opacity:0.5;stroke-width:0.5;"/>
   </g>
   <g id="line2d_13">
    <path clip-path="url(#pea9b326c53)" d="M 68.775 388.024219 
L 68.775 10.999219 
" style="fill:none;stroke:#808080;stroke-linecap:square;stroke-opacity:0.5;stroke-width:0.5;"/>
   </g>
   <g id="line2d_14">
    <path clip-path="url(#pea9b326c53)" d="M 89.8975 388.024219 
L 89.8975 10.999219 
" style="fill:none;stroke:#808080;stroke-linecap:square;stroke-opacity:0.5;stroke-width:0.5;"/>
   </g>
   <g id="line2d_15">
    <path clip-path="url(#pea9b326c53)" d="M 111.02 388.024219 
L 111.02 10.999219 
" style="fill:none;stroke:#808080;stroke-linecap:square;stroke-opacity:0.5;stroke-width:0.5;"/>
   </g>
   <g id="line2d_16">
    <path clip-path="url(#pea9b326c53)" d="M 132.1425 388.024219 
L 132.1425 10.999219 
" style="fill:none;stroke:#808080;stroke-linecap:square;stroke-opacity:0.5;stroke-width:0.5;"/>
   </g>
   <g id="line2d_17">
    <path clip-path="url(#pea9b326c53)" d="M 153.265 388.024219 
L 153.265 10.999219 
" style="fill:none;stroke:#808080;stroke-linecap:square;stroke-opacity:0.5;stroke-width:0.5;"/>
   </g>
   <g id="line2d_18">
    <path clip-path="url(#pea9b326c53)" d="M 47.6525 289.018789 
L 153.265 289.018789 
" style="fill:none;stroke:#808080;stroke-linecap:square;stroke-opacity:0.5;stroke-width:0.5;"/>
   </g>
   <g id="line2d_19">
    <path clip-path="url(#pea9b326c53)" d="M 47.6525 226.124241 
L 153.265 226.124241 
" style="fill:none;stroke:#808080;stroke-linecap:square;stroke-opacity:0.5;stroke-width:0.5;"/>
   </g>
   <g id="line2d_20">
    <path clip-path="url(#pea9b326c53)" d="M 47.6525 165.454535 
L 153.265 165.454535 
" style="fill:none;stroke:#808080;stroke-linecap:square;stroke-opacity:0.5;stroke-width:0.5;"/>
   </g>
   <g id="line2d_21">
    <path clip-path="url(#pea9b326c53)" d="M 47.6525 121.128854 
L 153.265 121.128854 
" style="fill:none;stroke:#808080;stroke-linecap:square;stroke-opacity:0.5;stroke-width:0.5;"/>
   </g>
   <g id="line2d_22">
    <path clip-path="url(#pea9b326c53)" d="M 47.6525 89.809937 
L 153.265 89.809937 
" style="fill:none;stroke:#808080;stroke-linecap:square;stroke-opacity:0.5;stroke-width:0.5;"/>
   </g>
   <g id="line2d_23">
    <path clip-path="url(#pea9b326c53)" d="M 47.6525 69.272942 
L 153.265 69.272942 
" style="fill:none;stroke:#808080;stroke-linecap:square;stroke-opacity:0.5;stroke-width:0.5;"/>
   </g>
   <g id="line2d_24">
    <path clip-path="url(#pea9b326c53)" d="M 47.6525 57.720882 
L 153.265 57.720882 
" style="fill:none;stroke:#808080;stroke-linecap:square;stroke-opacity:0.5;stroke-width:0.5;"/>
   </g>
   <g id="line2d_25">
    <path clip-path="url(#pea9b326c53)" d="M 47.6525 49.848368 
L 153.265 49.848368 
" style="fill:none;stroke:#808080;stroke-linecap:square;stroke-opacity:0.5;stroke-width:0.5;"/>
   </g>
   <g id="line2d_26">
    <path clip-path="url(#pea9b326c53)" d="M 47.6525 42.831561 
L 153.265 42.831561 
" style="fill:none;stroke:#808080;stroke-linecap:square;stroke-opacity:0.5;stroke-width:0.5;"/>
   </g>
   <g id="line2d_27">
    <path clip-path="url(#pea9b326c53)" d="M 47.6525 37.526171 
L 153.265 37.526171 
" style="fill:none;stroke:#808080;stroke-linecap:square;stroke-opacity:0.5;stroke-width:0.5;"/>
   </g>
   <g id="line2d_28">
    <path clip-path="url(#pea9b326c53)" d="M 47.6525 32.648634 
L 153.265 32.648634 
" style="fill:none;stroke:#808080;stroke-linecap:square;stroke-opacity:0.5;stroke-width:0.5;"/>
   </g>
   <g id="line2d_29">
    <path clip-path="url(#pea9b326c53)" d="M 47.6525 29.225802 
L 153.265 29.225802 
" style="fill:none;stroke:#808080;stroke-linecap:square;stroke-opacity:0.5;stroke-width:0.5;"/>
   </g>
   <g id="line2d_30">
    <path clip-path="url(#pea9b326c53)" d="M 47.6525 25.802969 
L 153.265 25.802969 
" style="fill:none;stroke:#808080;stroke-linecap:square;stroke-opacity:0.5;stroke-width:0.5;"/>
   </g>
   <g id="line2d_31">
    <path clip-path="url(#pea9b326c53)" d="M 47.6525 22.807991 
L 153.265 22.807991 
" style="fill:none;stroke:#808080;stroke-linecap:square;stroke-opacity:0.5;stroke-width:0.5;"/>
   </g>
   <g id="line2d_32">
    <path clip-path="url(#pea9b326c53)" d="M 47.6525 20.069725 
L 153.265 20.069725 
" style="fill:none;stroke:#808080;stroke-linecap:square;stroke-opacity:0.5;stroke-width:0.5;"/>
   </g>
   <g id="line2d_33">
    <path clip-path="url(#pea9b326c53)" d="M 47.6525 17.588171 
L 153.265 17.588171 
" style="fill:none;stroke:#808080;stroke-linecap:square;stroke-opacity:0.5;stroke-width:0.5;"/>
   </g>
   <g id="line2d_34">
    <path clip-path="url(#pea9b326c53)" d="M 47.6525 15.277759 
L 153.265 15.277759 
" style="fill:none;stroke:#808080;stroke-linecap:square;stroke-opacity:0.5;stroke-width:0.5;"/>
   </g>
   <g id="line2d_35">
    <path clip-path="url(#pea9b326c53)" d="M 47.6525 13.138489 
L 153.265 13.138489 
" style="fill:none;stroke:#808080;stroke-linecap:square;stroke-opacity:0.5;stroke-width:0.5;"/>
   </g>
   <g id="line2d_36">
    <path clip-path="url(#pea9b326c53)" d="M 47.6525 10.999219 
L 153.265 10.999219 
" style="fill:none;stroke:#808080;stroke-linecap:square;stroke-opacity:0.5;stroke-width:0.5;"/>
   </g>
   <g id="patch_98">
    <path d="M 47.6525 388.024219 
L 47.6525 10.999219 
" style="fill:none;stroke:#808080;stroke-linecap:square;stroke-linejoin:miter;stroke-width:0.8;"/>
   </g>
   <g id="patch_99">
    <path d="M 153.265 388.024219 
L 153.265 10.999219 
" style="fill:none;stroke:#808080;stroke-linecap:square;stroke-linejoin:miter;stroke-width:0.8;"/>
   </g>
   <g id="patch_100">
    <path d="M 47.6525 388.024219 
L 153.265 388.024219 
" style="fill:none;stroke:#808080;stroke-linecap:square;stroke-linejoin:miter;stroke-width:0.8;"/>
   </g>
   <g id="patch_101">
    <path d="M 47.6525 10.999219 
L 153.265 10.999219 
" style="fill:none;stroke:#808080;stroke-linecap:square;stroke-linejoin:miter;stroke-width:0.8;"/>
   </g>
   <g id="text_13">
    <!-- R -->
    <g transform="translate(53.349844 342.384629)scale(0.14 -0.14)">
     <use xlink:href="#DejaVuSans-82"/>
    </g>
   </g>
   <g id="text_14">
    <!-- U -->
    <g transform="translate(74.213125 342.384629)scale(0.14 -0.14)">
     <use xlink:href="#DejaVuSans-85"/>
    </g>
   </g>
   <g id="text_15">
    <!-- U -->
    <g transform="translate(95.335625 342.384629)scale(0.14 -0.14)">
     <use xlink:href="#DejaVuSans-85"/>
    </g>
   </g>
   <g id="text_16">
    <!-- U -->
    <g transform="translate(116.458125 342.384629)scale(0.14 -0.14)">
     <use xlink:href="#DejaVuSans-85"/>
    </g>
   </g>
   <g id="text_17">
    <!-- U -->
    <g transform="translate(137.580625 342.384629)scale(0.14 -0.14)">
     <use xlink:href="#DejaVuSans-85"/>
    </g>
   </g>
   <g id="text_18">
    <!-- U -->
    <g transform="translate(53.090625 261.43464)scale(0.14 -0.14)">
     <use xlink:href="#DejaVuSans-85"/>
    </g>
   </g>
   <g id="text_19">
    <!-- U -->
    <g transform="translate(74.213125 261.43464)scale(0.14 -0.14)">
     <use xlink:href="#DejaVuSans-85"/>
    </g>
   </g>
   <g id="text_20">
    <!-- R -->
    <g transform="translate(95.594844 261.43464)scale(0.14 -0.14)">
     <use xlink:href="#DejaVuSans-82"/>
    </g>
   </g>
   <g id="text_21">
    <!-- U -->
    <g transform="translate(116.458125 261.43464)scale(0.14 -0.14)">
     <use xlink:href="#DejaVuSans-85"/>
    </g>
   </g>
   <g id="text_22">
    <!-- U -->
    <g transform="translate(137.580625 261.43464)scale(0.14 -0.14)">
     <use xlink:href="#DejaVuSans-85"/>
    </g>
   </g>
   <g id="text_23">
    <!-- U -->
    <g transform="translate(53.090625 199.652513)scale(0.14 -0.14)">
     <use xlink:href="#DejaVuSans-85"/>
    </g>
   </g>
   <g id="text_24">
    <!-- U -->
    <g transform="translate(74.213125 199.652513)scale(0.14 -0.14)">
     <use xlink:href="#DejaVuSans-85"/>
    </g>
   </g>
   <g id="text_25">
    <!-- U -->
    <g transform="translate(95.335625 199.652513)scale(0.14 -0.14)">
     <use xlink:href="#DejaVuSans-85"/>
    </g>
   </g>
   <g id="text_26">
    <!-- U -->
    <g transform="translate(116.458125 199.652513)scale(0.14 -0.14)">
     <use xlink:href="#DejaVuSans-85"/>
    </g>
   </g>
   <g id="text_27">
    <!-- R -->
    <g transform="translate(137.839844 199.652513)scale(0.14 -0.14)">
     <use xlink:href="#DejaVuSans-82"/>
    </g>
   </g>
   <g id="text_28">
    <!-- U -->
    <g transform="translate(53.090625 147.15482)scale(0.14 -0.14)">
     <use xlink:href="#DejaVuSans-85"/>
    </g>
   </g>
   <g id="text_29">
    <!-- U -->
    <g transform="translate(74.213125 147.15482)scale(0.14 -0.14)">
     <use xlink:href="#DejaVuSans-85"/>
    </g>
   </g>
   <g id="text_30">
    <!-- U -->
    <g transform="translate(95.335625 147.15482)scale(0.14 -0.14)">
     <use xlink:href="#DejaVuSans-85"/>
    </g>
   </g>
   <g id="text_31">
    <!-- R -->
    <g transform="translate(116.717344 147.15482)scale(0.14 -0.14)">
     <use xlink:href="#DejaVuSans-82"/>
    </g>
   </g>
   <g id="text_32">
    <!-- U -->
    <g transform="translate(137.580625 147.15482)scale(0.14 -0.14)">
     <use xlink:href="#DejaVuSans-85"/>
    </g>
   </g>
   <g id="text_33">
    <!-- U -->
    <g transform="translate(53.090625 109.332521)scale(0.14 -0.14)">
     <use xlink:href="#DejaVuSans-85"/>
    </g>
   </g>
   <g id="text_34">
    <!-- R -->
    <g transform="translate(74.472344 109.332521)scale(0.14 -0.14)">
     <use xlink:href="#DejaVuSans-82"/>
    </g>
   </g>
   <g id="text_35">
    <!-- U -->
    <g transform="translate(95.335625 109.332521)scale(0.14 -0.14)">
     <use xlink:href="#DejaVuSans-85"/>
    </g>
   </g>
   <g id="text_36">
    <!-- U -->
    <g transform="translate(116.458125 109.332521)scale(0.14 -0.14)">
     <use xlink:href="#DejaVuSans-85"/>
    </g>
   </g>
   <g id="text_37">
    <!-- U -->
    <g transform="translate(137.580625 109.332521)scale(0.14 -0.14)">
     <use xlink:href="#DejaVuSans-85"/>
    </g>
   </g>
   <g id="text_38">
    <!-- C -->
    <g style="fill:#ffffff;" transform="translate(53.776193 83.048589)scale(0.127099 -0.127099)">
     <use xlink:href="#DejaVuSans-67"/>
    </g>
   </g>
   <g id="text_39">
    <!-- C -->
    <g style="fill:#ffffff;" transform="translate(74.898693 83.048589)scale(0.127099 -0.127099)">
     <use xlink:href="#DejaVuSans-67"/>
    </g>
   </g>
   <g id="text_40">
    <!-- C -->
    <g style="fill:#ffffff;" transform="translate(96.021193 83.048589)scale(0.127099 -0.127099)">
     <use xlink:href="#DejaVuSans-67"/>
    </g>
   </g>
   <g id="text_41">
    <!-- C -->
    <g style="fill:#ffffff;" transform="translate(117.143693 83.048589)scale(0.127099 -0.127099)">
     <use xlink:href="#DejaVuSans-67"/>
    </g>
   </g>
   <g id="text_42">
    <!-- C -->
    <g style="fill:#ffffff;" transform="translate(138.266193 83.048589)scale(0.127099 -0.127099)">
     <use xlink:href="#DejaVuSans-67"/>
    </g>
   </g>
   <g id="text_43">
    <!-- L -->
    <g style="fill:#ffffff;" transform="translate(56.221988 65.469684)scale(0.071493 -0.071493)">
     <defs>
      <path d="M 9.8125 72.90625 
L 19.671875 72.90625 
L 19.671875 8.296875 
L 55.171875 8.296875 
L 55.171875 0 
L 9.8125 0 
z
" id="DejaVuSans-76"/>
     </defs>
     <use xlink:href="#DejaVuSans-76"/>
    </g>
   </g>
   <g id="text_44">
    <!-- R -->
    <g transform="translate(76.852412 65.469684)scale(0.071493 -0.071493)">
     <use xlink:href="#DejaVuSans-82"/>
    </g>
   </g>
   <g id="text_45">
    <!-- U -->
    <g transform="translate(97.842538 65.469684)scale(0.071493 -0.071493)">
     <use xlink:href="#DejaVuSans-85"/>
    </g>
   </g>
   <g id="text_46">
    <!-- U -->
    <g transform="translate(118.965038 65.469684)scale(0.071493 -0.071493)">
     <use xlink:href="#DejaVuSans-85"/>
    </g>
   </g>
   <g id="text_47">
    <!-- U -->
    <g transform="translate(140.087538 65.469684)scale(0.071493 -0.071493)">
     <use xlink:href="#DejaVuSans-85"/>
    </g>
   </g>
   <g id="text_48">
    <!-- R -->
    <g transform="translate(56.521061 55.129032)scale(0.048721 -0.048721)">
     <use xlink:href="#DejaVuSans-82"/>
    </g>
   </g>
   <g id="text_49">
    <!-- R -->
    <g transform="translate(77.643561 55.129032)scale(0.048721 -0.048721)">
     <use xlink:href="#DejaVuSans-82"/>
    </g>
   </g>
   <g id="text_50">
    <!-- U -->
    <g transform="translate(98.67585 55.129032)scale(0.048721 -0.048721)">
     <use xlink:href="#DejaVuSans-85"/>
    </g>
   </g>
   <g id="text_51">
    <!-- U -->
    <g transform="translate(119.79835 55.129032)scale(0.048721 -0.048721)">
     <use xlink:href="#DejaVuSans-85"/>
    </g>
   </g>
   <g id="text_52">
    <!-- U -->
    <g transform="translate(140.92085 55.129032)scale(0.048721 -0.048721)">
     <use xlink:href="#DejaVuSans-85"/>
    </g>
   </g>
   <g id="text_53">
    <!-- L -->
    <g style="fill:#ffffff;" transform="translate(57.003939 47.53824)scale(0.043426 -0.043426)">
     <use xlink:href="#DejaVuSans-76"/>
    </g>
   </g>
   <g id="text_54">
    <!-- U -->
    <g transform="translate(77.747143 47.53824)scale(0.043426 -0.043426)">
     <use xlink:href="#DejaVuSans-85"/>
    </g>
   </g>
   <g id="text_55">
    <!-- U -->
    <g transform="translate(98.869643 47.53824)scale(0.043426 -0.043426)">
     <use xlink:href="#DejaVuSans-85"/>
    </g>
   </g>
   <g id="text_56">
    <!-- U -->
    <g transform="translate(119.992143 47.53824)scale(0.043426 -0.043426)">
     <use xlink:href="#DejaVuSans-85"/>
    </g>
   </g>
   <g id="text_57">
    <!-- U -->
    <g transform="translate(141.114643 47.53824)scale(0.043426 -0.043426)">
     <use xlink:href="#DejaVuSans-85"/>
    </g>
   </g>
   <g id="text_58">
    <!-- U -->
    <g transform="translate(57.01223 41.084879)scale(0.032834 -0.032834)">
     <use xlink:href="#DejaVuSans-85"/>
    </g>
   </g>
   <g id="text_59">
    <!-- R -->
    <g transform="translate(78.195525 41.084879)scale(0.032834 -0.032834)">
     <use xlink:href="#DejaVuSans-82"/>
    </g>
   </g>
   <g id="text_60">
    <!-- U -->
    <g transform="translate(99.25723 41.084879)scale(0.032834 -0.032834)">
     <use xlink:href="#DejaVuSans-85"/>
    </g>
   </g>
   <g id="text_61">
    <!-- R -->
    <g transform="translate(120.440525 41.084879)scale(0.032834 -0.032834)">
     <use xlink:href="#DejaVuSans-82"/>
    </g>
   </g>
   <g id="text_62">
    <!-- U -->
    <g transform="translate(141.50223 41.084879)scale(0.032834 -0.032834)">
     <use xlink:href="#DejaVuSans-85"/>
    </g>
   </g>
   <g id="text_63">
    <!-- C -->
    <g style="fill:#ffffff;" transform="translate(57.15983 35.92035)scale(0.030186 -0.030186)">
     <use xlink:href="#DejaVuSans-67"/>
    </g>
   </g>
   <g id="text_64">
    <!-- R -->
    <g transform="translate(78.287519 35.92035)scale(0.030186 -0.030186)">
     <use xlink:href="#DejaVuSans-82"/>
    </g>
   </g>
   <g id="text_65">
    <!-- U -->
    <g transform="translate(99.354127 35.92035)scale(0.030186 -0.030186)">
     <use xlink:href="#DejaVuSans-85"/>
    </g>
   </g>
   <g id="text_66">
    <!-- U -->
    <g transform="translate(120.476627 35.92035)scale(0.030186 -0.030186)">
     <use xlink:href="#DejaVuSans-85"/>
    </g>
   </g>
   <g id="text_67">
    <!-- U -->
    <g transform="translate(141.599127 35.92035)scale(0.030186 -0.030186)">
     <use xlink:href="#DejaVuSans-85"/>
    </g>
   </g>
   <g id="text_68">
    <!-- U -->
    <g transform="translate(57.438576 31.521743)scale(0.021183 -0.021183)">
     <use xlink:href="#DejaVuSans-85"/>
    </g>
   </g>
   <g id="text_69">
    <!-- U -->
    <g transform="translate(78.561076 31.521743)scale(0.021183 -0.021183)">
     <use xlink:href="#DejaVuSans-85"/>
    </g>
   </g>
   <g id="text_70">
    <!-- U -->
    <g transform="translate(99.683576 31.521743)scale(0.021183 -0.021183)">
     <use xlink:href="#DejaVuSans-85"/>
    </g>
   </g>
   <g id="text_71">
    <!-- U -->
    <g transform="translate(120.806076 31.521743)scale(0.021183 -0.021183)">
     <use xlink:href="#DejaVuSans-85"/>
    </g>
   </g>
   <g id="text_72">
    <!-- L -->
    <g style="fill:#ffffff;" transform="translate(142.113598 31.521743)scale(0.021183 -0.021183)">
     <use xlink:href="#DejaVuSans-76"/>
    </g>
   </g>
   <g id="text_73">
    <!-- U -->
    <g transform="translate(57.438576 28.09891)scale(0.021183 -0.021183)">
     <use xlink:href="#DejaVuSans-85"/>
    </g>
   </g>
   <g id="text_74">
    <!-- U -->
    <g transform="translate(78.561076 28.09891)scale(0.021183 -0.021183)">
     <use xlink:href="#DejaVuSans-85"/>
    </g>
   </g>
   <g id="text_75">
    <!-- R -->
    <g transform="translate(99.722798 28.09891)scale(0.021183 -0.021183)">
     <use xlink:href="#DejaVuSans-82"/>
    </g>
   </g>
   <g id="text_76">
    <!-- U -->
    <g transform="translate(120.806076 28.09891)scale(0.021183 -0.021183)">
     <use xlink:href="#DejaVuSans-85"/>
    </g>
   </g>
   <g id="text_77">
    <!-- R -->
    <g transform="translate(141.967798 28.09891)scale(0.021183 -0.021183)">
     <use xlink:href="#DejaVuSans-82"/>
    </g>
   </g>
   <g id="text_78">
    <!-- R -->
    <g transform="translate(57.569792 24.816939)scale(0.018535 -0.018535)">
     <use xlink:href="#DejaVuSans-82"/>
    </g>
   </g>
   <g id="text_79">
    <!-- U -->
    <g transform="translate(78.657973 24.816939)scale(0.018535 -0.018535)">
     <use xlink:href="#DejaVuSans-85"/>
    </g>
   </g>
   <g id="text_80">
    <!-- U -->
    <g transform="translate(99.780473 24.816939)scale(0.018535 -0.018535)">
     <use xlink:href="#DejaVuSans-85"/>
    </g>
   </g>
   <g id="text_81">
    <!-- R -->
    <g transform="translate(120.937292 24.816939)scale(0.018535 -0.018535)">
     <use xlink:href="#DejaVuSans-82"/>
    </g>
   </g>
   <g id="text_82">
    <!-- U -->
    <g transform="translate(142.025473 24.816939)scale(0.018535 -0.018535)">
     <use xlink:href="#DejaVuSans-85"/>
    </g>
   </g>
   <g id="text_83">
    <!-- U -->
    <g transform="translate(57.593611 21.906478)scale(0.016947 -0.016947)">
     <use xlink:href="#DejaVuSans-85"/>
    </g>
   </g>
   <g id="text_84">
    <!-- U -->
    <g transform="translate(78.716111 21.906478)scale(0.016947 -0.016947)">
     <use xlink:href="#DejaVuSans-85"/>
    </g>
   </g>
   <g id="text_85">
    <!-- U -->
    <g transform="translate(99.838611 21.906478)scale(0.016947 -0.016947)">
     <use xlink:href="#DejaVuSans-85"/>
    </g>
   </g>
   <g id="text_86">
    <!-- R -->
    <g transform="translate(120.992488 21.906478)scale(0.016947 -0.016947)">
     <use xlink:href="#DejaVuSans-82"/>
    </g>
   </g>
   <g id="text_87">
    <!-- R -->
    <g transform="translate(142.114988 21.906478)scale(0.016947 -0.016947)">
     <use xlink:href="#DejaVuSans-82"/>
    </g>
   </g>
   <g id="text_88">
    <!-- R -->
    <g transform="translate(57.680185 19.252729)scale(0.015358 -0.015358)">
     <use xlink:href="#DejaVuSans-82"/>
    </g>
   </g>
   <g id="text_89">
    <!-- R -->
    <g transform="translate(78.802685 19.252729)scale(0.015358 -0.015358)">
     <use xlink:href="#DejaVuSans-82"/>
    </g>
   </g>
   <g id="text_90">
    <!-- U -->
    <g transform="translate(99.896749 19.252729)scale(0.015358 -0.015358)">
     <use xlink:href="#DejaVuSans-85"/>
    </g>
   </g>
   <g id="text_91">
    <!-- R -->
    <g transform="translate(121.047685 19.252729)scale(0.015358 -0.015358)">
     <use xlink:href="#DejaVuSans-82"/>
    </g>
   </g>
   <g id="text_92">
    <!-- U -->
    <g transform="translate(142.141749 19.252729)scale(0.015358 -0.015358)">
     <use xlink:href="#DejaVuSans-85"/>
    </g>
   </g>
   <g id="text_93">
    <!-- R -->
    <g transform="translate(57.716982 16.82752)scale(0.014299 -0.014299)">
     <use xlink:href="#DejaVuSans-82"/>
    </g>
   </g>
   <g id="text_94">
    <!-- U -->
    <g transform="translate(78.813008 16.82752)scale(0.014299 -0.014299)">
     <use xlink:href="#DejaVuSans-85"/>
    </g>
   </g>
   <g id="text_95">
    <!-- R -->
    <g transform="translate(99.961982 16.82752)scale(0.014299 -0.014299)">
     <use xlink:href="#DejaVuSans-82"/>
    </g>
   </g>
   <g id="text_96">
    <!-- U -->
    <g transform="translate(121.058008 16.82752)scale(0.014299 -0.014299)">
     <use xlink:href="#DejaVuSans-85"/>
    </g>
   </g>
   <g id="text_97">
    <!-- U -->
    <g transform="translate(142.180508 16.82752)scale(0.014299 -0.014299)">
     <use xlink:href="#DejaVuSans-85"/>
    </g>
   </g>
   <g id="text_98">
    <!-- U -->
    <g transform="translate(57.729266 14.573452)scale(0.01324 -0.01324)">
     <use xlink:href="#DejaVuSans-85"/>
    </g>
   </g>
   <g id="text_99">
    <!-- U -->
    <g transform="translate(78.851766 14.573452)scale(0.01324 -0.01324)">
     <use xlink:href="#DejaVuSans-85"/>
    </g>
   </g>
   <g id="text_100">
    <!-- L -->
    <g style="fill:#ffffff;" transform="translate(100.089905 14.573452)scale(0.01324 -0.01324)">
     <use xlink:href="#DejaVuSans-76"/>
    </g>
   </g>
   <g id="text_101">
    <!-- U -->
    <g transform="translate(121.096766 14.573452)scale(0.01324 -0.01324)">
     <use xlink:href="#DejaVuSans-85"/>
    </g>
   </g>
   <g id="text_102">
    <!-- U -->
    <g transform="translate(142.219266 14.573452)scale(0.01324 -0.01324)">
     <use xlink:href="#DejaVuSans-85"/>
    </g>
   </g>
   <g id="text_103">
    <!-- U -->
    <g transform="translate(57.729266 12.434182)scale(0.01324 -0.01324)">
     <use xlink:href="#DejaVuSans-85"/>
    </g>
   </g>
   <g id="text_104">
    <!-- R -->
    <g transform="translate(78.87628 12.434182)scale(0.01324 -0.01324)">
     <use xlink:href="#DejaVuSans-82"/>
    </g>
   </g>
   <g id="text_105">
    <!-- U -->
    <g transform="translate(99.974266 12.434182)scale(0.01324 -0.01324)">
     <use xlink:href="#DejaVuSans-85"/>
    </g>
   </g>
   <g id="text_106">
    <!-- R -->
    <g transform="translate(121.12128 12.434182)scale(0.01324 -0.01324)">
     <use xlink:href="#DejaVuSans-82"/>
    </g>
   </g>
   <g id="text_107">
    <!-- R -->
    <g transform="translate(142.24378 12.434182)scale(0.01324 -0.01324)">
     <use xlink:href="#DejaVuSans-82"/>
    </g>
   </g>
  </g>
  <g id="axes_2">
   <g id="patch_102">
    <path d="M 167.565 388.024219 
L 273.1775 388.024219 
L 273.1775 10.999219 
L 167.565 10.999219 
z
" style="fill:#ffffff;"/>
   </g>
   <g id="matplotlib.axis_3"/>
   <g id="matplotlib.axis_4">
    <g id="ytick_7">
     <g id="line2d_37">
      <g>
       <use style="stroke:#000000;stroke-width:0.8;" x="167.565" xlink:href="#ma1cc09f6d2" y="388.024219"/>
      </g>
     </g>
    </g>
    <g id="ytick_8">
     <g id="line2d_38">
      <g>
       <use style="stroke:#000000;stroke-width:0.8;" x="167.565" xlink:href="#ma1cc09f6d2" y="312.619219"/>
      </g>
     </g>
    </g>
    <g id="ytick_9">
     <g id="line2d_39">
      <g>
       <use style="stroke:#000000;stroke-width:0.8;" x="167.565" xlink:href="#ma1cc09f6d2" y="237.214219"/>
      </g>
     </g>
    </g>
    <g id="ytick_10">
     <g id="line2d_40">
      <g>
       <use style="stroke:#000000;stroke-width:0.8;" x="167.565" xlink:href="#ma1cc09f6d2" y="161.809219"/>
      </g>
     </g>
    </g>
    <g id="ytick_11">
     <g id="line2d_41">
      <g>
       <use style="stroke:#000000;stroke-width:0.8;" x="167.565" xlink:href="#ma1cc09f6d2" y="86.404219"/>
      </g>
     </g>
    </g>
    <g id="ytick_12">
     <g id="line2d_42">
      <g>
       <use style="stroke:#000000;stroke-width:0.8;" x="167.565" xlink:href="#ma1cc09f6d2" y="10.999219"/>
      </g>
     </g>
    </g>
   </g>
   <g id="line2d_43">
    <path clip-path="url(#pe40478e8c2)" d="M 167.565 289.018789 
L 273.1775 289.018789 
" style="fill:none;stroke:#808080;stroke-linecap:square;stroke-width:0.5;"/>
   </g>
   <g id="line2d_44">
    <path clip-path="url(#pe40478e8c2)" d="M 167.565 226.124241 
L 273.1775 226.124241 
" style="fill:none;stroke:#808080;stroke-linecap:square;stroke-width:0.5;"/>
   </g>
   <g id="line2d_45">
    <path clip-path="url(#pe40478e8c2)" d="M 167.565 165.454535 
L 273.1775 165.454535 
" style="fill:none;stroke:#808080;stroke-linecap:square;stroke-width:0.5;"/>
   </g>
   <g id="line2d_46">
    <path clip-path="url(#pe40478e8c2)" d="M 167.565 121.128854 
L 273.1775 121.128854 
" style="fill:none;stroke:#808080;stroke-linecap:square;stroke-width:0.5;"/>
   </g>
   <g id="line2d_47">
    <path clip-path="url(#pe40478e8c2)" d="M 167.565 89.809937 
L 273.1775 89.809937 
" style="fill:none;stroke:#808080;stroke-linecap:square;stroke-width:0.5;"/>
   </g>
   <g id="line2d_48">
    <path clip-path="url(#pe40478e8c2)" d="M 167.565 69.272942 
L 273.1775 69.272942 
" style="fill:none;stroke:#808080;stroke-linecap:square;stroke-width:0.5;"/>
   </g>
   <g id="line2d_49">
    <path clip-path="url(#pe40478e8c2)" d="M 167.565 57.720882 
L 273.1775 57.720882 
" style="fill:none;stroke:#808080;stroke-linecap:square;stroke-width:0.5;"/>
   </g>
   <g id="line2d_50">
    <path clip-path="url(#pe40478e8c2)" d="M 167.565 49.848368 
L 273.1775 49.848368 
" style="fill:none;stroke:#808080;stroke-linecap:square;stroke-width:0.5;"/>
   </g>
   <g id="line2d_51">
    <path clip-path="url(#pe40478e8c2)" d="M 167.565 42.831561 
L 273.1775 42.831561 
" style="fill:none;stroke:#808080;stroke-linecap:square;stroke-width:0.5;"/>
   </g>
   <g id="line2d_52">
    <path clip-path="url(#pe40478e8c2)" d="M 167.565 37.526171 
L 273.1775 37.526171 
" style="fill:none;stroke:#808080;stroke-linecap:square;stroke-width:0.5;"/>
   </g>
   <g id="line2d_53">
    <path clip-path="url(#pe40478e8c2)" d="M 167.565 32.648634 
L 273.1775 32.648634 
" style="fill:none;stroke:#808080;stroke-linecap:square;stroke-width:0.5;"/>
   </g>
   <g id="line2d_54">
    <path clip-path="url(#pe40478e8c2)" d="M 167.565 29.225802 
L 273.1775 29.225802 
" style="fill:none;stroke:#808080;stroke-linecap:square;stroke-width:0.5;"/>
   </g>
   <g id="line2d_55">
    <path clip-path="url(#pe40478e8c2)" d="M 167.565 25.802969 
L 273.1775 25.802969 
" style="fill:none;stroke:#808080;stroke-linecap:square;stroke-width:0.5;"/>
   </g>
   <g id="line2d_56">
    <path clip-path="url(#pe40478e8c2)" d="M 167.565 22.807991 
L 273.1775 22.807991 
" style="fill:none;stroke:#808080;stroke-linecap:square;stroke-width:0.5;"/>
   </g>
   <g id="line2d_57">
    <path clip-path="url(#pe40478e8c2)" d="M 167.565 20.069725 
L 273.1775 20.069725 
" style="fill:none;stroke:#808080;stroke-linecap:square;stroke-width:0.5;"/>
   </g>
   <g id="line2d_58">
    <path clip-path="url(#pe40478e8c2)" d="M 167.565 17.588171 
L 273.1775 17.588171 
" style="fill:none;stroke:#808080;stroke-linecap:square;stroke-width:0.5;"/>
   </g>
   <g id="line2d_59">
    <path clip-path="url(#pe40478e8c2)" d="M 167.565 15.277759 
L 273.1775 15.277759 
" style="fill:none;stroke:#808080;stroke-linecap:square;stroke-width:0.5;"/>
   </g>
   <g id="line2d_60">
    <path clip-path="url(#pe40478e8c2)" d="M 167.565 13.138489 
L 273.1775 13.138489 
" style="fill:none;stroke:#808080;stroke-linecap:square;stroke-width:0.5;"/>
   </g>
   <g id="line2d_61">
    <path clip-path="url(#pe40478e8c2)" d="M 167.565 10.999219 
L 273.1775 10.999219 
" style="fill:none;stroke:#808080;stroke-linecap:square;stroke-width:0.5;"/>
   </g>
   <g id="patch_103">
    <path d="M 167.565 388.024219 
L 167.565 10.999219 
" style="fill:none;stroke:#808080;stroke-linecap:square;stroke-linejoin:miter;stroke-width:0.8;"/>
   </g>
   <g id="patch_104">
    <path d="M 273.1775 388.024219 
L 273.1775 10.999219 
" style="fill:none;stroke:#808080;stroke-linecap:square;stroke-linejoin:miter;stroke-width:0.8;"/>
   </g>
   <g id="patch_105">
    <path d="M 167.565 388.024219 
L 273.1775 388.024219 
" style="fill:none;stroke:#808080;stroke-linecap:square;stroke-linejoin:miter;stroke-width:0.8;"/>
   </g>
   <g id="patch_106">
    <path d="M 167.565 10.999219 
L 273.1775 10.999219 
" style="fill:none;stroke:#808080;stroke-linecap:square;stroke-linejoin:miter;stroke-width:0.8;"/>
   </g>
   <g id="text_108">
    <!--  1,157 (23%) -->
    <g transform="translate(168.621125 342.384629)scale(0.14 -0.14)">
     <defs>
      <path d="M 11.71875 12.40625 
L 22.015625 12.40625 
L 22.015625 4 
L 14.015625 -11.625 
L 7.71875 -11.625 
L 11.71875 4 
z
" id="DejaVuSans-44"/>
      <path d="M 10.796875 72.90625 
L 49.515625 72.90625 
L 49.515625 64.59375 
L 19.828125 64.59375 
L 19.828125 46.734375 
Q 21.96875 47.46875 24.109375 47.828125 
Q 26.265625 48.1875 28.421875 48.1875 
Q 40.625 48.1875 47.75 41.5 
Q 54.890625 34.8125 54.890625 23.390625 
Q 54.890625 11.625 47.5625 5.09375 
Q 40.234375 -1.421875 26.90625 -1.421875 
Q 22.3125 -1.421875 17.546875 -0.640625 
Q 12.796875 0.140625 7.71875 1.703125 
L 7.71875 11.625 
Q 12.109375 9.234375 16.796875 8.0625 
Q 21.484375 6.890625 26.703125 6.890625 
Q 35.15625 6.890625 40.078125 11.328125 
Q 45.015625 15.765625 45.015625 23.390625 
Q 45.015625 31 40.078125 35.4375 
Q 35.15625 39.890625 26.703125 39.890625 
Q 22.75 39.890625 18.8125 39.015625 
Q 14.890625 38.140625 10.796875 36.28125 
z
" id="DejaVuSans-53"/>
      <path d="M 8.203125 72.90625 
L 55.078125 72.90625 
L 55.078125 68.703125 
L 28.609375 0 
L 18.3125 0 
L 43.21875 64.59375 
L 8.203125 64.59375 
z
" id="DejaVuSans-55"/>
      <path d="M 31 75.875 
Q 24.46875 64.65625 21.28125 53.65625 
Q 18.109375 42.671875 18.109375 31.390625 
Q 18.109375 20.125 21.3125 9.0625 
Q 24.515625 -2 31 -13.1875 
L 23.1875 -13.1875 
Q 15.875 -1.703125 12.234375 9.375 
Q 8.59375 20.453125 8.59375 31.390625 
Q 8.59375 42.28125 12.203125 53.3125 
Q 15.828125 64.359375 23.1875 75.875 
z
" id="DejaVuSans-40"/>
      <path d="M 40.578125 39.3125 
Q 47.65625 37.796875 51.625 33 
Q 55.609375 28.21875 55.609375 21.1875 
Q 55.609375 10.40625 48.1875 4.484375 
Q 40.765625 -1.421875 27.09375 -1.421875 
Q 22.515625 -1.421875 17.65625 -0.515625 
Q 12.796875 0.390625 7.625 2.203125 
L 7.625 11.71875 
Q 11.71875 9.328125 16.59375 8.109375 
Q 21.484375 6.890625 26.8125 6.890625 
Q 36.078125 6.890625 40.9375 10.546875 
Q 45.796875 14.203125 45.796875 21.1875 
Q 45.796875 27.640625 41.28125 31.265625 
Q 36.765625 34.90625 28.71875 34.90625 
L 20.21875 34.90625 
L 20.21875 43.015625 
L 29.109375 43.015625 
Q 36.375 43.015625 40.234375 45.921875 
Q 44.09375 48.828125 44.09375 54.296875 
Q 44.09375 59.90625 40.109375 62.90625 
Q 36.140625 65.921875 28.71875 65.921875 
Q 24.65625 65.921875 20.015625 65.03125 
Q 15.375 64.15625 9.8125 62.3125 
L 9.8125 71.09375 
Q 15.4375 72.65625 20.34375 73.4375 
Q 25.25 74.21875 29.59375 74.21875 
Q 40.828125 74.21875 47.359375 69.109375 
Q 53.90625 64.015625 53.90625 55.328125 
Q 53.90625 49.265625 50.4375 45.09375 
Q 46.96875 40.921875 40.578125 39.3125 
z
" id="DejaVuSans-51"/>
      <path d="M 72.703125 32.078125 
Q 68.453125 32.078125 66.03125 28.46875 
Q 63.625 24.859375 63.625 18.40625 
Q 63.625 12.0625 66.03125 8.421875 
Q 68.453125 4.78125 72.703125 4.78125 
Q 76.859375 4.78125 79.265625 8.421875 
Q 81.6875 12.0625 81.6875 18.40625 
Q 81.6875 24.8125 79.265625 28.4375 
Q 76.859375 32.078125 72.703125 32.078125 
z
M 72.703125 38.28125 
Q 80.421875 38.28125 84.953125 32.90625 
Q 89.5 27.546875 89.5 18.40625 
Q 89.5 9.28125 84.9375 3.921875 
Q 80.375 -1.421875 72.703125 -1.421875 
Q 64.890625 -1.421875 60.34375 3.921875 
Q 55.8125 9.28125 55.8125 18.40625 
Q 55.8125 27.59375 60.375 32.9375 
Q 64.9375 38.28125 72.703125 38.28125 
z
M 22.3125 68.015625 
Q 18.109375 68.015625 15.6875 64.375 
Q 13.28125 60.75 13.28125 54.390625 
Q 13.28125 47.953125 15.671875 44.328125 
Q 18.0625 40.71875 22.3125 40.71875 
Q 26.5625 40.71875 28.96875 44.328125 
Q 31.390625 47.953125 31.390625 54.390625 
Q 31.390625 60.6875 28.953125 64.34375 
Q 26.515625 68.015625 22.3125 68.015625 
z
M 66.40625 74.21875 
L 74.21875 74.21875 
L 28.609375 -1.421875 
L 20.796875 -1.421875 
z
M 22.3125 74.21875 
Q 30.03125 74.21875 34.609375 68.875 
Q 39.203125 63.53125 39.203125 54.390625 
Q 39.203125 45.171875 34.640625 39.84375 
Q 30.078125 34.515625 22.3125 34.515625 
Q 14.546875 34.515625 10.03125 39.859375 
Q 5.515625 45.21875 5.515625 54.390625 
Q 5.515625 63.484375 10.046875 68.84375 
Q 14.59375 74.21875 22.3125 74.21875 
z
" id="DejaVuSans-37"/>
      <path d="M 8.015625 75.875 
L 15.828125 75.875 
Q 23.140625 64.359375 26.78125 53.3125 
Q 30.421875 42.28125 30.421875 31.390625 
Q 30.421875 20.453125 26.78125 9.375 
Q 23.140625 -1.703125 15.828125 -13.1875 
L 8.015625 -13.1875 
Q 14.5 -2 17.703125 9.0625 
Q 20.90625 20.125 20.90625 31.390625 
Q 20.90625 42.671875 17.703125 53.65625 
Q 14.5 64.65625 8.015625 75.875 
z
" id="DejaVuSans-41"/>
     </defs>
     <use xlink:href="#DejaVuSans-32"/>
     <use x="31.787109" xlink:href="#DejaVuSans-49"/>
     <use x="95.410156" xlink:href="#DejaVuSans-44"/>
     <use x="127.197266" xlink:href="#DejaVuSans-49"/>
     <use x="190.820312" xlink:href="#DejaVuSans-53"/>
     <use x="254.443359" xlink:href="#DejaVuSans-55"/>
     <use x="318.066406" xlink:href="#DejaVuSans-32"/>
     <use x="349.853516" xlink:href="#DejaVuSans-40"/>
     <use x="388.867188" xlink:href="#DejaVuSans-50"/>
     <use x="452.490234" xlink:href="#DejaVuSans-51"/>
     <use x="516.113281" xlink:href="#DejaVuSans-37"/>
     <use x="611.132812" xlink:href="#DejaVuSans-41"/>
    </g>
   </g>
   <g id="text_109">
    <!--  735 (15%) -->
    <g transform="translate(168.621125 261.43464)scale(0.14 -0.14)">
     <use xlink:href="#DejaVuSans-32"/>
     <use x="31.787109" xlink:href="#DejaVuSans-55"/>
     <use x="95.410156" xlink:href="#DejaVuSans-51"/>
     <use x="159.033203" xlink:href="#DejaVuSans-53"/>
     <use x="222.65625" xlink:href="#DejaVuSans-32"/>
     <use x="254.443359" xlink:href="#DejaVuSans-40"/>
     <use x="293.457031" xlink:href="#DejaVuSans-49"/>
     <use x="357.080078" xlink:href="#DejaVuSans-53"/>
     <use x="420.703125" xlink:href="#DejaVuSans-37"/>
     <use x="515.722656" xlink:href="#DejaVuSans-41"/>
    </g>
   </g>
   <g id="text_110">
    <!--  709 (14%) -->
    <g transform="translate(168.621125 199.652513)scale(0.14 -0.14)">
     <defs>
      <path d="M 10.984375 1.515625 
L 10.984375 10.5 
Q 14.703125 8.734375 18.5 7.8125 
Q 22.3125 6.890625 25.984375 6.890625 
Q 35.75 6.890625 40.890625 13.453125 
Q 46.046875 20.015625 46.78125 33.40625 
Q 43.953125 29.203125 39.59375 26.953125 
Q 35.25 24.703125 29.984375 24.703125 
Q 19.046875 24.703125 12.671875 31.3125 
Q 6.296875 37.9375 6.296875 49.421875 
Q 6.296875 60.640625 12.9375 67.421875 
Q 19.578125 74.21875 30.609375 74.21875 
Q 43.265625 74.21875 49.921875 64.515625 
Q 56.59375 54.828125 56.59375 36.375 
Q 56.59375 19.140625 48.40625 8.859375 
Q 40.234375 -1.421875 26.421875 -1.421875 
Q 22.703125 -1.421875 18.890625 -0.6875 
Q 15.09375 0.046875 10.984375 1.515625 
z
M 30.609375 32.421875 
Q 37.25 32.421875 41.125 36.953125 
Q 45.015625 41.5 45.015625 49.421875 
Q 45.015625 57.28125 41.125 61.84375 
Q 37.25 66.40625 30.609375 66.40625 
Q 23.96875 66.40625 20.09375 61.84375 
Q 16.21875 57.28125 16.21875 49.421875 
Q 16.21875 41.5 20.09375 36.953125 
Q 23.96875 32.421875 30.609375 32.421875 
z
" id="DejaVuSans-57"/>
     </defs>
     <use xlink:href="#DejaVuSans-32"/>
     <use x="31.787109" xlink:href="#DejaVuSans-55"/>
     <use x="95.410156" xlink:href="#DejaVuSans-48"/>
     <use x="159.033203" xlink:href="#DejaVuSans-57"/>
     <use x="222.65625" xlink:href="#DejaVuSans-32"/>
     <use x="254.443359" xlink:href="#DejaVuSans-40"/>
     <use x="293.457031" xlink:href="#DejaVuSans-49"/>
     <use x="357.080078" xlink:href="#DejaVuSans-52"/>
     <use x="420.703125" xlink:href="#DejaVuSans-37"/>
     <use x="515.722656" xlink:href="#DejaVuSans-41"/>
    </g>
   </g>
   <g id="text_111">
    <!--  518 (10%) -->
    <g transform="translate(168.621125 147.15482)scale(0.14 -0.14)">
     <use xlink:href="#DejaVuSans-32"/>
     <use x="31.787109" xlink:href="#DejaVuSans-53"/>
     <use x="95.410156" xlink:href="#DejaVuSans-49"/>
     <use x="159.033203" xlink:href="#DejaVuSans-56"/>
     <use x="222.65625" xlink:href="#DejaVuSans-32"/>
     <use x="254.443359" xlink:href="#DejaVuSans-40"/>
     <use x="293.457031" xlink:href="#DejaVuSans-49"/>
     <use x="357.080078" xlink:href="#DejaVuSans-48"/>
     <use x="420.703125" xlink:href="#DejaVuSans-37"/>
     <use x="515.722656" xlink:href="#DejaVuSans-41"/>
    </g>
   </g>
   <g id="text_112">
    <!--  366 (7%) -->
    <g transform="translate(168.621125 109.332521)scale(0.14 -0.14)">
     <use xlink:href="#DejaVuSans-32"/>
     <use x="31.787109" xlink:href="#DejaVuSans-51"/>
     <use x="95.410156" xlink:href="#DejaVuSans-54"/>
     <use x="159.033203" xlink:href="#DejaVuSans-54"/>
     <use x="222.65625" xlink:href="#DejaVuSans-32"/>
     <use x="254.443359" xlink:href="#DejaVuSans-40"/>
     <use x="293.457031" xlink:href="#DejaVuSans-55"/>
     <use x="357.080078" xlink:href="#DejaVuSans-37"/>
     <use x="452.099609" xlink:href="#DejaVuSans-41"/>
    </g>
   </g>
   <g id="text_113">
    <!--  240 (5%) -->
    <g transform="translate(168.621125 82.487445)scale(0.106764 -0.106764)">
     <use xlink:href="#DejaVuSans-32"/>
     <use x="31.787109" xlink:href="#DejaVuSans-50"/>
     <use x="95.410156" xlink:href="#DejaVuSans-52"/>
     <use x="159.033203" xlink:href="#DejaVuSans-48"/>
     <use x="222.65625" xlink:href="#DejaVuSans-32"/>
     <use x="254.443359" xlink:href="#DejaVuSans-40"/>
     <use x="293.457031" xlink:href="#DejaVuSans-53"/>
     <use x="357.080078" xlink:href="#DejaVuSans-37"/>
     <use x="452.099609" xlink:href="#DejaVuSans-41"/>
    </g>
   </g>
   <g id="text_114">
    <!--  135 (3%) -->
    <g transform="translate(168.621125 65.15404)scale(0.060054 -0.060054)">
     <use xlink:href="#DejaVuSans-32"/>
     <use x="31.787109" xlink:href="#DejaVuSans-49"/>
     <use x="95.410156" xlink:href="#DejaVuSans-51"/>
     <use x="159.033203" xlink:href="#DejaVuSans-53"/>
     <use x="222.65625" xlink:href="#DejaVuSans-32"/>
     <use x="254.443359" xlink:href="#DejaVuSans-40"/>
     <use x="293.457031" xlink:href="#DejaVuSans-51"/>
     <use x="357.080078" xlink:href="#DejaVuSans-37"/>
     <use x="452.099609" xlink:href="#DejaVuSans-41"/>
    </g>
   </g>
   <g id="text_115">
    <!--  92 (2%) -->
    <g transform="translate(168.621125 54.913927)scale(0.040926 -0.040926)">
     <use xlink:href="#DejaVuSans-32"/>
     <use x="31.787109" xlink:href="#DejaVuSans-57"/>
     <use x="95.410156" xlink:href="#DejaVuSans-50"/>
     <use x="159.033203" xlink:href="#DejaVuSans-32"/>
     <use x="190.820312" xlink:href="#DejaVuSans-40"/>
     <use x="229.833984" xlink:href="#DejaVuSans-50"/>
     <use x="293.457031" xlink:href="#DejaVuSans-37"/>
     <use x="388.476562" xlink:href="#DejaVuSans-41"/>
    </g>
   </g>
   <g id="text_116">
    <!--  82 (2%) -->
    <g transform="translate(168.621125 47.346516)scale(0.036478 -0.036478)">
     <use xlink:href="#DejaVuSans-32"/>
     <use x="31.787109" xlink:href="#DejaVuSans-56"/>
     <use x="95.410156" xlink:href="#DejaVuSans-50"/>
     <use x="159.033203" xlink:href="#DejaVuSans-32"/>
     <use x="190.820312" xlink:href="#DejaVuSans-40"/>
     <use x="229.833984" xlink:href="#DejaVuSans-50"/>
     <use x="293.457031" xlink:href="#DejaVuSans-37"/>
     <use x="388.476562" xlink:href="#DejaVuSans-41"/>
    </g>
   </g>
   <g id="text_117">
    <!--  62 (1%) -->
    <g transform="translate(168.621125 40.939917)scale(0.027581 -0.027581)">
     <use xlink:href="#DejaVuSans-32"/>
     <use x="31.787109" xlink:href="#DejaVuSans-54"/>
     <use x="95.410156" xlink:href="#DejaVuSans-50"/>
     <use x="159.033203" xlink:href="#DejaVuSans-32"/>
     <use x="190.820312" xlink:href="#DejaVuSans-40"/>
     <use x="229.833984" xlink:href="#DejaVuSans-49"/>
     <use x="293.457031" xlink:href="#DejaVuSans-37"/>
     <use x="388.476562" xlink:href="#DejaVuSans-41"/>
    </g>
   </g>
   <g id="text_118">
    <!--  57 (1%) -->
    <g transform="translate(168.621125 35.787079)scale(0.025356 -0.025356)">
     <use xlink:href="#DejaVuSans-32"/>
     <use x="31.787109" xlink:href="#DejaVuSans-53"/>
     <use x="95.410156" xlink:href="#DejaVuSans-55"/>
     <use x="159.033203" xlink:href="#DejaVuSans-32"/>
     <use x="190.820312" xlink:href="#DejaVuSans-40"/>
     <use x="229.833984" xlink:href="#DejaVuSans-49"/>
     <use x="293.457031" xlink:href="#DejaVuSans-37"/>
     <use x="388.476562" xlink:href="#DejaVuSans-41"/>
    </g>
   </g>
   <g id="text_119">
    <!--  40 (1%) -->
    <g transform="translate(168.621125 31.428219)scale(0.017794 -0.017794)">
     <use xlink:href="#DejaVuSans-32"/>
     <use x="31.787109" xlink:href="#DejaVuSans-52"/>
     <use x="95.410156" xlink:href="#DejaVuSans-48"/>
     <use x="159.033203" xlink:href="#DejaVuSans-32"/>
     <use x="190.820312" xlink:href="#DejaVuSans-40"/>
     <use x="229.833984" xlink:href="#DejaVuSans-49"/>
     <use x="293.457031" xlink:href="#DejaVuSans-37"/>
     <use x="388.476562" xlink:href="#DejaVuSans-41"/>
    </g>
   </g>
   <g id="text_120">
    <!--  40 (1%) -->
    <g transform="translate(168.621125 28.005386)scale(0.017794 -0.017794)">
     <use xlink:href="#DejaVuSans-32"/>
     <use x="31.787109" xlink:href="#DejaVuSans-52"/>
     <use x="95.410156" xlink:href="#DejaVuSans-48"/>
     <use x="159.033203" xlink:href="#DejaVuSans-32"/>
     <use x="190.820312" xlink:href="#DejaVuSans-40"/>
     <use x="229.833984" xlink:href="#DejaVuSans-49"/>
     <use x="293.457031" xlink:href="#DejaVuSans-37"/>
     <use x="388.476562" xlink:href="#DejaVuSans-41"/>
    </g>
   </g>
   <g id="text_121">
    <!--  35 (1%) -->
    <g transform="translate(168.621125 24.735106)scale(0.01557 -0.01557)">
     <use xlink:href="#DejaVuSans-32"/>
     <use x="31.787109" xlink:href="#DejaVuSans-51"/>
     <use x="95.410156" xlink:href="#DejaVuSans-53"/>
     <use x="159.033203" xlink:href="#DejaVuSans-32"/>
     <use x="190.820312" xlink:href="#DejaVuSans-40"/>
     <use x="229.833984" xlink:href="#DejaVuSans-49"/>
     <use x="293.457031" xlink:href="#DejaVuSans-37"/>
     <use x="388.476562" xlink:href="#DejaVuSans-41"/>
    </g>
   </g>
   <g id="text_122">
    <!--  32 (1%) -->
    <g transform="translate(168.621125 21.831659)scale(0.014235 -0.014235)">
     <use xlink:href="#DejaVuSans-32"/>
     <use x="31.787109" xlink:href="#DejaVuSans-51"/>
     <use x="95.410156" xlink:href="#DejaVuSans-50"/>
     <use x="159.033203" xlink:href="#DejaVuSans-32"/>
     <use x="190.820312" xlink:href="#DejaVuSans-40"/>
     <use x="229.833984" xlink:href="#DejaVuSans-49"/>
     <use x="293.457031" xlink:href="#DejaVuSans-37"/>
     <use x="388.476562" xlink:href="#DejaVuSans-41"/>
    </g>
   </g>
   <g id="text_123">
    <!--  29 (1%) -->
    <g transform="translate(168.621125 19.184924)scale(0.012901 -0.012901)">
     <use xlink:href="#DejaVuSans-32"/>
     <use x="31.787109" xlink:href="#DejaVuSans-50"/>
     <use x="95.410156" xlink:href="#DejaVuSans-57"/>
     <use x="159.033203" xlink:href="#DejaVuSans-32"/>
     <use x="190.820312" xlink:href="#DejaVuSans-40"/>
     <use x="229.833984" xlink:href="#DejaVuSans-49"/>
     <use x="293.457031" xlink:href="#DejaVuSans-37"/>
     <use x="388.476562" xlink:href="#DejaVuSans-41"/>
    </g>
   </g>
   <g id="text_124">
    <!--  27 (1%) -->
    <g transform="translate(168.621125 16.764391)scale(0.012011 -0.012011)">
     <use xlink:href="#DejaVuSans-32"/>
     <use x="31.787109" xlink:href="#DejaVuSans-50"/>
     <use x="95.410156" xlink:href="#DejaVuSans-55"/>
     <use x="159.033203" xlink:href="#DejaVuSans-32"/>
     <use x="190.820312" xlink:href="#DejaVuSans-40"/>
     <use x="229.833984" xlink:href="#DejaVuSans-49"/>
     <use x="293.457031" xlink:href="#DejaVuSans-37"/>
     <use x="388.476562" xlink:href="#DejaVuSans-41"/>
    </g>
   </g>
   <g id="text_125">
    <!--  25 (0%) -->
    <g transform="translate(168.621125 14.515)scale(0.011121 -0.011121)">
     <use xlink:href="#DejaVuSans-32"/>
     <use x="31.787109" xlink:href="#DejaVuSans-50"/>
     <use x="95.410156" xlink:href="#DejaVuSans-53"/>
     <use x="159.033203" xlink:href="#DejaVuSans-32"/>
     <use x="190.820312" xlink:href="#DejaVuSans-40"/>
     <use x="229.833984" xlink:href="#DejaVuSans-48"/>
     <use x="293.457031" xlink:href="#DejaVuSans-37"/>
     <use x="388.476562" xlink:href="#DejaVuSans-41"/>
    </g>
   </g>
   <g id="text_126">
    <!--  25 (0%) -->
    <g transform="translate(168.621125 12.375729)scale(0.011121 -0.011121)">
     <use xlink:href="#DejaVuSans-32"/>
     <use x="31.787109" xlink:href="#DejaVuSans-50"/>
     <use x="95.410156" xlink:href="#DejaVuSans-53"/>
     <use x="159.033203" xlink:href="#DejaVuSans-32"/>
     <use x="190.820312" xlink:href="#DejaVuSans-40"/>
     <use x="229.833984" xlink:href="#DejaVuSans-48"/>
     <use x="293.457031" xlink:href="#DejaVuSans-37"/>
     <use x="388.476562" xlink:href="#DejaVuSans-41"/>
    </g>
   </g>
  </g>
 </g>
 <defs>
  <clipPath id="pea9b326c53">
   <rect height="377.025" width="105.6125" x="47.6525" y="10.999219"/>
  </clipPath>
  <clipPath id="pe40478e8c2">
   <rect height="377.025" width="105.6125" x="167.565" y="10.999219"/>
  </clipPath>
 </defs>
</svg>
