<?xml version="1.0" encoding="utf-8" standalone="no"?>
<!DOCTYPE svg PUBLIC "-//W3C//DTD SVG 1.1//EN"
  "http://www.w3.org/Graphics/SVG/1.1/DTD/svg11.dtd">
<!-- Created with matplotlib (https://matplotlib.org/) -->
<svg height="373.360781pt" version="1.1" viewBox="0 0 163.703437 373.360781" width="163.703437pt" xmlns="http://www.w3.org/2000/svg" xmlns:xlink="http://www.w3.org/1999/xlink">
 <metadata>
  <rdf:RDF xmlns:cc="http://creativecommons.org/ns#" xmlns:dc="http://purl.org/dc/elements/1.1/" xmlns:rdf="http://www.w3.org/1999/02/22-rdf-syntax-ns#">
   <cc:Work>
    <dc:type rdf:resource="http://purl.org/dc/dcmitype/StillImage"/>
    <dc:date>2020-08-27T14:34:43.536055</dc:date>
    <dc:format>image/svg+xml</dc:format>
    <dc:creator>
     <cc:Agent>
      <dc:title>Matplotlib v3.3.0, https://matplotlib.org/</dc:title>
     </cc:Agent>
    </dc:creator>
   </cc:Work>
  </rdf:RDF>
 </metadata>
 <defs>
  <style type="text/css">*{stroke-linecap:butt;stroke-linejoin:round;}</style>
 </defs>
 <g id="figure_1">
  <g id="patch_1">
   <path d="M 0 373.360781 
L 163.703437 373.360781 
L 163.703437 0 
L 0 0 
z
" style="fill:none;"/>
  </g>
  <g id="axes_1">
   <g id="patch_2">
    <path d="M 44.903438 336.938906 
L 156.503438 336.938906 
L 156.503438 10.778906 
L 44.903438 10.778906 
z
" style="fill:#ffffff;"/>
   </g>
   <g id="patch_3">
    <path clip-path="url(#pe75a6a1eb5)" d="M 44.903438 336.938906 
L 67.223438 336.938906 
L 67.223438 251.085445 
L 44.903438 251.085445 
z
" style="fill:#6aaed6;"/>
   </g>
   <g id="patch_4">
    <path clip-path="url(#pe75a6a1eb5)" d="M 67.223438 336.938906 
L 89.543438 336.938906 
L 89.543438 251.085445 
L 67.223438 251.085445 
z
" style="fill:#f7fbff;"/>
   </g>
   <g id="patch_5">
    <path clip-path="url(#pe75a6a1eb5)" d="M 89.543438 336.938906 
L 111.863438 336.938906 
L 111.863438 251.085445 
L 89.543438 251.085445 
z
" style="fill:#f7fbff;"/>
   </g>
   <g id="patch_6">
    <path clip-path="url(#pe75a6a1eb5)" d="M 111.863438 336.938906 
L 134.183438 336.938906 
L 134.183438 251.085445 
L 111.863438 251.085445 
z
" style="fill:#f7fbff;"/>
   </g>
   <g id="patch_7">
    <path clip-path="url(#pe75a6a1eb5)" d="M 134.183438 336.938906 
L 156.503438 336.938906 
L 156.503438 251.085445 
L 134.183438 251.085445 
z
" style="fill:#f7fbff;"/>
   </g>
   <g id="patch_8">
    <path clip-path="url(#pe75a6a1eb5)" d="M 44.903438 251.085445 
L 67.223438 251.085445 
L 67.223438 198.423113 
L 44.903438 198.423113 
z
" style="fill:#f7fbff;"/>
   </g>
   <g id="patch_9">
    <path clip-path="url(#pe75a6a1eb5)" d="M 67.223438 251.085445 
L 89.543438 251.085445 
L 89.543438 198.423113 
L 67.223438 198.423113 
z
" style="fill:#f7fbff;"/>
   </g>
   <g id="patch_10">
    <path clip-path="url(#pe75a6a1eb5)" d="M 89.543438 251.085445 
L 111.863438 251.085445 
L 111.863438 198.423113 
L 89.543438 198.423113 
z
" style="fill:#6aaed6;"/>
   </g>
   <g id="patch_11">
    <path clip-path="url(#pe75a6a1eb5)" d="M 111.863438 251.085445 
L 134.183438 251.085445 
L 134.183438 198.423113 
L 111.863438 198.423113 
z
" style="fill:#f7fbff;"/>
   </g>
   <g id="patch_12">
    <path clip-path="url(#pe75a6a1eb5)" d="M 134.183438 251.085445 
L 156.503438 251.085445 
L 156.503438 198.423113 
L 134.183438 198.423113 
z
" style="fill:#f7fbff;"/>
   </g>
   <g id="patch_13">
    <path clip-path="url(#pe75a6a1eb5)" d="M 44.903438 198.423113 
L 67.223438 198.423113 
L 67.223438 146.522998 
L 44.903438 146.522998 
z
" style="fill:#f7fbff;"/>
   </g>
   <g id="patch_14">
    <path clip-path="url(#pe75a6a1eb5)" d="M 67.223438 198.423113 
L 89.543438 198.423113 
L 89.543438 146.522998 
L 67.223438 146.522998 
z
" style="fill:#f7fbff;"/>
   </g>
   <g id="patch_15">
    <path clip-path="url(#pe75a6a1eb5)" d="M 89.543438 198.423113 
L 111.863438 198.423113 
L 111.863438 146.522998 
L 89.543438 146.522998 
z
" style="fill:#f7fbff;"/>
   </g>
   <g id="patch_16">
    <path clip-path="url(#pe75a6a1eb5)" d="M 111.863438 198.423113 
L 134.183438 198.423113 
L 134.183438 146.522998 
L 111.863438 146.522998 
z
" style="fill:#f7fbff;"/>
   </g>
   <g id="patch_17">
    <path clip-path="url(#pe75a6a1eb5)" d="M 134.183438 198.423113 
L 156.503438 198.423113 
L 156.503438 146.522998 
L 134.183438 146.522998 
z
" style="fill:#6aaed6;"/>
   </g>
   <g id="patch_18">
    <path clip-path="url(#pe75a6a1eb5)" d="M 44.903438 146.522998 
L 67.223438 146.522998 
L 67.223438 110.629461 
L 44.903438 110.629461 
z
" style="fill:#f7fbff;"/>
   </g>
   <g id="patch_19">
    <path clip-path="url(#pe75a6a1eb5)" d="M 67.223438 146.522998 
L 89.543438 146.522998 
L 89.543438 110.629461 
L 67.223438 110.629461 
z
" style="fill:#f7fbff;"/>
   </g>
   <g id="patch_20">
    <path clip-path="url(#pe75a6a1eb5)" d="M 89.543438 146.522998 
L 111.863438 146.522998 
L 111.863438 110.629461 
L 89.543438 110.629461 
z
" style="fill:#f7fbff;"/>
   </g>
   <g id="patch_21">
    <path clip-path="url(#pe75a6a1eb5)" d="M 111.863438 146.522998 
L 134.183438 146.522998 
L 134.183438 110.629461 
L 111.863438 110.629461 
z
" style="fill:#6aaed6;"/>
   </g>
   <g id="patch_22">
    <path clip-path="url(#pe75a6a1eb5)" d="M 134.183438 146.522998 
L 156.503438 146.522998 
L 156.503438 110.629461 
L 134.183438 110.629461 
z
" style="fill:#f7fbff;"/>
   </g>
   <g id="patch_23">
    <path clip-path="url(#pe75a6a1eb5)" d="M 44.903438 110.629461 
L 67.223438 110.629461 
L 67.223438 85.060512 
L 44.903438 85.060512 
z
" style="fill:#f7fbff;"/>
   </g>
   <g id="patch_24">
    <path clip-path="url(#pe75a6a1eb5)" d="M 67.223438 110.629461 
L 89.543438 110.629461 
L 89.543438 85.060512 
L 67.223438 85.060512 
z
" style="fill:#6aaed6;"/>
   </g>
   <g id="patch_25">
    <path clip-path="url(#pe75a6a1eb5)" d="M 89.543438 110.629461 
L 111.863438 110.629461 
L 111.863438 85.060512 
L 89.543438 85.060512 
z
" style="fill:#f7fbff;"/>
   </g>
   <g id="patch_26">
    <path clip-path="url(#pe75a6a1eb5)" d="M 111.863438 110.629461 
L 134.183438 110.629461 
L 134.183438 85.060512 
L 111.863438 85.060512 
z
" style="fill:#f7fbff;"/>
   </g>
   <g id="patch_27">
    <path clip-path="url(#pe75a6a1eb5)" d="M 134.183438 110.629461 
L 156.503438 110.629461 
L 156.503438 85.060512 
L 134.183438 85.060512 
z
" style="fill:#f7fbff;"/>
   </g>
   <g id="patch_28">
    <path clip-path="url(#pe75a6a1eb5)" d="M 44.903438 85.060512 
L 67.223438 85.060512 
L 67.223438 68.430302 
L 44.903438 68.430302 
z
" style="fill:#08306b;"/>
   </g>
   <g id="patch_29">
    <path clip-path="url(#pe75a6a1eb5)" d="M 67.223438 85.060512 
L 89.543438 85.060512 
L 89.543438 68.430302 
L 67.223438 68.430302 
z
" style="fill:#08306b;"/>
   </g>
   <g id="patch_30">
    <path clip-path="url(#pe75a6a1eb5)" d="M 89.543438 85.060512 
L 111.863438 85.060512 
L 111.863438 68.430302 
L 89.543438 68.430302 
z
" style="fill:#08306b;"/>
   </g>
   <g id="patch_31">
    <path clip-path="url(#pe75a6a1eb5)" d="M 111.863438 85.060512 
L 134.183438 85.060512 
L 134.183438 68.430302 
L 111.863438 68.430302 
z
" style="fill:#08306b;"/>
   </g>
   <g id="patch_32">
    <path clip-path="url(#pe75a6a1eb5)" d="M 134.183438 85.060512 
L 156.503438 85.060512 
L 156.503438 68.430302 
L 134.183438 68.430302 
z
" style="fill:#08306b;"/>
   </g>
   <g id="patch_33">
    <path clip-path="url(#pe75a6a1eb5)" d="M 44.903438 68.430302 
L 67.223438 68.430302 
L 67.223438 52.493017 
L 44.903438 52.493017 
z
" style="fill:#6aaed6;"/>
   </g>
   <g id="patch_34">
    <path clip-path="url(#pe75a6a1eb5)" d="M 67.223438 68.430302 
L 89.543438 68.430302 
L 89.543438 52.493017 
L 67.223438 52.493017 
z
" style="fill:#6aaed6;"/>
   </g>
   <g id="patch_35">
    <path clip-path="url(#pe75a6a1eb5)" d="M 89.543438 68.430302 
L 111.863438 68.430302 
L 111.863438 52.493017 
L 89.543438 52.493017 
z
" style="fill:#f7fbff;"/>
   </g>
   <g id="patch_36">
    <path clip-path="url(#pe75a6a1eb5)" d="M 111.863438 68.430302 
L 134.183438 68.430302 
L 134.183438 52.493017 
L 111.863438 52.493017 
z
" style="fill:#f7fbff;"/>
   </g>
   <g id="patch_37">
    <path clip-path="url(#pe75a6a1eb5)" d="M 134.183438 68.430302 
L 156.503438 68.430302 
L 156.503438 52.493017 
L 134.183438 52.493017 
z
" style="fill:#f7fbff;"/>
   </g>
   <g id="patch_38">
    <path clip-path="url(#pe75a6a1eb5)" d="M 44.903438 52.493017 
L 67.223438 52.493017 
L 67.223438 47.503954 
L 44.903438 47.503954 
z
" style="fill:#08306b;"/>
   </g>
   <g id="patch_39">
    <path clip-path="url(#pe75a6a1eb5)" d="M 67.223438 52.493017 
L 89.543438 52.493017 
L 89.543438 47.503954 
L 67.223438 47.503954 
z
" style="fill:#6aaed6;"/>
   </g>
   <g id="patch_40">
    <path clip-path="url(#pe75a6a1eb5)" d="M 89.543438 52.493017 
L 111.863438 52.493017 
L 111.863438 47.503954 
L 89.543438 47.503954 
z
" style="fill:#f7fbff;"/>
   </g>
   <g id="patch_41">
    <path clip-path="url(#pe75a6a1eb5)" d="M 111.863438 52.493017 
L 134.183438 52.493017 
L 134.183438 47.503954 
L 111.863438 47.503954 
z
" style="fill:#f7fbff;"/>
   </g>
   <g id="patch_42">
    <path clip-path="url(#pe75a6a1eb5)" d="M 134.183438 52.493017 
L 156.503438 52.493017 
L 156.503438 47.503954 
L 134.183438 47.503954 
z
" style="fill:#f7fbff;"/>
   </g>
   <g id="patch_43">
    <path clip-path="url(#pe75a6a1eb5)" d="M 44.903438 47.503954 
L 67.223438 47.503954 
L 67.223438 42.792061 
L 44.903438 42.792061 
z
" style="fill:#f7fbff;"/>
   </g>
   <g id="patch_44">
    <path clip-path="url(#pe75a6a1eb5)" d="M 67.223438 47.503954 
L 89.543438 47.503954 
L 89.543438 42.792061 
L 67.223438 42.792061 
z
" style="fill:#6aaed6;"/>
   </g>
   <g id="patch_45">
    <path clip-path="url(#pe75a6a1eb5)" d="M 89.543438 47.503954 
L 111.863438 47.503954 
L 111.863438 42.792061 
L 89.543438 42.792061 
z
" style="fill:#f7fbff;"/>
   </g>
   <g id="patch_46">
    <path clip-path="url(#pe75a6a1eb5)" d="M 111.863438 47.503954 
L 134.183438 47.503954 
L 134.183438 42.792061 
L 111.863438 42.792061 
z
" style="fill:#6aaed6;"/>
   </g>
   <g id="patch_47">
    <path clip-path="url(#pe75a6a1eb5)" d="M 134.183438 47.503954 
L 156.503438 47.503954 
L 156.503438 42.792061 
L 134.183438 42.792061 
z
" style="fill:#f7fbff;"/>
   </g>
   <g id="patch_48">
    <path clip-path="url(#pe75a6a1eb5)" d="M 44.903438 42.792061 
L 67.223438 42.792061 
L 67.223438 38.773094 
L 44.903438 38.773094 
z
" style="fill:#f7fbff;"/>
   </g>
   <g id="patch_49">
    <path clip-path="url(#pe75a6a1eb5)" d="M 67.223438 42.792061 
L 89.543438 42.792061 
L 89.543438 38.773094 
L 67.223438 38.773094 
z
" style="fill:#f7fbff;"/>
   </g>
   <g id="patch_50">
    <path clip-path="url(#pe75a6a1eb5)" d="M 89.543438 42.792061 
L 111.863438 42.792061 
L 111.863438 38.773094 
L 89.543438 38.773094 
z
" style="fill:#6aaed6;"/>
   </g>
   <g id="patch_51">
    <path clip-path="url(#pe75a6a1eb5)" d="M 111.863438 42.792061 
L 134.183438 42.792061 
L 134.183438 38.773094 
L 111.863438 38.773094 
z
" style="fill:#f7fbff;"/>
   </g>
   <g id="patch_52">
    <path clip-path="url(#pe75a6a1eb5)" d="M 134.183438 42.792061 
L 156.503438 42.792061 
L 156.503438 38.773094 
L 134.183438 38.773094 
z
" style="fill:#6aaed6;"/>
   </g>
   <g id="patch_53">
    <path clip-path="url(#pe75a6a1eb5)" d="M 44.903438 38.773094 
L 67.223438 38.773094 
L 67.223438 34.823419 
L 44.903438 34.823419 
z
" style="fill:#6aaed6;"/>
   </g>
   <g id="patch_54">
    <path clip-path="url(#pe75a6a1eb5)" d="M 67.223438 38.773094 
L 89.543438 38.773094 
L 89.543438 34.823419 
L 67.223438 34.823419 
z
" style="fill:#6aaed6;"/>
   </g>
   <g id="patch_55">
    <path clip-path="url(#pe75a6a1eb5)" d="M 89.543438 38.773094 
L 111.863438 38.773094 
L 111.863438 34.823419 
L 89.543438 34.823419 
z
" style="fill:#f7fbff;"/>
   </g>
   <g id="patch_56">
    <path clip-path="url(#pe75a6a1eb5)" d="M 111.863438 38.773094 
L 134.183438 38.773094 
L 134.183438 34.823419 
L 111.863438 34.823419 
z
" style="fill:#6aaed6;"/>
   </g>
   <g id="patch_57">
    <path clip-path="url(#pe75a6a1eb5)" d="M 134.183438 38.773094 
L 156.503438 38.773094 
L 156.503438 34.823419 
L 134.183438 34.823419 
z
" style="fill:#f7fbff;"/>
   </g>
   <g id="patch_58">
    <path clip-path="url(#pe75a6a1eb5)" d="M 44.903438 34.823419 
L 67.223438 34.823419 
L 67.223438 31.497377 
L 44.903438 31.497377 
z
" style="fill:#6aaed6;"/>
   </g>
   <g id="patch_59">
    <path clip-path="url(#pe75a6a1eb5)" d="M 67.223438 34.823419 
L 89.543438 34.823419 
L 89.543438 31.497377 
L 67.223438 31.497377 
z
" style="fill:#6aaed6;"/>
   </g>
   <g id="patch_60">
    <path clip-path="url(#pe75a6a1eb5)" d="M 89.543438 34.823419 
L 111.863438 34.823419 
L 111.863438 31.497377 
L 89.543438 31.497377 
z
" style="fill:#f7fbff;"/>
   </g>
   <g id="patch_61">
    <path clip-path="url(#pe75a6a1eb5)" d="M 111.863438 34.823419 
L 134.183438 34.823419 
L 134.183438 31.497377 
L 111.863438 31.497377 
z
" style="fill:#6aaed6;"/>
   </g>
   <g id="patch_62">
    <path clip-path="url(#pe75a6a1eb5)" d="M 134.183438 34.823419 
L 156.503438 34.823419 
L 156.503438 31.497377 
L 134.183438 31.497377 
z
" style="fill:#6aaed6;"/>
   </g>
   <g id="patch_63">
    <path clip-path="url(#pe75a6a1eb5)" d="M 44.903438 31.497377 
L 67.223438 31.497377 
L 67.223438 28.517797 
L 44.903438 28.517797 
z
" style="fill:#f7fbff;"/>
   </g>
   <g id="patch_64">
    <path clip-path="url(#pe75a6a1eb5)" d="M 67.223438 31.497377 
L 89.543438 31.497377 
L 89.543438 28.517797 
L 67.223438 28.517797 
z
" style="fill:#6aaed6;"/>
   </g>
   <g id="patch_65">
    <path clip-path="url(#pe75a6a1eb5)" d="M 89.543438 31.497377 
L 111.863438 31.497377 
L 111.863438 28.517797 
L 89.543438 28.517797 
z
" style="fill:#f7fbff;"/>
   </g>
   <g id="patch_66">
    <path clip-path="url(#pe75a6a1eb5)" d="M 111.863438 31.497377 
L 134.183438 31.497377 
L 134.183438 28.517797 
L 111.863438 28.517797 
z
" style="fill:#6aaed6;"/>
   </g>
   <g id="patch_67">
    <path clip-path="url(#pe75a6a1eb5)" d="M 134.183438 31.497377 
L 156.503438 31.497377 
L 156.503438 28.517797 
L 134.183438 28.517797 
z
" style="fill:#6aaed6;"/>
   </g>
   <g id="patch_68">
    <path clip-path="url(#pe75a6a1eb5)" d="M 44.903438 28.517797 
L 67.223438 28.517797 
L 67.223438 25.953973 
L 44.903438 25.953973 
z
" style="fill:#6aaed6;"/>
   </g>
   <g id="patch_69">
    <path clip-path="url(#pe75a6a1eb5)" d="M 67.223438 28.517797 
L 89.543438 28.517797 
L 89.543438 25.953973 
L 67.223438 25.953973 
z
" style="fill:#08306b;"/>
   </g>
   <g id="patch_70">
    <path clip-path="url(#pe75a6a1eb5)" d="M 89.543438 28.517797 
L 111.863438 28.517797 
L 111.863438 25.953973 
L 89.543438 25.953973 
z
" style="fill:#08306b;"/>
   </g>
   <g id="patch_71">
    <path clip-path="url(#pe75a6a1eb5)" d="M 111.863438 28.517797 
L 134.183438 28.517797 
L 134.183438 25.953973 
L 111.863438 25.953973 
z
" style="fill:#08306b;"/>
   </g>
   <g id="patch_72">
    <path clip-path="url(#pe75a6a1eb5)" d="M 134.183438 28.517797 
L 156.503438 28.517797 
L 156.503438 25.953973 
L 134.183438 25.953973 
z
" style="fill:#08306b;"/>
   </g>
   <g id="patch_73">
    <path clip-path="url(#pe75a6a1eb5)" d="M 44.903438 25.953973 
L 67.223438 25.953973 
L 67.223438 23.390149 
L 44.903438 23.390149 
z
" style="fill:#6aaed6;"/>
   </g>
   <g id="patch_74">
    <path clip-path="url(#pe75a6a1eb5)" d="M 67.223438 25.953973 
L 89.543438 25.953973 
L 89.543438 23.390149 
L 67.223438 23.390149 
z
" style="fill:#f7fbff;"/>
   </g>
   <g id="patch_75">
    <path clip-path="url(#pe75a6a1eb5)" d="M 89.543438 25.953973 
L 111.863438 25.953973 
L 111.863438 23.390149 
L 89.543438 23.390149 
z
" style="fill:#f7fbff;"/>
   </g>
   <g id="patch_76">
    <path clip-path="url(#pe75a6a1eb5)" d="M 111.863438 25.953973 
L 134.183438 25.953973 
L 134.183438 23.390149 
L 111.863438 23.390149 
z
" style="fill:#6aaed6;"/>
   </g>
   <g id="patch_77">
    <path clip-path="url(#pe75a6a1eb5)" d="M 134.183438 25.953973 
L 156.503438 25.953973 
L 156.503438 23.390149 
L 134.183438 23.390149 
z
" style="fill:#f7fbff;"/>
   </g>
   <g id="patch_78">
    <path clip-path="url(#pe75a6a1eb5)" d="M 44.903438 23.390149 
L 67.223438 23.390149 
L 67.223438 20.96491 
L 44.903438 20.96491 
z
" style="fill:#f7fbff;"/>
   </g>
   <g id="patch_79">
    <path clip-path="url(#pe75a6a1eb5)" d="M 67.223438 23.390149 
L 89.543438 23.390149 
L 89.543438 20.96491 
L 67.223438 20.96491 
z
" style="fill:#f7fbff;"/>
   </g>
   <g id="patch_80">
    <path clip-path="url(#pe75a6a1eb5)" d="M 89.543438 23.390149 
L 111.863438 23.390149 
L 111.863438 20.96491 
L 89.543438 20.96491 
z
" style="fill:#f7fbff;"/>
   </g>
   <g id="patch_81">
    <path clip-path="url(#pe75a6a1eb5)" d="M 111.863438 23.390149 
L 134.183438 23.390149 
L 134.183438 20.96491 
L 111.863438 20.96491 
z
" style="fill:#6aaed6;"/>
   </g>
   <g id="patch_82">
    <path clip-path="url(#pe75a6a1eb5)" d="M 134.183438 23.390149 
L 156.503438 23.390149 
L 156.503438 20.96491 
L 134.183438 20.96491 
z
" style="fill:#6aaed6;"/>
   </g>
   <g id="patch_83">
    <path clip-path="url(#pe75a6a1eb5)" d="M 44.903438 20.96491 
L 67.223438 20.96491 
L 67.223438 18.678256 
L 44.903438 18.678256 
z
" style="fill:#08306b;"/>
   </g>
   <g id="patch_84">
    <path clip-path="url(#pe75a6a1eb5)" d="M 67.223438 20.96491 
L 89.543438 20.96491 
L 89.543438 18.678256 
L 67.223438 18.678256 
z
" style="fill:#6aaed6;"/>
   </g>
   <g id="patch_85">
    <path clip-path="url(#pe75a6a1eb5)" d="M 89.543438 20.96491 
L 111.863438 20.96491 
L 111.863438 18.678256 
L 89.543438 18.678256 
z
" style="fill:#f7fbff;"/>
   </g>
   <g id="patch_86">
    <path clip-path="url(#pe75a6a1eb5)" d="M 111.863438 20.96491 
L 134.183438 20.96491 
L 134.183438 18.678256 
L 111.863438 18.678256 
z
" style="fill:#6aaed6;"/>
   </g>
   <g id="patch_87">
    <path clip-path="url(#pe75a6a1eb5)" d="M 134.183438 20.96491 
L 156.503438 20.96491 
L 156.503438 18.678256 
L 134.183438 18.678256 
z
" style="fill:#f7fbff;"/>
   </g>
   <g id="patch_88">
    <path clip-path="url(#pe75a6a1eb5)" d="M 44.903438 18.678256 
L 67.223438 18.678256 
L 67.223438 16.530187 
L 44.903438 16.530187 
z
" style="fill:#6aaed6;"/>
   </g>
   <g id="patch_89">
    <path clip-path="url(#pe75a6a1eb5)" d="M 67.223438 18.678256 
L 89.543438 18.678256 
L 89.543438 16.530187 
L 67.223438 16.530187 
z
" style="fill:#f7fbff;"/>
   </g>
   <g id="patch_90">
    <path clip-path="url(#pe75a6a1eb5)" d="M 89.543438 18.678256 
L 111.863438 18.678256 
L 111.863438 16.530187 
L 89.543438 16.530187 
z
" style="fill:#6aaed6;"/>
   </g>
   <g id="patch_91">
    <path clip-path="url(#pe75a6a1eb5)" d="M 111.863438 18.678256 
L 134.183438 18.678256 
L 134.183438 16.530187 
L 111.863438 16.530187 
z
" style="fill:#f7fbff;"/>
   </g>
   <g id="patch_92">
    <path clip-path="url(#pe75a6a1eb5)" d="M 134.183438 18.678256 
L 156.503438 18.678256 
L 156.503438 16.530187 
L 134.183438 16.530187 
z
" style="fill:#f7fbff;"/>
   </g>
   <g id="patch_93">
    <path clip-path="url(#pe75a6a1eb5)" d="M 44.903438 16.530187 
L 67.223438 16.530187 
L 67.223438 14.382118 
L 44.903438 14.382118 
z
" style="fill:#08306b;"/>
   </g>
   <g id="patch_94">
    <path clip-path="url(#pe75a6a1eb5)" d="M 67.223438 16.530187 
L 89.543438 16.530187 
L 89.543438 14.382118 
L 67.223438 14.382118 
z
" style="fill:#08306b;"/>
   </g>
   <g id="patch_95">
    <path clip-path="url(#pe75a6a1eb5)" d="M 89.543438 16.530187 
L 111.863438 16.530187 
L 111.863438 14.382118 
L 89.543438 14.382118 
z
" style="fill:#6aaed6;"/>
   </g>
   <g id="patch_96">
    <path clip-path="url(#pe75a6a1eb5)" d="M 111.863438 16.530187 
L 134.183438 16.530187 
L 134.183438 14.382118 
L 111.863438 14.382118 
z
" style="fill:#08306b;"/>
   </g>
   <g id="patch_97">
    <path clip-path="url(#pe75a6a1eb5)" d="M 134.183438 16.530187 
L 156.503438 16.530187 
L 156.503438 14.382118 
L 134.183438 14.382118 
z
" style="fill:#08306b;"/>
   </g>
   <g id="patch_98">
    <path clip-path="url(#pe75a6a1eb5)" d="M 44.903438 14.382118 
L 67.223438 14.382118 
L 67.223438 12.580512 
L 44.903438 12.580512 
z
" style="fill:#6aaed6;"/>
   </g>
   <g id="patch_99">
    <path clip-path="url(#pe75a6a1eb5)" d="M 67.223438 14.382118 
L 89.543438 14.382118 
L 89.543438 12.580512 
L 67.223438 12.580512 
z
" style="fill:#f7fbff;"/>
   </g>
   <g id="patch_100">
    <path clip-path="url(#pe75a6a1eb5)" d="M 89.543438 14.382118 
L 111.863438 14.382118 
L 111.863438 12.580512 
L 89.543438 12.580512 
z
" style="fill:#f7fbff;"/>
   </g>
   <g id="patch_101">
    <path clip-path="url(#pe75a6a1eb5)" d="M 111.863438 14.382118 
L 134.183438 14.382118 
L 134.183438 12.580512 
L 111.863438 12.580512 
z
" style="fill:#f7fbff;"/>
   </g>
   <g id="patch_102">
    <path clip-path="url(#pe75a6a1eb5)" d="M 134.183438 14.382118 
L 156.503438 14.382118 
L 156.503438 12.580512 
L 134.183438 12.580512 
z
" style="fill:#6aaed6;"/>
   </g>
   <g id="patch_103">
    <path clip-path="url(#pe75a6a1eb5)" d="M 44.903438 12.580512 
L 67.223438 12.580512 
L 67.223438 10.778906 
L 44.903438 10.778906 
z
" style="fill:#6aaed6;"/>
   </g>
   <g id="patch_104">
    <path clip-path="url(#pe75a6a1eb5)" d="M 67.223438 12.580512 
L 89.543438 12.580512 
L 89.543438 10.778906 
L 67.223438 10.778906 
z
" style="fill:#6aaed6;"/>
   </g>
   <g id="patch_105">
    <path clip-path="url(#pe75a6a1eb5)" d="M 89.543438 12.580512 
L 111.863438 12.580512 
L 111.863438 10.778906 
L 89.543438 10.778906 
z
" style="fill:#6aaed6;"/>
   </g>
   <g id="patch_106">
    <path clip-path="url(#pe75a6a1eb5)" d="M 111.863438 12.580512 
L 134.183438 12.580512 
L 134.183438 10.778906 
L 111.863438 10.778906 
z
" style="fill:#6aaed6;"/>
   </g>
   <g id="patch_107">
    <path clip-path="url(#pe75a6a1eb5)" d="M 134.183438 12.580512 
L 156.503438 12.580512 
L 156.503438 10.778906 
L 134.183438 10.778906 
z
" style="fill:#6aaed6;"/>
   </g>
   <g id="matplotlib.axis_1">
    <g id="xtick_1">
     <g id="line2d_1">
      <defs>
       <path d="M 0 0 
L 0 3.5 
" id="mc4327e6a0b" style="stroke:#000000;stroke-width:0.8;"/>
      </defs>
      <g>
       <use style="stroke:#000000;stroke-width:0.8;" x="56.063438" xlink:href="#mc4327e6a0b" y="336.938906"/>
      </g>
     </g>
     <g id="text_1">
      <!-- AFR -->
      <g transform="translate(58.648594 363.938906)rotate(-90)scale(0.1 -0.1)">
       <defs>
        <path d="M -0.140625 0 
L 27.34375 71.578125 
L 37.546875 71.578125 
L 66.84375 0 
L 56.0625 0 
L 47.703125 21.6875 
L 17.78125 21.6875 
L 9.90625 0 
z
M 20.515625 29.390625 
L 44.78125 29.390625 
L 37.3125 49.21875 
Q 33.890625 58.25 32.234375 64.0625 
Q 30.859375 57.171875 28.375 50.390625 
z
" id="ArialMT-65"/>
        <path d="M 8.203125 0 
L 8.203125 71.578125 
L 56.5 71.578125 
L 56.5 63.140625 
L 17.671875 63.140625 
L 17.671875 40.96875 
L 51.265625 40.96875 
L 51.265625 32.515625 
L 17.671875 32.515625 
L 17.671875 0 
z
" id="ArialMT-70"/>
        <path d="M 7.859375 0 
L 7.859375 71.578125 
L 39.59375 71.578125 
Q 49.171875 71.578125 54.140625 69.640625 
Q 59.125 67.71875 62.109375 62.828125 
Q 65.09375 57.953125 65.09375 52.046875 
Q 65.09375 44.4375 60.15625 39.203125 
Q 55.21875 33.984375 44.921875 32.5625 
Q 48.6875 30.765625 50.640625 29 
Q 54.78125 25.203125 58.5 19.484375 
L 70.953125 0 
L 59.03125 0 
L 49.5625 14.890625 
Q 45.40625 21.34375 42.71875 24.75 
Q 40.046875 28.171875 37.921875 29.53125 
Q 35.796875 30.90625 33.59375 31.453125 
Q 31.984375 31.78125 28.328125 31.78125 
L 17.328125 31.78125 
L 17.328125 0 
z
M 17.328125 39.984375 
L 37.703125 39.984375 
Q 44.1875 39.984375 47.84375 41.328125 
Q 51.515625 42.671875 53.421875 45.625 
Q 55.328125 48.578125 55.328125 52.046875 
Q 55.328125 57.125 51.640625 60.390625 
Q 47.953125 63.671875 39.984375 63.671875 
L 17.328125 63.671875 
z
" id="ArialMT-82"/>
       </defs>
       <use xlink:href="#ArialMT-65"/>
       <use x="66.699219" xlink:href="#ArialMT-70"/>
       <use x="127.783203" xlink:href="#ArialMT-82"/>
      </g>
     </g>
    </g>
    <g id="xtick_2">
     <g id="line2d_2">
      <g>
       <use style="stroke:#000000;stroke-width:0.8;" x="78.383438" xlink:href="#mc4327e6a0b" y="336.938906"/>
      </g>
     </g>
     <g id="text_2">
      <!-- AMR -->
      <g transform="translate(80.968594 366.160781)rotate(-90)scale(0.1 -0.1)">
       <defs>
        <path d="M 7.421875 0 
L 7.421875 71.578125 
L 21.6875 71.578125 
L 38.625 20.90625 
Q 40.96875 13.8125 42.046875 10.296875 
Q 43.265625 14.203125 45.84375 21.78125 
L 62.984375 71.578125 
L 75.734375 71.578125 
L 75.734375 0 
L 66.609375 0 
L 66.609375 59.90625 
L 45.796875 0 
L 37.25 0 
L 16.546875 60.9375 
L 16.546875 0 
z
" id="ArialMT-77"/>
       </defs>
       <use xlink:href="#ArialMT-65"/>
       <use x="66.699219" xlink:href="#ArialMT-77"/>
       <use x="150" xlink:href="#ArialMT-82"/>
      </g>
     </g>
    </g>
    <g id="xtick_3">
     <g id="line2d_3">
      <g>
       <use style="stroke:#000000;stroke-width:0.8;" x="100.703438" xlink:href="#mc4327e6a0b" y="336.938906"/>
      </g>
     </g>
     <g id="text_3">
      <!-- EAS -->
      <g transform="translate(103.288594 363.949844)rotate(-90)scale(0.1 -0.1)">
       <defs>
        <path d="M 7.90625 0 
L 7.90625 71.578125 
L 59.671875 71.578125 
L 59.671875 63.140625 
L 17.390625 63.140625 
L 17.390625 41.21875 
L 56.984375 41.21875 
L 56.984375 32.8125 
L 17.390625 32.8125 
L 17.390625 8.453125 
L 61.328125 8.453125 
L 61.328125 0 
z
" id="ArialMT-69"/>
        <path d="M 4.5 23 
L 13.421875 23.78125 
Q 14.0625 18.40625 16.375 14.96875 
Q 18.703125 11.53125 23.578125 9.40625 
Q 28.46875 7.28125 34.578125 7.28125 
Q 39.984375 7.28125 44.140625 8.890625 
Q 48.296875 10.5 50.3125 13.296875 
Q 52.34375 16.109375 52.34375 19.4375 
Q 52.34375 22.796875 50.390625 25.3125 
Q 48.4375 27.828125 43.953125 29.546875 
Q 41.0625 30.671875 31.203125 33.03125 
Q 21.34375 35.40625 17.390625 37.5 
Q 12.25 40.1875 9.734375 44.15625 
Q 7.234375 48.140625 7.234375 53.078125 
Q 7.234375 58.5 10.296875 63.203125 
Q 13.375 67.921875 19.28125 70.359375 
Q 25.203125 72.796875 32.421875 72.796875 
Q 40.375 72.796875 46.453125 70.234375 
Q 52.546875 67.671875 55.8125 62.6875 
Q 59.078125 57.71875 59.328125 51.421875 
L 50.25 50.734375 
Q 49.515625 57.515625 45.28125 60.984375 
Q 41.0625 64.453125 32.8125 64.453125 
Q 24.21875 64.453125 20.28125 61.296875 
Q 16.359375 58.15625 16.359375 53.71875 
Q 16.359375 49.859375 19.140625 47.359375 
Q 21.875 44.875 33.421875 42.265625 
Q 44.96875 39.65625 49.265625 37.703125 
Q 55.515625 34.8125 58.484375 30.390625 
Q 61.46875 25.984375 61.46875 20.21875 
Q 61.46875 14.5 58.203125 9.4375 
Q 54.9375 4.390625 48.796875 1.578125 
Q 42.671875 -1.21875 35.015625 -1.21875 
Q 25.296875 -1.21875 18.71875 1.609375 
Q 12.15625 4.4375 8.421875 10.125 
Q 4.6875 15.828125 4.5 23 
z
" id="ArialMT-83"/>
       </defs>
       <use xlink:href="#ArialMT-69"/>
       <use x="66.699219" xlink:href="#ArialMT-65"/>
       <use x="133.398438" xlink:href="#ArialMT-83"/>
      </g>
     </g>
    </g>
    <g id="xtick_4">
     <g id="line2d_4">
      <g>
       <use style="stroke:#000000;stroke-width:0.8;" x="123.023438" xlink:href="#mc4327e6a0b" y="336.938906"/>
      </g>
     </g>
     <g id="text_4">
      <!-- EUR -->
      <g transform="translate(125.608594 365.052969)rotate(-90)scale(0.1 -0.1)">
       <defs>
        <path d="M 54.6875 71.578125 
L 64.15625 71.578125 
L 64.15625 30.21875 
Q 64.15625 19.4375 61.71875 13.078125 
Q 59.28125 6.734375 52.90625 2.75 
Q 46.53125 -1.21875 36.1875 -1.21875 
Q 26.125 -1.21875 19.71875 2.25 
Q 13.328125 5.71875 10.59375 12.28125 
Q 7.859375 18.84375 7.859375 30.21875 
L 7.859375 71.578125 
L 17.328125 71.578125 
L 17.328125 30.28125 
Q 17.328125 20.953125 19.0625 16.53125 
Q 20.796875 12.109375 25.015625 9.71875 
Q 29.25 7.328125 35.359375 7.328125 
Q 45.796875 7.328125 50.234375 12.0625 
Q 54.6875 16.796875 54.6875 30.28125 
z
" id="ArialMT-85"/>
       </defs>
       <use xlink:href="#ArialMT-69"/>
       <use x="66.699219" xlink:href="#ArialMT-85"/>
       <use x="138.916016" xlink:href="#ArialMT-82"/>
      </g>
     </g>
    </g>
    <g id="xtick_5">
     <g id="line2d_5">
      <g>
       <use style="stroke:#000000;stroke-width:0.8;" x="145.343438" xlink:href="#mc4327e6a0b" y="336.938906"/>
      </g>
     </g>
     <g id="text_5">
      <!-- SAS -->
      <g transform="translate(147.928594 363.949844)rotate(-90)scale(0.1 -0.1)">
       <use xlink:href="#ArialMT-83"/>
       <use x="66.699219" xlink:href="#ArialMT-65"/>
       <use x="133.398438" xlink:href="#ArialMT-83"/>
      </g>
     </g>
    </g>
   </g>
   <g id="matplotlib.axis_2">
    <g id="ytick_1">
     <g id="line2d_6">
      <defs>
       <path d="M 0 0 
L -3.5 0 
" id="m1a3d5b7387" style="stroke:#000000;stroke-width:0.8;"/>
      </defs>
      <g>
       <use style="stroke:#000000;stroke-width:0.8;" x="44.903438" xlink:href="#m1a3d5b7387" y="336.938906"/>
      </g>
     </g>
     <g id="text_6">
      <!-- 0.0 -->
      <g transform="translate(24.003438 340.517812)scale(0.1 -0.1)">
       <defs>
        <path d="M 4.15625 35.296875 
Q 4.15625 48 6.765625 55.734375 
Q 9.375 63.484375 14.515625 67.671875 
Q 19.671875 71.875 27.484375 71.875 
Q 33.25 71.875 37.59375 69.546875 
Q 41.9375 67.234375 44.765625 62.859375 
Q 47.609375 58.5 49.21875 52.21875 
Q 50.828125 45.953125 50.828125 35.296875 
Q 50.828125 22.703125 48.234375 14.96875 
Q 45.65625 7.234375 40.5 3 
Q 35.359375 -1.21875 27.484375 -1.21875 
Q 17.140625 -1.21875 11.234375 6.203125 
Q 4.15625 15.140625 4.15625 35.296875 
z
M 13.1875 35.296875 
Q 13.1875 17.671875 17.3125 11.828125 
Q 21.4375 6 27.484375 6 
Q 33.546875 6 37.671875 11.859375 
Q 41.796875 17.71875 41.796875 35.296875 
Q 41.796875 52.984375 37.671875 58.78125 
Q 33.546875 64.59375 27.390625 64.59375 
Q 21.34375 64.59375 17.71875 59.46875 
Q 13.1875 52.9375 13.1875 35.296875 
z
" id="ArialMT-48"/>
        <path d="M 9.078125 0 
L 9.078125 10.015625 
L 19.09375 10.015625 
L 19.09375 0 
z
" id="ArialMT-46"/>
       </defs>
       <use xlink:href="#ArialMT-48"/>
       <use x="55.615234" xlink:href="#ArialMT-46"/>
       <use x="83.398438" xlink:href="#ArialMT-48"/>
      </g>
     </g>
    </g>
    <g id="ytick_2">
     <g id="line2d_7">
      <g>
       <use style="stroke:#000000;stroke-width:0.8;" x="44.903438" xlink:href="#m1a3d5b7387" y="271.706906"/>
      </g>
     </g>
     <g id="text_7">
      <!-- 0.2 -->
      <g transform="translate(24.003438 275.285812)scale(0.1 -0.1)">
       <defs>
        <path d="M 50.34375 8.453125 
L 50.34375 0 
L 3.03125 0 
Q 2.9375 3.171875 4.046875 6.109375 
Q 5.859375 10.9375 9.828125 15.625 
Q 13.8125 20.3125 21.34375 26.46875 
Q 33.015625 36.03125 37.109375 41.625 
Q 41.21875 47.21875 41.21875 52.203125 
Q 41.21875 57.421875 37.46875 61 
Q 33.734375 64.59375 27.734375 64.59375 
Q 21.390625 64.59375 17.578125 60.78125 
Q 13.765625 56.984375 13.71875 50.25 
L 4.6875 51.171875 
Q 5.609375 61.28125 11.65625 66.578125 
Q 17.71875 71.875 27.9375 71.875 
Q 38.234375 71.875 44.234375 66.15625 
Q 50.25 60.453125 50.25 52 
Q 50.25 47.703125 48.484375 43.546875 
Q 46.734375 39.40625 42.65625 34.8125 
Q 38.578125 30.21875 29.109375 22.21875 
Q 21.1875 15.578125 18.9375 13.203125 
Q 16.703125 10.84375 15.234375 8.453125 
z
" id="ArialMT-50"/>
       </defs>
       <use xlink:href="#ArialMT-48"/>
       <use x="55.615234" xlink:href="#ArialMT-46"/>
       <use x="83.398438" xlink:href="#ArialMT-50"/>
      </g>
     </g>
    </g>
    <g id="ytick_3">
     <g id="line2d_8">
      <g>
       <use style="stroke:#000000;stroke-width:0.8;" x="44.903438" xlink:href="#m1a3d5b7387" y="206.474906"/>
      </g>
     </g>
     <g id="text_8">
      <!-- 0.4 -->
      <g transform="translate(24.003438 210.053812)scale(0.1 -0.1)">
       <defs>
        <path d="M 32.328125 0 
L 32.328125 17.140625 
L 1.265625 17.140625 
L 1.265625 25.203125 
L 33.9375 71.578125 
L 41.109375 71.578125 
L 41.109375 25.203125 
L 50.78125 25.203125 
L 50.78125 17.140625 
L 41.109375 17.140625 
L 41.109375 0 
z
M 32.328125 25.203125 
L 32.328125 57.46875 
L 9.90625 25.203125 
z
" id="ArialMT-52"/>
       </defs>
       <use xlink:href="#ArialMT-48"/>
       <use x="55.615234" xlink:href="#ArialMT-46"/>
       <use x="83.398438" xlink:href="#ArialMT-52"/>
      </g>
     </g>
    </g>
    <g id="ytick_4">
     <g id="line2d_9">
      <g>
       <use style="stroke:#000000;stroke-width:0.8;" x="44.903438" xlink:href="#m1a3d5b7387" y="141.242906"/>
      </g>
     </g>
     <g id="text_9">
      <!-- 0.6 -->
      <g transform="translate(24.003438 144.821812)scale(0.1 -0.1)">
       <defs>
        <path d="M 49.75 54.046875 
L 41.015625 53.375 
Q 39.84375 58.546875 37.703125 60.890625 
Q 34.125 64.65625 28.90625 64.65625 
Q 24.703125 64.65625 21.53125 62.3125 
Q 17.390625 59.28125 14.984375 53.46875 
Q 12.59375 47.65625 12.5 36.921875 
Q 15.671875 41.75 20.265625 44.09375 
Q 24.859375 46.4375 29.890625 46.4375 
Q 38.671875 46.4375 44.84375 39.96875 
Q 51.03125 33.5 51.03125 23.25 
Q 51.03125 16.5 48.125 10.71875 
Q 45.21875 4.9375 40.140625 1.859375 
Q 35.0625 -1.21875 28.609375 -1.21875 
Q 17.625 -1.21875 10.6875 6.859375 
Q 3.765625 14.9375 3.765625 33.5 
Q 3.765625 54.25 11.421875 63.671875 
Q 18.109375 71.875 29.4375 71.875 
Q 37.890625 71.875 43.28125 67.140625 
Q 48.6875 62.40625 49.75 54.046875 
z
M 13.875 23.1875 
Q 13.875 18.65625 15.796875 14.5 
Q 17.71875 10.359375 21.1875 8.171875 
Q 24.65625 6 28.46875 6 
Q 34.03125 6 38.03125 10.484375 
Q 42.046875 14.984375 42.046875 22.703125 
Q 42.046875 30.125 38.078125 34.390625 
Q 34.125 38.671875 28.125 38.671875 
Q 22.171875 38.671875 18.015625 34.390625 
Q 13.875 30.125 13.875 23.1875 
z
" id="ArialMT-54"/>
       </defs>
       <use xlink:href="#ArialMT-48"/>
       <use x="55.615234" xlink:href="#ArialMT-46"/>
       <use x="83.398438" xlink:href="#ArialMT-54"/>
      </g>
     </g>
    </g>
    <g id="ytick_5">
     <g id="line2d_10">
      <g>
       <use style="stroke:#000000;stroke-width:0.8;" x="44.903438" xlink:href="#m1a3d5b7387" y="76.010906"/>
      </g>
     </g>
     <g id="text_10">
      <!-- 0.8 -->
      <g transform="translate(24.003438 79.589812)scale(0.1 -0.1)">
       <defs>
        <path d="M 17.671875 38.8125 
Q 12.203125 40.828125 9.5625 44.53125 
Q 6.9375 48.25 6.9375 53.421875 
Q 6.9375 61.234375 12.546875 66.546875 
Q 18.171875 71.875 27.484375 71.875 
Q 36.859375 71.875 42.578125 66.421875 
Q 48.296875 60.984375 48.296875 53.171875 
Q 48.296875 48.1875 45.671875 44.5 
Q 43.0625 40.828125 37.75 38.8125 
Q 44.34375 36.671875 47.78125 31.875 
Q 51.21875 27.09375 51.21875 20.453125 
Q 51.21875 11.28125 44.71875 5.03125 
Q 38.234375 -1.21875 27.640625 -1.21875 
Q 17.046875 -1.21875 10.546875 5.046875 
Q 4.046875 11.328125 4.046875 20.703125 
Q 4.046875 27.6875 7.59375 32.390625 
Q 11.140625 37.109375 17.671875 38.8125 
z
M 15.921875 53.71875 
Q 15.921875 48.640625 19.1875 45.40625 
Q 22.46875 42.1875 27.6875 42.1875 
Q 32.765625 42.1875 36.015625 45.375 
Q 39.265625 48.578125 39.265625 53.21875 
Q 39.265625 58.0625 35.90625 61.359375 
Q 32.5625 64.65625 27.59375 64.65625 
Q 22.5625 64.65625 19.234375 61.421875 
Q 15.921875 58.203125 15.921875 53.71875 
z
M 13.09375 20.65625 
Q 13.09375 16.890625 14.875 13.375 
Q 16.65625 9.859375 20.171875 7.921875 
Q 23.6875 6 27.734375 6 
Q 34.03125 6 38.125 10.046875 
Q 42.234375 14.109375 42.234375 20.359375 
Q 42.234375 26.703125 38.015625 30.859375 
Q 33.796875 35.015625 27.4375 35.015625 
Q 21.234375 35.015625 17.15625 30.90625 
Q 13.09375 26.8125 13.09375 20.65625 
z
" id="ArialMT-56"/>
       </defs>
       <use xlink:href="#ArialMT-48"/>
       <use x="55.615234" xlink:href="#ArialMT-46"/>
       <use x="83.398438" xlink:href="#ArialMT-56"/>
      </g>
     </g>
    </g>
    <g id="ytick_6">
     <g id="line2d_11">
      <g>
       <use style="stroke:#000000;stroke-width:0.8;" x="44.903438" xlink:href="#m1a3d5b7387" y="10.778906"/>
      </g>
     </g>
     <g id="text_11">
      <!-- 1.0 -->
      <g transform="translate(24.003438 14.357812)scale(0.1 -0.1)">
       <defs>
        <path d="M 37.25 0 
L 28.46875 0 
L 28.46875 56 
Q 25.296875 52.984375 20.140625 49.953125 
Q 14.984375 46.921875 10.890625 45.40625 
L 10.890625 53.90625 
Q 18.265625 57.375 23.78125 62.296875 
Q 29.296875 67.234375 31.59375 71.875 
L 37.25 71.875 
z
" id="ArialMT-49"/>
       </defs>
       <use xlink:href="#ArialMT-49"/>
       <use x="55.615234" xlink:href="#ArialMT-46"/>
       <use x="83.398438" xlink:href="#ArialMT-48"/>
      </g>
     </g>
    </g>
    <g id="text_12">
     <!-- Cumulative fraction of variants -->
     <g transform="translate(17.220938 268.004531)rotate(-90)scale(0.14 -0.14)">
      <defs>
       <path d="M 58.796875 25.09375 
L 68.265625 22.703125 
Q 65.28125 11.03125 57.546875 4.90625 
Q 49.8125 -1.21875 38.625 -1.21875 
Q 27.046875 -1.21875 19.796875 3.484375 
Q 12.546875 8.203125 8.765625 17.140625 
Q 4.984375 26.078125 4.984375 36.328125 
Q 4.984375 47.515625 9.25 55.828125 
Q 13.53125 64.15625 21.40625 68.46875 
Q 29.296875 72.796875 38.765625 72.796875 
Q 49.515625 72.796875 56.828125 67.328125 
Q 64.15625 61.859375 67.046875 51.953125 
L 57.71875 49.75 
Q 55.21875 57.5625 50.484375 61.125 
Q 45.75 64.703125 38.578125 64.703125 
Q 30.328125 64.703125 24.78125 60.734375 
Q 19.234375 56.78125 16.984375 50.109375 
Q 14.75 43.453125 14.75 36.375 
Q 14.75 27.25 17.40625 20.4375 
Q 20.0625 13.625 25.671875 10.25 
Q 31.296875 6.890625 37.84375 6.890625 
Q 45.796875 6.890625 51.3125 11.46875 
Q 56.84375 16.0625 58.796875 25.09375 
z
" id="ArialMT-67"/>
       <path d="M 40.578125 0 
L 40.578125 7.625 
Q 34.515625 -1.171875 24.125 -1.171875 
Q 19.53125 -1.171875 15.546875 0.578125 
Q 11.578125 2.34375 9.640625 5 
Q 7.71875 7.671875 6.9375 11.53125 
Q 6.390625 14.109375 6.390625 19.734375 
L 6.390625 51.859375 
L 15.1875 51.859375 
L 15.1875 23.09375 
Q 15.1875 16.21875 15.71875 13.8125 
Q 16.546875 10.359375 19.234375 8.375 
Q 21.921875 6.390625 25.875 6.390625 
Q 29.828125 6.390625 33.296875 8.421875 
Q 36.765625 10.453125 38.203125 13.9375 
Q 39.65625 17.4375 39.65625 24.078125 
L 39.65625 51.859375 
L 48.4375 51.859375 
L 48.4375 0 
z
" id="ArialMT-117"/>
       <path d="M 6.59375 0 
L 6.59375 51.859375 
L 14.453125 51.859375 
L 14.453125 44.578125 
Q 16.890625 48.390625 20.9375 50.703125 
Q 25 53.03125 30.171875 53.03125 
Q 35.9375 53.03125 39.625 50.640625 
Q 43.3125 48.25 44.828125 43.953125 
Q 50.984375 53.03125 60.84375 53.03125 
Q 68.5625 53.03125 72.703125 48.75 
Q 76.859375 44.484375 76.859375 35.59375 
L 76.859375 0 
L 68.109375 0 
L 68.109375 32.671875 
Q 68.109375 37.9375 67.25 40.25 
Q 66.40625 42.578125 64.15625 43.984375 
Q 61.921875 45.40625 58.890625 45.40625 
Q 53.421875 45.40625 49.796875 41.765625 
Q 46.1875 38.140625 46.1875 30.125 
L 46.1875 0 
L 37.40625 0 
L 37.40625 33.6875 
Q 37.40625 39.546875 35.25 42.46875 
Q 33.109375 45.40625 28.21875 45.40625 
Q 24.515625 45.40625 21.359375 43.453125 
Q 18.21875 41.5 16.796875 37.734375 
Q 15.375 33.984375 15.375 26.90625 
L 15.375 0 
z
" id="ArialMT-109"/>
       <path d="M 6.390625 0 
L 6.390625 71.578125 
L 15.1875 71.578125 
L 15.1875 0 
z
" id="ArialMT-108"/>
       <path d="M 40.4375 6.390625 
Q 35.546875 2.25 31.03125 0.53125 
Q 26.515625 -1.171875 21.34375 -1.171875 
Q 12.796875 -1.171875 8.203125 3 
Q 3.609375 7.171875 3.609375 13.671875 
Q 3.609375 17.484375 5.34375 20.625 
Q 7.078125 23.78125 9.890625 25.6875 
Q 12.703125 27.59375 16.21875 28.5625 
Q 18.796875 29.25 24.03125 29.890625 
Q 34.671875 31.15625 39.703125 32.90625 
Q 39.75 34.71875 39.75 35.203125 
Q 39.75 40.578125 37.25 42.78125 
Q 33.890625 45.75 27.25 45.75 
Q 21.046875 45.75 18.09375 43.578125 
Q 15.140625 41.40625 13.71875 35.890625 
L 5.125 37.0625 
Q 6.296875 42.578125 8.984375 45.96875 
Q 11.671875 49.359375 16.75 51.1875 
Q 21.828125 53.03125 28.515625 53.03125 
Q 35.15625 53.03125 39.296875 51.46875 
Q 43.453125 49.90625 45.40625 47.53125 
Q 47.359375 45.171875 48.140625 41.546875 
Q 48.578125 39.3125 48.578125 33.453125 
L 48.578125 21.734375 
Q 48.578125 9.46875 49.140625 6.21875 
Q 49.703125 2.984375 51.375 0 
L 42.1875 0 
Q 40.828125 2.734375 40.4375 6.390625 
z
M 39.703125 26.03125 
Q 34.90625 24.078125 25.34375 22.703125 
Q 19.921875 21.921875 17.671875 20.9375 
Q 15.4375 19.96875 14.203125 18.09375 
Q 12.984375 16.21875 12.984375 13.921875 
Q 12.984375 10.40625 15.640625 8.0625 
Q 18.3125 5.71875 23.4375 5.71875 
Q 28.515625 5.71875 32.46875 7.9375 
Q 36.421875 10.15625 38.28125 14.015625 
Q 39.703125 17 39.703125 22.796875 
z
" id="ArialMT-97"/>
       <path d="M 25.78125 7.859375 
L 27.046875 0.09375 
Q 23.34375 -0.6875 20.40625 -0.6875 
Q 15.625 -0.6875 12.984375 0.828125 
Q 10.359375 2.34375 9.28125 4.8125 
Q 8.203125 7.28125 8.203125 15.1875 
L 8.203125 45.015625 
L 1.765625 45.015625 
L 1.765625 51.859375 
L 8.203125 51.859375 
L 8.203125 64.703125 
L 16.9375 69.96875 
L 16.9375 51.859375 
L 25.78125 51.859375 
L 25.78125 45.015625 
L 16.9375 45.015625 
L 16.9375 14.703125 
Q 16.9375 10.9375 17.40625 9.859375 
Q 17.875 8.796875 18.921875 8.15625 
Q 19.96875 7.515625 21.921875 7.515625 
Q 23.390625 7.515625 25.78125 7.859375 
z
" id="ArialMT-116"/>
       <path d="M 6.640625 61.46875 
L 6.640625 71.578125 
L 15.4375 71.578125 
L 15.4375 61.46875 
z
M 6.640625 0 
L 6.640625 51.859375 
L 15.4375 51.859375 
L 15.4375 0 
z
" id="ArialMT-105"/>
       <path d="M 21 0 
L 1.265625 51.859375 
L 10.546875 51.859375 
L 21.6875 20.796875 
Q 23.484375 15.765625 25 10.359375 
Q 26.171875 14.453125 28.265625 20.21875 
L 39.796875 51.859375 
L 48.828125 51.859375 
L 29.203125 0 
z
" id="ArialMT-118"/>
       <path d="M 42.09375 16.703125 
L 51.171875 15.578125 
Q 49.03125 7.625 43.21875 3.21875 
Q 37.40625 -1.171875 28.375 -1.171875 
Q 17 -1.171875 10.328125 5.828125 
Q 3.65625 12.84375 3.65625 25.484375 
Q 3.65625 38.578125 10.390625 45.796875 
Q 17.140625 53.03125 27.875 53.03125 
Q 38.28125 53.03125 44.875 45.953125 
Q 51.46875 38.875 51.46875 26.03125 
Q 51.46875 25.25 51.421875 23.6875 
L 12.75 23.6875 
Q 13.234375 15.140625 17.578125 10.59375 
Q 21.921875 6.0625 28.421875 6.0625 
Q 33.25 6.0625 36.671875 8.59375 
Q 40.09375 11.140625 42.09375 16.703125 
z
M 13.234375 30.90625 
L 42.1875 30.90625 
Q 41.609375 37.453125 38.875 40.71875 
Q 34.671875 45.796875 27.984375 45.796875 
Q 21.921875 45.796875 17.796875 41.75 
Q 13.671875 37.703125 13.234375 30.90625 
z
" id="ArialMT-101"/>
       <path id="ArialMT-32"/>
       <path d="M 8.6875 0 
L 8.6875 45.015625 
L 0.921875 45.015625 
L 0.921875 51.859375 
L 8.6875 51.859375 
L 8.6875 57.375 
Q 8.6875 62.59375 9.625 65.140625 
Q 10.890625 68.5625 14.078125 70.671875 
Q 17.28125 72.796875 23.046875 72.796875 
Q 26.765625 72.796875 31.25 71.921875 
L 29.9375 64.265625 
Q 27.203125 64.75 24.75 64.75 
Q 20.75 64.75 19.09375 63.03125 
Q 17.4375 61.328125 17.4375 56.640625 
L 17.4375 51.859375 
L 27.546875 51.859375 
L 27.546875 45.015625 
L 17.4375 45.015625 
L 17.4375 0 
z
" id="ArialMT-102"/>
       <path d="M 6.5 0 
L 6.5 51.859375 
L 14.40625 51.859375 
L 14.40625 44 
Q 17.4375 49.515625 20 51.265625 
Q 22.5625 53.03125 25.640625 53.03125 
Q 30.078125 53.03125 34.671875 50.203125 
L 31.640625 42.046875 
Q 28.421875 43.953125 25.203125 43.953125 
Q 22.3125 43.953125 20.015625 42.21875 
Q 17.71875 40.484375 16.75 37.40625 
Q 15.28125 32.71875 15.28125 27.15625 
L 15.28125 0 
z
" id="ArialMT-114"/>
       <path d="M 40.4375 19 
L 49.078125 17.875 
Q 47.65625 8.9375 41.8125 3.875 
Q 35.984375 -1.171875 27.484375 -1.171875 
Q 16.84375 -1.171875 10.375 5.78125 
Q 3.90625 12.75 3.90625 25.734375 
Q 3.90625 34.125 6.6875 40.421875 
Q 9.46875 46.734375 15.15625 49.875 
Q 20.84375 53.03125 27.546875 53.03125 
Q 35.984375 53.03125 41.359375 48.75 
Q 46.734375 44.484375 48.25 36.625 
L 39.703125 35.296875 
Q 38.484375 40.53125 35.375 43.15625 
Q 32.28125 45.796875 27.875 45.796875 
Q 21.234375 45.796875 17.078125 41.03125 
Q 12.9375 36.28125 12.9375 25.984375 
Q 12.9375 15.53125 16.9375 10.796875 
Q 20.953125 6.0625 27.390625 6.0625 
Q 32.5625 6.0625 36.03125 9.234375 
Q 39.5 12.40625 40.4375 19 
z
" id="ArialMT-99"/>
       <path d="M 3.328125 25.921875 
Q 3.328125 40.328125 11.328125 47.265625 
Q 18.015625 53.03125 27.640625 53.03125 
Q 38.328125 53.03125 45.109375 46.015625 
Q 51.90625 39.015625 51.90625 26.65625 
Q 51.90625 16.65625 48.90625 10.90625 
Q 45.90625 5.171875 40.15625 2 
Q 34.421875 -1.171875 27.640625 -1.171875 
Q 16.75 -1.171875 10.03125 5.8125 
Q 3.328125 12.796875 3.328125 25.921875 
z
M 12.359375 25.921875 
Q 12.359375 15.96875 16.703125 11.015625 
Q 21.046875 6.0625 27.640625 6.0625 
Q 34.1875 6.0625 38.53125 11.03125 
Q 42.875 16.015625 42.875 26.21875 
Q 42.875 35.84375 38.5 40.796875 
Q 34.125 45.75 27.640625 45.75 
Q 21.046875 45.75 16.703125 40.8125 
Q 12.359375 35.890625 12.359375 25.921875 
z
" id="ArialMT-111"/>
       <path d="M 6.59375 0 
L 6.59375 51.859375 
L 14.5 51.859375 
L 14.5 44.484375 
Q 20.21875 53.03125 31 53.03125 
Q 35.6875 53.03125 39.625 51.34375 
Q 43.5625 49.65625 45.515625 46.921875 
Q 47.46875 44.1875 48.25 40.4375 
Q 48.734375 37.984375 48.734375 31.890625 
L 48.734375 0 
L 39.9375 0 
L 39.9375 31.546875 
Q 39.9375 36.921875 38.90625 39.578125 
Q 37.890625 42.234375 35.28125 43.8125 
Q 32.671875 45.40625 29.15625 45.40625 
Q 23.53125 45.40625 19.453125 41.84375 
Q 15.375 38.28125 15.375 28.328125 
L 15.375 0 
z
" id="ArialMT-110"/>
       <path d="M 3.078125 15.484375 
L 11.765625 16.84375 
Q 12.5 11.625 15.84375 8.84375 
Q 19.1875 6.0625 25.203125 6.0625 
Q 31.25 6.0625 34.171875 8.515625 
Q 37.109375 10.984375 37.109375 14.3125 
Q 37.109375 17.28125 34.515625 19 
Q 32.71875 20.171875 25.53125 21.96875 
Q 15.875 24.421875 12.140625 26.203125 
Q 8.40625 27.984375 6.46875 31.125 
Q 4.546875 34.28125 4.546875 38.09375 
Q 4.546875 41.546875 6.125 44.5 
Q 7.71875 47.46875 10.453125 49.421875 
Q 12.5 50.921875 16.03125 51.96875 
Q 19.578125 53.03125 23.640625 53.03125 
Q 29.734375 53.03125 34.34375 51.265625 
Q 38.96875 49.515625 41.15625 46.5 
Q 43.359375 43.5 44.1875 38.484375 
L 35.59375 37.3125 
Q 35.015625 41.3125 32.203125 43.546875 
Q 29.390625 45.796875 24.265625 45.796875 
Q 18.21875 45.796875 15.625 43.796875 
Q 13.03125 41.796875 13.03125 39.109375 
Q 13.03125 37.40625 14.109375 36.03125 
Q 15.1875 34.625 17.484375 33.6875 
Q 18.796875 33.203125 25.25 31.453125 
Q 34.578125 28.953125 38.25 27.359375 
Q 41.9375 25.78125 44.03125 22.75 
Q 46.140625 19.734375 46.140625 15.234375 
Q 46.140625 10.84375 43.578125 6.953125 
Q 41.015625 3.078125 36.171875 0.953125 
Q 31.34375 -1.171875 25.25 -1.171875 
Q 15.140625 -1.171875 9.84375 3.03125 
Q 4.546875 7.234375 3.078125 15.484375 
z
" id="ArialMT-115"/>
      </defs>
      <use xlink:href="#ArialMT-67"/>
      <use x="72.216797" xlink:href="#ArialMT-117"/>
      <use x="127.832031" xlink:href="#ArialMT-109"/>
      <use x="211.132812" xlink:href="#ArialMT-117"/>
      <use x="266.748047" xlink:href="#ArialMT-108"/>
      <use x="288.964844" xlink:href="#ArialMT-97"/>
      <use x="344.580078" xlink:href="#ArialMT-116"/>
      <use x="372.363281" xlink:href="#ArialMT-105"/>
      <use x="394.580078" xlink:href="#ArialMT-118"/>
      <use x="444.580078" xlink:href="#ArialMT-101"/>
      <use x="500.195312" xlink:href="#ArialMT-32"/>
      <use x="527.978516" xlink:href="#ArialMT-102"/>
      <use x="555.761719" xlink:href="#ArialMT-114"/>
      <use x="589.0625" xlink:href="#ArialMT-97"/>
      <use x="644.677734" xlink:href="#ArialMT-99"/>
      <use x="694.677734" xlink:href="#ArialMT-116"/>
      <use x="722.460938" xlink:href="#ArialMT-105"/>
      <use x="744.677734" xlink:href="#ArialMT-111"/>
      <use x="800.292969" xlink:href="#ArialMT-110"/>
      <use x="855.908203" xlink:href="#ArialMT-32"/>
      <use x="883.691406" xlink:href="#ArialMT-111"/>
      <use x="939.306641" xlink:href="#ArialMT-102"/>
      <use x="967.089844" xlink:href="#ArialMT-32"/>
      <use x="994.873047" xlink:href="#ArialMT-118"/>
      <use x="1044.873047" xlink:href="#ArialMT-97"/>
      <use x="1100.488281" xlink:href="#ArialMT-114"/>
      <use x="1133.789062" xlink:href="#ArialMT-105"/>
      <use x="1156.005859" xlink:href="#ArialMT-97"/>
      <use x="1211.621094" xlink:href="#ArialMT-110"/>
      <use x="1267.236328" xlink:href="#ArialMT-116"/>
      <use x="1295.019531" xlink:href="#ArialMT-115"/>
     </g>
    </g>
   </g>
   <g id="line2d_12">
    <path clip-path="url(#pe75a6a1eb5)" d="M 44.903438 336.938906 
L 44.903438 10.778906 
" style="fill:none;stroke:#808080;stroke-linecap:square;stroke-opacity:0.5;stroke-width:0.5;"/>
   </g>
   <g id="line2d_13">
    <path clip-path="url(#pe75a6a1eb5)" d="M 67.223438 336.938906 
L 67.223438 10.778906 
" style="fill:none;stroke:#808080;stroke-linecap:square;stroke-opacity:0.5;stroke-width:0.5;"/>
   </g>
   <g id="line2d_14">
    <path clip-path="url(#pe75a6a1eb5)" d="M 89.543438 336.938906 
L 89.543438 10.778906 
" style="fill:none;stroke:#808080;stroke-linecap:square;stroke-opacity:0.5;stroke-width:0.5;"/>
   </g>
   <g id="line2d_15">
    <path clip-path="url(#pe75a6a1eb5)" d="M 111.863438 336.938906 
L 111.863438 10.778906 
" style="fill:none;stroke:#808080;stroke-linecap:square;stroke-opacity:0.5;stroke-width:0.5;"/>
   </g>
   <g id="line2d_16">
    <path clip-path="url(#pe75a6a1eb5)" d="M 134.183438 336.938906 
L 134.183438 10.778906 
" style="fill:none;stroke:#808080;stroke-linecap:square;stroke-opacity:0.5;stroke-width:0.5;"/>
   </g>
   <g id="line2d_17">
    <path clip-path="url(#pe75a6a1eb5)" d="M 156.503438 336.938906 
L 156.503438 10.778906 
" style="fill:none;stroke:#808080;stroke-linecap:square;stroke-opacity:0.5;stroke-width:0.5;"/>
   </g>
   <g id="line2d_18">
    <path clip-path="url(#pe75a6a1eb5)" d="M 44.903438 251.085445 
L 156.503438 251.085445 
" style="fill:none;stroke:#808080;stroke-linecap:square;stroke-opacity:0.5;stroke-width:0.5;"/>
   </g>
   <g id="line2d_19">
    <path clip-path="url(#pe75a6a1eb5)" d="M 44.903438 198.423113 
L 156.503438 198.423113 
" style="fill:none;stroke:#808080;stroke-linecap:square;stroke-opacity:0.5;stroke-width:0.5;"/>
   </g>
   <g id="line2d_20">
    <path clip-path="url(#pe75a6a1eb5)" d="M 44.903438 146.522998 
L 156.503438 146.522998 
" style="fill:none;stroke:#808080;stroke-linecap:square;stroke-opacity:0.5;stroke-width:0.5;"/>
   </g>
   <g id="line2d_21">
    <path clip-path="url(#pe75a6a1eb5)" d="M 44.903438 110.629461 
L 156.503438 110.629461 
" style="fill:none;stroke:#808080;stroke-linecap:square;stroke-opacity:0.5;stroke-width:0.5;"/>
   </g>
   <g id="line2d_22">
    <path clip-path="url(#pe75a6a1eb5)" d="M 44.903438 85.060512 
L 156.503438 85.060512 
" style="fill:none;stroke:#808080;stroke-linecap:square;stroke-opacity:0.5;stroke-width:0.5;"/>
   </g>
   <g id="line2d_23">
    <path clip-path="url(#pe75a6a1eb5)" d="M 44.903438 68.430302 
L 156.503438 68.430302 
" style="fill:none;stroke:#808080;stroke-linecap:square;stroke-opacity:0.5;stroke-width:0.5;"/>
   </g>
   <g id="line2d_24">
    <path clip-path="url(#pe75a6a1eb5)" d="M 44.903438 52.493017 
L 156.503438 52.493017 
" style="fill:none;stroke:#808080;stroke-linecap:square;stroke-opacity:0.5;stroke-width:0.5;"/>
   </g>
   <g id="line2d_25">
    <path clip-path="url(#pe75a6a1eb5)" d="M 44.903438 47.503954 
L 156.503438 47.503954 
" style="fill:none;stroke:#808080;stroke-linecap:square;stroke-opacity:0.5;stroke-width:0.5;"/>
   </g>
   <g id="line2d_26">
    <path clip-path="url(#pe75a6a1eb5)" d="M 44.903438 42.792061 
L 156.503438 42.792061 
" style="fill:none;stroke:#808080;stroke-linecap:square;stroke-opacity:0.5;stroke-width:0.5;"/>
   </g>
   <g id="line2d_27">
    <path clip-path="url(#pe75a6a1eb5)" d="M 44.903438 38.773094 
L 156.503438 38.773094 
" style="fill:none;stroke:#808080;stroke-linecap:square;stroke-opacity:0.5;stroke-width:0.5;"/>
   </g>
   <g id="line2d_28">
    <path clip-path="url(#pe75a6a1eb5)" d="M 44.903438 34.823419 
L 156.503438 34.823419 
" style="fill:none;stroke:#808080;stroke-linecap:square;stroke-opacity:0.5;stroke-width:0.5;"/>
   </g>
   <g id="line2d_29">
    <path clip-path="url(#pe75a6a1eb5)" d="M 44.903438 31.497377 
L 156.503438 31.497377 
" style="fill:none;stroke:#808080;stroke-linecap:square;stroke-opacity:0.5;stroke-width:0.5;"/>
   </g>
   <g id="line2d_30">
    <path clip-path="url(#pe75a6a1eb5)" d="M 44.903438 28.517797 
L 156.503438 28.517797 
" style="fill:none;stroke:#808080;stroke-linecap:square;stroke-opacity:0.5;stroke-width:0.5;"/>
   </g>
   <g id="line2d_31">
    <path clip-path="url(#pe75a6a1eb5)" d="M 44.903438 25.953973 
L 156.503438 25.953973 
" style="fill:none;stroke:#808080;stroke-linecap:square;stroke-opacity:0.5;stroke-width:0.5;"/>
   </g>
   <g id="line2d_32">
    <path clip-path="url(#pe75a6a1eb5)" d="M 44.903438 23.390149 
L 156.503438 23.390149 
" style="fill:none;stroke:#808080;stroke-linecap:square;stroke-opacity:0.5;stroke-width:0.5;"/>
   </g>
   <g id="line2d_33">
    <path clip-path="url(#pe75a6a1eb5)" d="M 44.903438 20.96491 
L 156.503438 20.96491 
" style="fill:none;stroke:#808080;stroke-linecap:square;stroke-opacity:0.5;stroke-width:0.5;"/>
   </g>
   <g id="line2d_34">
    <path clip-path="url(#pe75a6a1eb5)" d="M 44.903438 18.678256 
L 156.503438 18.678256 
" style="fill:none;stroke:#808080;stroke-linecap:square;stroke-opacity:0.5;stroke-width:0.5;"/>
   </g>
   <g id="line2d_35">
    <path clip-path="url(#pe75a6a1eb5)" d="M 44.903438 16.530187 
L 156.503438 16.530187 
" style="fill:none;stroke:#808080;stroke-linecap:square;stroke-opacity:0.5;stroke-width:0.5;"/>
   </g>
   <g id="line2d_36">
    <path clip-path="url(#pe75a6a1eb5)" d="M 44.903438 14.382118 
L 156.503438 14.382118 
" style="fill:none;stroke:#808080;stroke-linecap:square;stroke-opacity:0.5;stroke-width:0.5;"/>
   </g>
   <g id="line2d_37">
    <path clip-path="url(#pe75a6a1eb5)" d="M 44.903438 12.580512 
L 156.503438 12.580512 
" style="fill:none;stroke:#808080;stroke-linecap:square;stroke-opacity:0.5;stroke-width:0.5;"/>
   </g>
   <g id="line2d_38">
    <path clip-path="url(#pe75a6a1eb5)" d="M 44.903438 10.778906 
L 156.503438 10.778906 
" style="fill:none;stroke:#808080;stroke-linecap:square;stroke-opacity:0.5;stroke-width:0.5;"/>
   </g>
   <g id="patch_108">
    <path d="M 44.903438 336.938906 
L 44.903438 10.778906 
" style="fill:none;stroke:#808080;stroke-linecap:square;stroke-linejoin:miter;stroke-width:0.8;"/>
   </g>
   <g id="patch_109">
    <path d="M 156.503438 336.938906 
L 156.503438 10.778906 
" style="fill:none;stroke:#808080;stroke-linecap:square;stroke-linejoin:miter;stroke-width:0.8;"/>
   </g>
   <g id="patch_110">
    <path d="M 44.903438 336.938906 
L 156.503438 336.938906 
" style="fill:none;stroke:#808080;stroke-linecap:square;stroke-linejoin:miter;stroke-width:0.8;"/>
   </g>
   <g id="patch_111">
    <path d="M 44.903438 10.778906 
L 156.503438 10.778906 
" style="fill:none;stroke:#808080;stroke-linecap:square;stroke-linejoin:miter;stroke-width:0.8;"/>
   </g>
   <g id="text_13">
    <!-- R -->
    <g transform="translate(51.008125 297.631395)scale(0.14 -0.14)">
     <use xlink:href="#ArialMT-82"/>
    </g>
   </g>
   <g id="text_14">
    <!-- U -->
    <g transform="translate(73.328125 297.631395)scale(0.14 -0.14)">
     <use xlink:href="#ArialMT-85"/>
    </g>
   </g>
   <g id="text_15">
    <!-- U -->
    <g transform="translate(95.648125 297.631395)scale(0.14 -0.14)">
     <use xlink:href="#ArialMT-85"/>
    </g>
   </g>
   <g id="text_16">
    <!-- U -->
    <g transform="translate(117.968125 297.631395)scale(0.14 -0.14)">
     <use xlink:href="#ArialMT-85"/>
    </g>
   </g>
   <g id="text_17">
    <!-- U -->
    <g transform="translate(140.288125 297.631395)scale(0.14 -0.14)">
     <use xlink:href="#ArialMT-85"/>
    </g>
   </g>
   <g id="text_18">
    <!-- U -->
    <g transform="translate(51.008125 228.373498)scale(0.14 -0.14)">
     <use xlink:href="#ArialMT-85"/>
    </g>
   </g>
   <g id="text_19">
    <!-- U -->
    <g transform="translate(73.328125 228.373498)scale(0.14 -0.14)">
     <use xlink:href="#ArialMT-85"/>
    </g>
   </g>
   <g id="text_20">
    <!-- R -->
    <g transform="translate(95.648125 228.373498)scale(0.14 -0.14)">
     <use xlink:href="#ArialMT-82"/>
    </g>
   </g>
   <g id="text_21">
    <!-- U -->
    <g transform="translate(117.968125 228.373498)scale(0.14 -0.14)">
     <use xlink:href="#ArialMT-85"/>
    </g>
   </g>
   <g id="text_22">
    <!-- U -->
    <g transform="translate(140.288125 228.373498)scale(0.14 -0.14)">
     <use xlink:href="#ArialMT-85"/>
    </g>
   </g>
   <g id="text_23">
    <!-- U -->
    <g transform="translate(51.008125 176.092274)scale(0.14 -0.14)">
     <use xlink:href="#ArialMT-85"/>
    </g>
   </g>
   <g id="text_24">
    <!-- U -->
    <g transform="translate(73.328125 176.092274)scale(0.14 -0.14)">
     <use xlink:href="#ArialMT-85"/>
    </g>
   </g>
   <g id="text_25">
    <!-- U -->
    <g transform="translate(95.648125 176.092274)scale(0.14 -0.14)">
     <use xlink:href="#ArialMT-85"/>
    </g>
   </g>
   <g id="text_26">
    <!-- U -->
    <g transform="translate(117.968125 176.092274)scale(0.14 -0.14)">
     <use xlink:href="#ArialMT-85"/>
    </g>
   </g>
   <g id="text_27">
    <!-- R -->
    <g transform="translate(140.288125 176.092274)scale(0.14 -0.14)">
     <use xlink:href="#ArialMT-82"/>
    </g>
   </g>
   <g id="text_28">
    <!-- U -->
    <g transform="translate(51.008125 132.195448)scale(0.14 -0.14)">
     <use xlink:href="#ArialMT-85"/>
    </g>
   </g>
   <g id="text_29">
    <!-- U -->
    <g transform="translate(73.328125 132.195448)scale(0.14 -0.14)">
     <use xlink:href="#ArialMT-85"/>
    </g>
   </g>
   <g id="text_30">
    <!-- U -->
    <g transform="translate(95.648125 132.195448)scale(0.14 -0.14)">
     <use xlink:href="#ArialMT-85"/>
    </g>
   </g>
   <g id="text_31">
    <!-- R -->
    <g transform="translate(117.968125 132.195448)scale(0.14 -0.14)">
     <use xlink:href="#ArialMT-82"/>
    </g>
   </g>
   <g id="text_32">
    <!-- U -->
    <g transform="translate(140.288125 132.195448)scale(0.14 -0.14)">
     <use xlink:href="#ArialMT-85"/>
    </g>
   </g>
   <g id="text_33">
    <!-- U -->
    <g transform="translate(51.008125 101.464205)scale(0.14 -0.14)">
     <use xlink:href="#ArialMT-85"/>
    </g>
   </g>
   <g id="text_34">
    <!-- R -->
    <g transform="translate(73.328125 101.464205)scale(0.14 -0.14)">
     <use xlink:href="#ArialMT-82"/>
    </g>
   </g>
   <g id="text_35">
    <!-- U -->
    <g transform="translate(95.648125 101.464205)scale(0.14 -0.14)">
     <use xlink:href="#ArialMT-85"/>
    </g>
   </g>
   <g id="text_36">
    <!-- U -->
    <g transform="translate(117.968125 101.464205)scale(0.14 -0.14)">
     <use xlink:href="#ArialMT-85"/>
    </g>
   </g>
   <g id="text_37">
    <!-- U -->
    <g transform="translate(140.288125 101.464205)scale(0.14 -0.14)">
     <use xlink:href="#ArialMT-85"/>
    </g>
   </g>
   <g id="text_38">
    <!-- C -->
    <g style="fill:#ffffff;" transform="translate(51.767442 79.821013)scale(0.118972 -0.118972)">
     <use xlink:href="#ArialMT-67"/>
    </g>
   </g>
   <g id="text_39">
    <!-- C -->
    <g style="fill:#ffffff;" transform="translate(74.087442 79.821013)scale(0.118972 -0.118972)">
     <use xlink:href="#ArialMT-67"/>
    </g>
   </g>
   <g id="text_40">
    <!-- C -->
    <g style="fill:#ffffff;" transform="translate(96.407442 79.821013)scale(0.118972 -0.118972)">
     <use xlink:href="#ArialMT-67"/>
    </g>
   </g>
   <g id="text_41">
    <!-- C -->
    <g style="fill:#ffffff;" transform="translate(118.727442 79.821013)scale(0.118972 -0.118972)">
     <use xlink:href="#ArialMT-67"/>
    </g>
   </g>
   <g id="text_42">
    <!-- C -->
    <g style="fill:#ffffff;" transform="translate(141.047442 79.821013)scale(0.118972 -0.118972)">
     <use xlink:href="#ArialMT-67"/>
    </g>
   </g>
   <g id="text_43">
    <!-- R -->
    <g transform="translate(51.946442 63.409115)scale(0.114015 -0.114015)">
     <use xlink:href="#ArialMT-82"/>
    </g>
   </g>
   <g id="text_44">
    <!-- R -->
    <g transform="translate(74.266442 63.409115)scale(0.114015 -0.114015)">
     <use xlink:href="#ArialMT-82"/>
    </g>
   </g>
   <g id="text_45">
    <!-- U -->
    <g transform="translate(96.586442 63.409115)scale(0.114015 -0.114015)">
     <use xlink:href="#ArialMT-85"/>
    </g>
   </g>
   <g id="text_46">
    <!-- U -->
    <g transform="translate(118.906442 63.409115)scale(0.114015 -0.114015)">
     <use xlink:href="#ArialMT-85"/>
    </g>
   </g>
   <g id="text_47">
    <!-- U -->
    <g transform="translate(141.226442 63.409115)scale(0.114015 -0.114015)">
     <use xlink:href="#ArialMT-85"/>
    </g>
   </g>
   <g id="text_48">
    <!-- C -->
    <g style="fill:#ffffff;" transform="translate(54.774639 50.921167)scale(0.035692 -0.035692)">
     <use xlink:href="#ArialMT-67"/>
    </g>
   </g>
   <g id="text_49">
    <!-- R -->
    <g transform="translate(77.094639 50.921167)scale(0.035692 -0.035692)">
     <use xlink:href="#ArialMT-82"/>
    </g>
   </g>
   <g id="text_50">
    <!-- U -->
    <g transform="translate(99.414639 50.921167)scale(0.035692 -0.035692)">
     <use xlink:href="#ArialMT-85"/>
    </g>
   </g>
   <g id="text_51">
    <!-- U -->
    <g transform="translate(121.734639 50.921167)scale(0.035692 -0.035692)">
     <use xlink:href="#ArialMT-85"/>
    </g>
   </g>
   <g id="text_52">
    <!-- U -->
    <g transform="translate(144.054639 50.921167)scale(0.035692 -0.035692)">
     <use xlink:href="#ArialMT-85"/>
    </g>
   </g>
   <g id="text_53">
    <!-- U -->
    <g transform="translate(54.846239 46.019429)scale(0.033709 -0.033709)">
     <use xlink:href="#ArialMT-85"/>
    </g>
   </g>
   <g id="text_54">
    <!-- R -->
    <g transform="translate(77.166239 46.019429)scale(0.033709 -0.033709)">
     <use xlink:href="#ArialMT-82"/>
    </g>
   </g>
   <g id="text_55">
    <!-- U -->
    <g transform="translate(99.486239 46.019429)scale(0.033709 -0.033709)">
     <use xlink:href="#ArialMT-85"/>
    </g>
   </g>
   <g id="text_56">
    <!-- R -->
    <g transform="translate(121.806239 46.019429)scale(0.033709 -0.033709)">
     <use xlink:href="#ArialMT-82"/>
    </g>
   </g>
   <g id="text_57">
    <!-- U -->
    <g transform="translate(144.126239 46.019429)scale(0.033709 -0.033709)">
     <use xlink:href="#ArialMT-85"/>
    </g>
   </g>
   <g id="text_58">
    <!-- U -->
    <g transform="translate(55.025239 41.525849)scale(0.028752 -0.028752)">
     <use xlink:href="#ArialMT-85"/>
    </g>
   </g>
   <g id="text_59">
    <!-- U -->
    <g transform="translate(77.345239 41.525849)scale(0.028752 -0.028752)">
     <use xlink:href="#ArialMT-85"/>
    </g>
   </g>
   <g id="text_60">
    <!-- R -->
    <g transform="translate(99.665239 41.525849)scale(0.028752 -0.028752)">
     <use xlink:href="#ArialMT-82"/>
    </g>
   </g>
   <g id="text_61">
    <!-- U -->
    <g transform="translate(121.985239 41.525849)scale(0.028752 -0.028752)">
     <use xlink:href="#ArialMT-85"/>
    </g>
   </g>
   <g id="text_62">
    <!-- R -->
    <g transform="translate(144.305239 41.525849)scale(0.028752 -0.028752)">
     <use xlink:href="#ArialMT-82"/>
    </g>
   </g>
   <g id="text_63">
    <!-- R -->
    <g transform="translate(55.043139 37.528712)scale(0.028256 -0.028256)">
     <use xlink:href="#ArialMT-82"/>
    </g>
   </g>
   <g id="text_64">
    <!-- R -->
    <g transform="translate(77.363139 37.528712)scale(0.028256 -0.028256)">
     <use xlink:href="#ArialMT-82"/>
    </g>
   </g>
   <g id="text_65">
    <!-- U -->
    <g transform="translate(99.683139 37.528712)scale(0.028256 -0.028256)">
     <use xlink:href="#ArialMT-85"/>
    </g>
   </g>
   <g id="text_66">
    <!-- R -->
    <g transform="translate(122.003139 37.528712)scale(0.028256 -0.028256)">
     <use xlink:href="#ArialMT-82"/>
    </g>
   </g>
   <g id="text_67">
    <!-- U -->
    <g transform="translate(144.323139 37.528712)scale(0.028256 -0.028256)">
     <use xlink:href="#ArialMT-85"/>
    </g>
   </g>
   <g id="text_68">
    <!-- R -->
    <g transform="translate(55.204238 33.775519)scale(0.023794 -0.023794)">
     <use xlink:href="#ArialMT-82"/>
    </g>
   </g>
   <g id="text_69">
    <!-- R -->
    <g transform="translate(77.524238 33.775519)scale(0.023794 -0.023794)">
     <use xlink:href="#ArialMT-82"/>
    </g>
   </g>
   <g id="text_70">
    <!-- U -->
    <g transform="translate(99.844238 33.775519)scale(0.023794 -0.023794)">
     <use xlink:href="#ArialMT-85"/>
    </g>
   </g>
   <g id="text_71">
    <!-- R -->
    <g transform="translate(122.164238 33.775519)scale(0.023794 -0.023794)">
     <use xlink:href="#ArialMT-82"/>
    </g>
   </g>
   <g id="text_72">
    <!-- R -->
    <g transform="translate(144.484238 33.775519)scale(0.023794 -0.023794)">
     <use xlink:href="#ArialMT-82"/>
    </g>
   </g>
   <g id="text_73">
    <!-- U -->
    <g transform="translate(55.293738 30.558633)scale(0.021316 -0.021316)">
     <use xlink:href="#ArialMT-85"/>
    </g>
   </g>
   <g id="text_74">
    <!-- R -->
    <g transform="translate(77.613738 30.558633)scale(0.021316 -0.021316)">
     <use xlink:href="#ArialMT-82"/>
    </g>
   </g>
   <g id="text_75">
    <!-- U -->
    <g transform="translate(99.933738 30.558633)scale(0.021316 -0.021316)">
     <use xlink:href="#ArialMT-85"/>
    </g>
   </g>
   <g id="text_76">
    <!-- R -->
    <g transform="translate(122.253738 30.558633)scale(0.021316 -0.021316)">
     <use xlink:href="#ArialMT-82"/>
    </g>
   </g>
   <g id="text_77">
    <!-- R -->
    <g transform="translate(144.573738 30.558633)scale(0.021316 -0.021316)">
     <use xlink:href="#ArialMT-82"/>
    </g>
   </g>
   <g id="text_78">
    <!-- R -->
    <g transform="translate(55.401138 27.710041)scale(0.018341 -0.018341)">
     <use xlink:href="#ArialMT-82"/>
    </g>
   </g>
   <g id="text_79">
    <!-- C -->
    <g style="fill:#ffffff;" transform="translate(77.721138 27.710041)scale(0.018341 -0.018341)">
     <use xlink:href="#ArialMT-67"/>
    </g>
   </g>
   <g id="text_80">
    <!-- C -->
    <g style="fill:#ffffff;" transform="translate(100.041138 27.710041)scale(0.018341 -0.018341)">
     <use xlink:href="#ArialMT-67"/>
    </g>
   </g>
   <g id="text_81">
    <!-- C -->
    <g style="fill:#ffffff;" transform="translate(122.361138 27.710041)scale(0.018341 -0.018341)">
     <use xlink:href="#ArialMT-67"/>
    </g>
   </g>
   <g id="text_82">
    <!-- C -->
    <g style="fill:#ffffff;" transform="translate(144.681138 27.710041)scale(0.018341 -0.018341)">
     <use xlink:href="#ArialMT-67"/>
    </g>
   </g>
   <g id="text_83">
    <!-- R -->
    <g transform="translate(55.401138 25.146217)scale(0.018341 -0.018341)">
     <use xlink:href="#ArialMT-82"/>
    </g>
   </g>
   <g id="text_84">
    <!-- U -->
    <g transform="translate(77.721138 25.146217)scale(0.018341 -0.018341)">
     <use xlink:href="#ArialMT-85"/>
    </g>
   </g>
   <g id="text_85">
    <!-- U -->
    <g transform="translate(100.041138 25.146217)scale(0.018341 -0.018341)">
     <use xlink:href="#ArialMT-85"/>
    </g>
   </g>
   <g id="text_86">
    <!-- R -->
    <g transform="translate(122.361138 25.146217)scale(0.018341 -0.018341)">
     <use xlink:href="#ArialMT-82"/>
    </g>
   </g>
   <g id="text_87">
    <!-- U -->
    <g transform="translate(144.681138 25.146217)scale(0.018341 -0.018341)">
     <use xlink:href="#ArialMT-85"/>
    </g>
   </g>
   <g id="text_88">
    <!-- U -->
    <g transform="translate(55.436938 22.626055)scale(0.01735 -0.01735)">
     <use xlink:href="#ArialMT-85"/>
    </g>
   </g>
   <g id="text_89">
    <!-- U -->
    <g transform="translate(77.756938 22.626055)scale(0.01735 -0.01735)">
     <use xlink:href="#ArialMT-85"/>
    </g>
   </g>
   <g id="text_90">
    <!-- U -->
    <g transform="translate(100.076938 22.626055)scale(0.01735 -0.01735)">
     <use xlink:href="#ArialMT-85"/>
    </g>
   </g>
   <g id="text_91">
    <!-- R -->
    <g transform="translate(122.396938 22.626055)scale(0.01735 -0.01735)">
     <use xlink:href="#ArialMT-82"/>
    </g>
   </g>
   <g id="text_92">
    <!-- R -->
    <g transform="translate(144.716938 22.626055)scale(0.01735 -0.01735)">
     <use xlink:href="#ArialMT-82"/>
    </g>
   </g>
   <g id="text_93">
    <!-- C -->
    <g style="fill:#ffffff;" transform="translate(55.472738 20.244479)scale(0.016359 -0.016359)">
     <use xlink:href="#ArialMT-67"/>
    </g>
   </g>
   <g id="text_94">
    <!-- R -->
    <g transform="translate(77.792738 20.244479)scale(0.016359 -0.016359)">
     <use xlink:href="#ArialMT-82"/>
    </g>
   </g>
   <g id="text_95">
    <!-- U -->
    <g transform="translate(100.112738 20.244479)scale(0.016359 -0.016359)">
     <use xlink:href="#ArialMT-85"/>
    </g>
   </g>
   <g id="text_96">
    <!-- R -->
    <g transform="translate(122.432738 20.244479)scale(0.016359 -0.016359)">
     <use xlink:href="#ArialMT-82"/>
    </g>
   </g>
   <g id="text_97">
    <!-- U -->
    <g transform="translate(144.752738 20.244479)scale(0.016359 -0.016359)">
     <use xlink:href="#ArialMT-85"/>
    </g>
   </g>
   <g id="text_98">
    <!-- R -->
    <g transform="translate(55.508538 18.001487)scale(0.015367 -0.015367)">
     <use xlink:href="#ArialMT-82"/>
    </g>
   </g>
   <g id="text_99">
    <!-- U -->
    <g transform="translate(77.828538 18.001487)scale(0.015367 -0.015367)">
     <use xlink:href="#ArialMT-85"/>
    </g>
   </g>
   <g id="text_100">
    <!-- R -->
    <g transform="translate(100.148538 18.001487)scale(0.015367 -0.015367)">
     <use xlink:href="#ArialMT-82"/>
    </g>
   </g>
   <g id="text_101">
    <!-- U -->
    <g transform="translate(122.468538 18.001487)scale(0.015367 -0.015367)">
     <use xlink:href="#ArialMT-85"/>
    </g>
   </g>
   <g id="text_102">
    <!-- U -->
    <g transform="translate(144.788538 18.001487)scale(0.015367 -0.015367)">
     <use xlink:href="#ArialMT-85"/>
    </g>
   </g>
   <g id="text_103">
    <!-- C -->
    <g style="fill:#ffffff;" transform="translate(55.508538 15.853419)scale(0.015367 -0.015367)">
     <use xlink:href="#ArialMT-67"/>
    </g>
   </g>
   <g id="text_104">
    <!-- C -->
    <g style="fill:#ffffff;" transform="translate(77.828538 15.853419)scale(0.015367 -0.015367)">
     <use xlink:href="#ArialMT-67"/>
    </g>
   </g>
   <g id="text_105">
    <!-- R -->
    <g transform="translate(100.148538 15.853419)scale(0.015367 -0.015367)">
     <use xlink:href="#ArialMT-82"/>
    </g>
   </g>
   <g id="text_106">
    <!-- C -->
    <g style="fill:#ffffff;" transform="translate(122.468538 15.853419)scale(0.015367 -0.015367)">
     <use xlink:href="#ArialMT-67"/>
    </g>
   </g>
   <g id="text_107">
    <!-- C -->
    <g style="fill:#ffffff;" transform="translate(144.788538 15.853419)scale(0.015367 -0.015367)">
     <use xlink:href="#ArialMT-67"/>
    </g>
   </g>
   <g id="text_108">
    <!-- R -->
    <g transform="translate(55.598038 13.814506)scale(0.012889 -0.012889)">
     <use xlink:href="#ArialMT-82"/>
    </g>
   </g>
   <g id="text_109">
    <!-- U -->
    <g transform="translate(77.918038 13.814506)scale(0.012889 -0.012889)">
     <use xlink:href="#ArialMT-85"/>
    </g>
   </g>
   <g id="text_110">
    <!-- U -->
    <g transform="translate(100.238038 13.814506)scale(0.012889 -0.012889)">
     <use xlink:href="#ArialMT-85"/>
    </g>
   </g>
   <g id="text_111">
    <!-- U -->
    <g transform="translate(122.558038 13.814506)scale(0.012889 -0.012889)">
     <use xlink:href="#ArialMT-85"/>
    </g>
   </g>
   <g id="text_112">
    <!-- R -->
    <g transform="translate(144.878038 13.814506)scale(0.012889 -0.012889)">
     <use xlink:href="#ArialMT-82"/>
    </g>
   </g>
   <g id="text_113">
    <!-- R -->
    <g transform="translate(55.598038 12.0129)scale(0.012889 -0.012889)">
     <use xlink:href="#ArialMT-82"/>
    </g>
   </g>
   <g id="text_114">
    <!-- R -->
    <g transform="translate(77.918038 12.0129)scale(0.012889 -0.012889)">
     <use xlink:href="#ArialMT-82"/>
    </g>
   </g>
   <g id="text_115">
    <!-- R -->
    <g transform="translate(100.238038 12.0129)scale(0.012889 -0.012889)">
     <use xlink:href="#ArialMT-82"/>
    </g>
   </g>
   <g id="text_116">
    <!-- R -->
    <g transform="translate(122.558038 12.0129)scale(0.012889 -0.012889)">
     <use xlink:href="#ArialMT-82"/>
    </g>
   </g>
   <g id="text_117">
    <!-- R -->
    <g transform="translate(144.878038 12.0129)scale(0.012889 -0.012889)">
     <use xlink:href="#ArialMT-82"/>
    </g>
   </g>
  </g>
 </g>
 <defs>
  <clipPath id="pe75a6a1eb5">
   <rect height="326.16" width="111.6" x="44.903438" y="10.778906"/>
  </clipPath>
 </defs>
</svg>
