<?xml version="1.0" encoding="utf-8" standalone="no"?>
<!DOCTYPE svg PUBLIC "-//W3C//DTD SVG 1.1//EN"
  "http://www.w3.org/Graphics/SVG/1.1/DTD/svg11.dtd">
<!-- Created with matplotlib (https://matplotlib.org/) -->
<svg height="424.975781pt" version="1.1" viewBox="0 0 279.628438 424.975781" width="279.628438pt" xmlns="http://www.w3.org/2000/svg" xmlns:xlink="http://www.w3.org/1999/xlink">
 <metadata>
  <rdf:RDF xmlns:cc="http://creativecommons.org/ns#" xmlns:dc="http://purl.org/dc/elements/1.1/" xmlns:rdf="http://www.w3.org/1999/02/22-rdf-syntax-ns#">
   <cc:Work>
    <dc:type rdf:resource="http://purl.org/dc/dcmitype/StillImage"/>
    <dc:date>2020-08-18T10:32:35.496661</dc:date>
    <dc:format>image/svg+xml</dc:format>
    <dc:creator>
     <cc:Agent>
      <dc:title>Matplotlib v3.3.0, https://matplotlib.org/</dc:title>
     </cc:Agent>
    </dc:creator>
   </cc:Work>
  </rdf:RDF>
 </metadata>
 <defs>
  <style type="text/css">*{stroke-linecap:butt;stroke-linejoin:round;}</style>
 </defs>
 <g id="figure_1">
  <g id="patch_1">
   <path d="M 0 424.975781 
L 279.628438 424.975781 
L 279.628438 0 
L 0 0 
z
" style="fill:none;"/>
  </g>
  <g id="axes_1">
   <g id="patch_2">
    <path d="M 44.903438 388.553906 
L 151.515938 388.553906 
L 151.515938 10.778906 
L 44.903438 10.778906 
z
" style="fill:#ffffff;"/>
   </g>
   <g id="patch_3">
    <path clip-path="url(#pad66cec7bb)" d="M 44.903438 388.553906 
L 66.225938 388.553906 
L 66.225938 289.351529 
L 44.903438 289.351529 
z
" style="fill:#abd0e6;"/>
   </g>
   <g id="patch_4">
    <path clip-path="url(#pad66cec7bb)" d="M 66.225938 388.553906 
L 87.548438 388.553906 
L 87.548438 289.351529 
L 66.225938 289.351529 
z
" style="fill:#f7fbff;"/>
   </g>
   <g id="patch_5">
    <path clip-path="url(#pad66cec7bb)" d="M 87.548438 388.553906 
L 108.870938 388.553906 
L 108.870938 289.351529 
L 87.548438 289.351529 
z
" style="fill:#f7fbff;"/>
   </g>
   <g id="patch_6">
    <path clip-path="url(#pad66cec7bb)" d="M 108.870938 388.553906 
L 130.193438 388.553906 
L 130.193438 289.351529 
L 108.870938 289.351529 
z
" style="fill:#f7fbff;"/>
   </g>
   <g id="patch_7">
    <path clip-path="url(#pad66cec7bb)" d="M 130.193438 388.553906 
L 151.515938 388.553906 
L 151.515938 289.351529 
L 130.193438 289.351529 
z
" style="fill:#f7fbff;"/>
   </g>
   <g id="patch_8">
    <path clip-path="url(#pad66cec7bb)" d="M 44.903438 289.351529 
L 66.225938 289.351529 
L 66.225938 226.331868 
L 44.903438 226.331868 
z
" style="fill:#f7fbff;"/>
   </g>
   <g id="patch_9">
    <path clip-path="url(#pad66cec7bb)" d="M 66.225938 289.351529 
L 87.548438 289.351529 
L 87.548438 226.331868 
L 66.225938 226.331868 
z
" style="fill:#f7fbff;"/>
   </g>
   <g id="patch_10">
    <path clip-path="url(#pad66cec7bb)" d="M 87.548438 289.351529 
L 108.870938 289.351529 
L 108.870938 226.331868 
L 87.548438 226.331868 
z
" style="fill:#abd0e6;"/>
   </g>
   <g id="patch_11">
    <path clip-path="url(#pad66cec7bb)" d="M 108.870938 289.351529 
L 130.193438 289.351529 
L 130.193438 226.331868 
L 108.870938 226.331868 
z
" style="fill:#f7fbff;"/>
   </g>
   <g id="patch_12">
    <path clip-path="url(#pad66cec7bb)" d="M 130.193438 289.351529 
L 151.515938 289.351529 
L 151.515938 226.331868 
L 130.193438 226.331868 
z
" style="fill:#f7fbff;"/>
   </g>
   <g id="patch_13">
    <path clip-path="url(#pad66cec7bb)" d="M 44.903438 226.331868 
L 66.225938 226.331868 
L 66.225938 165.541474 
L 44.903438 165.541474 
z
" style="fill:#f7fbff;"/>
   </g>
   <g id="patch_14">
    <path clip-path="url(#pad66cec7bb)" d="M 66.225938 226.331868 
L 87.548438 226.331868 
L 87.548438 165.541474 
L 66.225938 165.541474 
z
" style="fill:#f7fbff;"/>
   </g>
   <g id="patch_15">
    <path clip-path="url(#pad66cec7bb)" d="M 87.548438 226.331868 
L 108.870938 226.331868 
L 108.870938 165.541474 
L 87.548438 165.541474 
z
" style="fill:#f7fbff;"/>
   </g>
   <g id="patch_16">
    <path clip-path="url(#pad66cec7bb)" d="M 108.870938 226.331868 
L 130.193438 226.331868 
L 130.193438 165.541474 
L 108.870938 165.541474 
z
" style="fill:#f7fbff;"/>
   </g>
   <g id="patch_17">
    <path clip-path="url(#pad66cec7bb)" d="M 130.193438 226.331868 
L 151.515938 226.331868 
L 151.515938 165.541474 
L 130.193438 165.541474 
z
" style="fill:#abd0e6;"/>
   </g>
   <g id="patch_18">
    <path clip-path="url(#pad66cec7bb)" d="M 44.903438 165.541474 
L 66.225938 165.541474 
L 66.225938 121.127618 
L 44.903438 121.127618 
z
" style="fill:#f7fbff;"/>
   </g>
   <g id="patch_19">
    <path clip-path="url(#pad66cec7bb)" d="M 66.225938 165.541474 
L 87.548438 165.541474 
L 87.548438 121.127618 
L 66.225938 121.127618 
z
" style="fill:#f7fbff;"/>
   </g>
   <g id="patch_20">
    <path clip-path="url(#pad66cec7bb)" d="M 87.548438 165.541474 
L 108.870938 165.541474 
L 108.870938 121.127618 
L 87.548438 121.127618 
z
" style="fill:#f7fbff;"/>
   </g>
   <g id="patch_21">
    <path clip-path="url(#pad66cec7bb)" d="M 108.870938 165.541474 
L 130.193438 165.541474 
L 130.193438 121.127618 
L 108.870938 121.127618 
z
" style="fill:#abd0e6;"/>
   </g>
   <g id="patch_22">
    <path clip-path="url(#pad66cec7bb)" d="M 130.193438 165.541474 
L 151.515938 165.541474 
L 151.515938 121.127618 
L 130.193438 121.127618 
z
" style="fill:#f7fbff;"/>
   </g>
   <g id="patch_23">
    <path clip-path="url(#pad66cec7bb)" d="M 44.903438 121.127618 
L 66.225938 121.127618 
L 66.225938 89.746399 
L 44.903438 89.746399 
z
" style="fill:#f7fbff;"/>
   </g>
   <g id="patch_24">
    <path clip-path="url(#pad66cec7bb)" d="M 66.225938 121.127618 
L 87.548438 121.127618 
L 87.548438 89.746399 
L 66.225938 89.746399 
z
" style="fill:#abd0e6;"/>
   </g>
   <g id="patch_25">
    <path clip-path="url(#pad66cec7bb)" d="M 87.548438 121.127618 
L 108.870938 121.127618 
L 108.870938 89.746399 
L 87.548438 89.746399 
z
" style="fill:#f7fbff;"/>
   </g>
   <g id="patch_26">
    <path clip-path="url(#pad66cec7bb)" d="M 108.870938 121.127618 
L 130.193438 121.127618 
L 130.193438 89.746399 
L 108.870938 89.746399 
z
" style="fill:#f7fbff;"/>
   </g>
   <g id="patch_27">
    <path clip-path="url(#pad66cec7bb)" d="M 130.193438 121.127618 
L 151.515938 121.127618 
L 151.515938 89.746399 
L 130.193438 89.746399 
z
" style="fill:#f7fbff;"/>
   </g>
   <g id="patch_28">
    <path clip-path="url(#pad66cec7bb)" d="M 44.903438 89.746399 
L 66.225938 89.746399 
L 66.225938 69.168551 
L 44.903438 69.168551 
z
" style="fill:#08306b;"/>
   </g>
   <g id="patch_29">
    <path clip-path="url(#pad66cec7bb)" d="M 66.225938 89.746399 
L 87.548438 89.746399 
L 87.548438 69.168551 
L 66.225938 69.168551 
z
" style="fill:#08306b;"/>
   </g>
   <g id="patch_30">
    <path clip-path="url(#pad66cec7bb)" d="M 87.548438 89.746399 
L 108.870938 89.746399 
L 108.870938 69.168551 
L 87.548438 69.168551 
z
" style="fill:#08306b;"/>
   </g>
   <g id="patch_31">
    <path clip-path="url(#pad66cec7bb)" d="M 108.870938 89.746399 
L 130.193438 89.746399 
L 130.193438 69.168551 
L 108.870938 69.168551 
z
" style="fill:#08306b;"/>
   </g>
   <g id="patch_32">
    <path clip-path="url(#pad66cec7bb)" d="M 130.193438 89.746399 
L 151.515938 89.746399 
L 151.515938 69.168551 
L 130.193438 69.168551 
z
" style="fill:#08306b;"/>
   </g>
   <g id="patch_33">
    <path clip-path="url(#pad66cec7bb)" d="M 44.903438 69.168551 
L 66.225938 69.168551 
L 66.225938 57.593511 
L 44.903438 57.593511 
z
" style="fill:#3787c0;"/>
   </g>
   <g id="patch_34">
    <path clip-path="url(#pad66cec7bb)" d="M 66.225938 69.168551 
L 87.548438 69.168551 
L 87.548438 57.593511 
L 66.225938 57.593511 
z
" style="fill:#abd0e6;"/>
   </g>
   <g id="patch_35">
    <path clip-path="url(#pad66cec7bb)" d="M 87.548438 69.168551 
L 108.870938 69.168551 
L 108.870938 57.593511 
L 87.548438 57.593511 
z
" style="fill:#f7fbff;"/>
   </g>
   <g id="patch_36">
    <path clip-path="url(#pad66cec7bb)" d="M 108.870938 69.168551 
L 130.193438 69.168551 
L 130.193438 57.593511 
L 108.870938 57.593511 
z
" style="fill:#f7fbff;"/>
   </g>
   <g id="patch_37">
    <path clip-path="url(#pad66cec7bb)" d="M 130.193438 69.168551 
L 151.515938 69.168551 
L 151.515938 57.593511 
L 130.193438 57.593511 
z
" style="fill:#f7fbff;"/>
   </g>
   <g id="patch_38">
    <path clip-path="url(#pad66cec7bb)" d="M 44.903438 57.593511 
L 66.225938 57.593511 
L 66.225938 49.705336 
L 44.903438 49.705336 
z
" style="fill:#abd0e6;"/>
   </g>
   <g id="patch_39">
    <path clip-path="url(#pad66cec7bb)" d="M 66.225938 57.593511 
L 87.548438 57.593511 
L 87.548438 49.705336 
L 66.225938 49.705336 
z
" style="fill:#abd0e6;"/>
   </g>
   <g id="patch_40">
    <path clip-path="url(#pad66cec7bb)" d="M 87.548438 57.593511 
L 108.870938 57.593511 
L 108.870938 49.705336 
L 87.548438 49.705336 
z
" style="fill:#f7fbff;"/>
   </g>
   <g id="patch_41">
    <path clip-path="url(#pad66cec7bb)" d="M 108.870938 57.593511 
L 130.193438 57.593511 
L 130.193438 49.705336 
L 108.870938 49.705336 
z
" style="fill:#f7fbff;"/>
   </g>
   <g id="patch_42">
    <path clip-path="url(#pad66cec7bb)" d="M 130.193438 57.593511 
L 151.515938 57.593511 
L 151.515938 49.705336 
L 130.193438 49.705336 
z
" style="fill:#f7fbff;"/>
   </g>
   <g id="patch_43">
    <path clip-path="url(#pad66cec7bb)" d="M 44.903438 49.705336 
L 66.225938 49.705336 
L 66.225938 42.674571 
L 44.903438 42.674571 
z
" style="fill:#3787c0;"/>
   </g>
   <g id="patch_44">
    <path clip-path="url(#pad66cec7bb)" d="M 66.225938 49.705336 
L 87.548438 49.705336 
L 87.548438 42.674571 
L 66.225938 42.674571 
z
" style="fill:#f7fbff;"/>
   </g>
   <g id="patch_45">
    <path clip-path="url(#pad66cec7bb)" d="M 87.548438 49.705336 
L 108.870938 49.705336 
L 108.870938 42.674571 
L 87.548438 42.674571 
z
" style="fill:#f7fbff;"/>
   </g>
   <g id="patch_46">
    <path clip-path="url(#pad66cec7bb)" d="M 108.870938 49.705336 
L 130.193438 49.705336 
L 130.193438 42.674571 
L 108.870938 42.674571 
z
" style="fill:#f7fbff;"/>
   </g>
   <g id="patch_47">
    <path clip-path="url(#pad66cec7bb)" d="M 130.193438 49.705336 
L 151.515938 49.705336 
L 151.515938 42.674571 
L 130.193438 42.674571 
z
" style="fill:#f7fbff;"/>
   </g>
   <g id="patch_48">
    <path clip-path="url(#pad66cec7bb)" d="M 44.903438 42.674571 
L 66.225938 42.674571 
L 66.225938 37.358627 
L 44.903438 37.358627 
z
" style="fill:#f7fbff;"/>
   </g>
   <g id="patch_49">
    <path clip-path="url(#pad66cec7bb)" d="M 66.225938 42.674571 
L 87.548438 42.674571 
L 87.548438 37.358627 
L 66.225938 37.358627 
z
" style="fill:#abd0e6;"/>
   </g>
   <g id="patch_50">
    <path clip-path="url(#pad66cec7bb)" d="M 87.548438 42.674571 
L 108.870938 42.674571 
L 108.870938 37.358627 
L 87.548438 37.358627 
z
" style="fill:#f7fbff;"/>
   </g>
   <g id="patch_51">
    <path clip-path="url(#pad66cec7bb)" d="M 108.870938 42.674571 
L 130.193438 42.674571 
L 130.193438 37.358627 
L 108.870938 37.358627 
z
" style="fill:#abd0e6;"/>
   </g>
   <g id="patch_52">
    <path clip-path="url(#pad66cec7bb)" d="M 130.193438 42.674571 
L 151.515938 42.674571 
L 151.515938 37.358627 
L 130.193438 37.358627 
z
" style="fill:#f7fbff;"/>
   </g>
   <g id="patch_53">
    <path clip-path="url(#pad66cec7bb)" d="M 44.903438 37.358627 
L 66.225938 37.358627 
L 66.225938 32.471388 
L 44.903438 32.471388 
z
" style="fill:#08306b;"/>
   </g>
   <g id="patch_54">
    <path clip-path="url(#pad66cec7bb)" d="M 66.225938 37.358627 
L 87.548438 37.358627 
L 87.548438 32.471388 
L 66.225938 32.471388 
z
" style="fill:#abd0e6;"/>
   </g>
   <g id="patch_55">
    <path clip-path="url(#pad66cec7bb)" d="M 87.548438 37.358627 
L 108.870938 37.358627 
L 108.870938 32.471388 
L 87.548438 32.471388 
z
" style="fill:#f7fbff;"/>
   </g>
   <g id="patch_56">
    <path clip-path="url(#pad66cec7bb)" d="M 108.870938 37.358627 
L 130.193438 37.358627 
L 130.193438 32.471388 
L 108.870938 32.471388 
z
" style="fill:#f7fbff;"/>
   </g>
   <g id="patch_57">
    <path clip-path="url(#pad66cec7bb)" d="M 130.193438 37.358627 
L 151.515938 37.358627 
L 151.515938 32.471388 
L 130.193438 32.471388 
z
" style="fill:#f7fbff;"/>
   </g>
   <g id="patch_58">
    <path clip-path="url(#pad66cec7bb)" d="M 44.903438 32.471388 
L 66.225938 32.471388 
L 66.225938 29.041747 
L 44.903438 29.041747 
z
" style="fill:#f7fbff;"/>
   </g>
   <g id="patch_59">
    <path clip-path="url(#pad66cec7bb)" d="M 66.225938 32.471388 
L 87.548438 32.471388 
L 87.548438 29.041747 
L 66.225938 29.041747 
z
" style="fill:#f7fbff;"/>
   </g>
   <g id="patch_60">
    <path clip-path="url(#pad66cec7bb)" d="M 87.548438 32.471388 
L 108.870938 32.471388 
L 108.870938 29.041747 
L 87.548438 29.041747 
z
" style="fill:#f7fbff;"/>
   </g>
   <g id="patch_61">
    <path clip-path="url(#pad66cec7bb)" d="M 108.870938 32.471388 
L 130.193438 32.471388 
L 130.193438 29.041747 
L 108.870938 29.041747 
z
" style="fill:#f7fbff;"/>
   </g>
   <g id="patch_62">
    <path clip-path="url(#pad66cec7bb)" d="M 130.193438 32.471388 
L 151.515938 32.471388 
L 151.515938 29.041747 
L 130.193438 29.041747 
z
" style="fill:#3787c0;"/>
   </g>
   <g id="patch_63">
    <path clip-path="url(#pad66cec7bb)" d="M 44.903438 29.041747 
L 66.225938 29.041747 
L 66.225938 25.612105 
L 44.903438 25.612105 
z
" style="fill:#f7fbff;"/>
   </g>
   <g id="patch_64">
    <path clip-path="url(#pad66cec7bb)" d="M 66.225938 29.041747 
L 87.548438 29.041747 
L 87.548438 25.612105 
L 66.225938 25.612105 
z
" style="fill:#f7fbff;"/>
   </g>
   <g id="patch_65">
    <path clip-path="url(#pad66cec7bb)" d="M 87.548438 29.041747 
L 108.870938 29.041747 
L 108.870938 25.612105 
L 87.548438 25.612105 
z
" style="fill:#abd0e6;"/>
   </g>
   <g id="patch_66">
    <path clip-path="url(#pad66cec7bb)" d="M 108.870938 29.041747 
L 130.193438 29.041747 
L 130.193438 25.612105 
L 108.870938 25.612105 
z
" style="fill:#f7fbff;"/>
   </g>
   <g id="patch_67">
    <path clip-path="url(#pad66cec7bb)" d="M 130.193438 29.041747 
L 151.515938 29.041747 
L 151.515938 25.612105 
L 130.193438 25.612105 
z
" style="fill:#abd0e6;"/>
   </g>
   <g id="patch_68">
    <path clip-path="url(#pad66cec7bb)" d="M 44.903438 25.612105 
L 66.225938 25.612105 
L 66.225938 22.611169 
L 44.903438 22.611169 
z
" style="fill:#abd0e6;"/>
   </g>
   <g id="patch_69">
    <path clip-path="url(#pad66cec7bb)" d="M 66.225938 25.612105 
L 87.548438 25.612105 
L 87.548438 22.611169 
L 66.225938 22.611169 
z
" style="fill:#f7fbff;"/>
   </g>
   <g id="patch_70">
    <path clip-path="url(#pad66cec7bb)" d="M 87.548438 25.612105 
L 108.870938 25.612105 
L 108.870938 22.611169 
L 87.548438 22.611169 
z
" style="fill:#f7fbff;"/>
   </g>
   <g id="patch_71">
    <path clip-path="url(#pad66cec7bb)" d="M 108.870938 25.612105 
L 130.193438 25.612105 
L 130.193438 22.611169 
L 108.870938 22.611169 
z
" style="fill:#abd0e6;"/>
   </g>
   <g id="patch_72">
    <path clip-path="url(#pad66cec7bb)" d="M 130.193438 25.612105 
L 151.515938 25.612105 
L 151.515938 22.611169 
L 130.193438 22.611169 
z
" style="fill:#f7fbff;"/>
   </g>
   <g id="patch_73">
    <path clip-path="url(#pad66cec7bb)" d="M 44.903438 22.611169 
L 66.225938 22.611169 
L 66.225938 19.867456 
L 44.903438 19.867456 
z
" style="fill:#f7fbff;"/>
   </g>
   <g id="patch_74">
    <path clip-path="url(#pad66cec7bb)" d="M 66.225938 22.611169 
L 87.548438 22.611169 
L 87.548438 19.867456 
L 66.225938 19.867456 
z
" style="fill:#f7fbff;"/>
   </g>
   <g id="patch_75">
    <path clip-path="url(#pad66cec7bb)" d="M 87.548438 22.611169 
L 108.870938 22.611169 
L 108.870938 19.867456 
L 87.548438 19.867456 
z
" style="fill:#f7fbff;"/>
   </g>
   <g id="patch_76">
    <path clip-path="url(#pad66cec7bb)" d="M 108.870938 22.611169 
L 130.193438 22.611169 
L 130.193438 19.867456 
L 108.870938 19.867456 
z
" style="fill:#abd0e6;"/>
   </g>
   <g id="patch_77">
    <path clip-path="url(#pad66cec7bb)" d="M 130.193438 22.611169 
L 151.515938 22.611169 
L 151.515938 19.867456 
L 130.193438 19.867456 
z
" style="fill:#abd0e6;"/>
   </g>
   <g id="patch_78">
    <path clip-path="url(#pad66cec7bb)" d="M 44.903438 19.867456 
L 66.225938 19.867456 
L 66.225938 17.380966 
L 44.903438 17.380966 
z
" style="fill:#abd0e6;"/>
   </g>
   <g id="patch_79">
    <path clip-path="url(#pad66cec7bb)" d="M 66.225938 19.867456 
L 87.548438 19.867456 
L 87.548438 17.380966 
L 66.225938 17.380966 
z
" style="fill:#abd0e6;"/>
   </g>
   <g id="patch_80">
    <path clip-path="url(#pad66cec7bb)" d="M 87.548438 19.867456 
L 108.870938 19.867456 
L 108.870938 17.380966 
L 87.548438 17.380966 
z
" style="fill:#f7fbff;"/>
   </g>
   <g id="patch_81">
    <path clip-path="url(#pad66cec7bb)" d="M 108.870938 19.867456 
L 130.193438 19.867456 
L 130.193438 17.380966 
L 108.870938 17.380966 
z
" style="fill:#abd0e6;"/>
   </g>
   <g id="patch_82">
    <path clip-path="url(#pad66cec7bb)" d="M 130.193438 19.867456 
L 151.515938 19.867456 
L 151.515938 17.380966 
L 130.193438 17.380966 
z
" style="fill:#f7fbff;"/>
   </g>
   <g id="patch_83">
    <path clip-path="url(#pad66cec7bb)" d="M 44.903438 17.380966 
L 66.225938 17.380966 
L 66.225938 15.065958 
L 44.903438 15.065958 
z
" style="fill:#abd0e6;"/>
   </g>
   <g id="patch_84">
    <path clip-path="url(#pad66cec7bb)" d="M 66.225938 17.380966 
L 87.548438 17.380966 
L 87.548438 15.065958 
L 66.225938 15.065958 
z
" style="fill:#f7fbff;"/>
   </g>
   <g id="patch_85">
    <path clip-path="url(#pad66cec7bb)" d="M 87.548438 17.380966 
L 108.870938 17.380966 
L 108.870938 15.065958 
L 87.548438 15.065958 
z
" style="fill:#abd0e6;"/>
   </g>
   <g id="patch_86">
    <path clip-path="url(#pad66cec7bb)" d="M 108.870938 17.380966 
L 130.193438 17.380966 
L 130.193438 15.065958 
L 108.870938 15.065958 
z
" style="fill:#f7fbff;"/>
   </g>
   <g id="patch_87">
    <path clip-path="url(#pad66cec7bb)" d="M 130.193438 17.380966 
L 151.515938 17.380966 
L 151.515938 15.065958 
L 130.193438 15.065958 
z
" style="fill:#f7fbff;"/>
   </g>
   <g id="patch_88">
    <path clip-path="url(#pad66cec7bb)" d="M 44.903438 15.065958 
L 66.225938 15.065958 
L 66.225938 12.922432 
L 44.903438 12.922432 
z
" style="fill:#f7fbff;"/>
   </g>
   <g id="patch_89">
    <path clip-path="url(#pad66cec7bb)" d="M 66.225938 15.065958 
L 87.548438 15.065958 
L 87.548438 12.922432 
L 66.225938 12.922432 
z
" style="fill:#f7fbff;"/>
   </g>
   <g id="patch_90">
    <path clip-path="url(#pad66cec7bb)" d="M 87.548438 15.065958 
L 108.870938 15.065958 
L 108.870938 12.922432 
L 87.548438 12.922432 
z
" style="fill:#3787c0;"/>
   </g>
   <g id="patch_91">
    <path clip-path="url(#pad66cec7bb)" d="M 108.870938 15.065958 
L 130.193438 15.065958 
L 130.193438 12.922432 
L 108.870938 12.922432 
z
" style="fill:#f7fbff;"/>
   </g>
   <g id="patch_92">
    <path clip-path="url(#pad66cec7bb)" d="M 130.193438 15.065958 
L 151.515938 15.065958 
L 151.515938 12.922432 
L 130.193438 12.922432 
z
" style="fill:#f7fbff;"/>
   </g>
   <g id="patch_93">
    <path clip-path="url(#pad66cec7bb)" d="M 44.903438 12.922432 
L 66.225938 12.922432 
L 66.225938 10.778906 
L 44.903438 10.778906 
z
" style="fill:#f7fbff;"/>
   </g>
   <g id="patch_94">
    <path clip-path="url(#pad66cec7bb)" d="M 66.225938 12.922432 
L 87.548438 12.922432 
L 87.548438 10.778906 
L 66.225938 10.778906 
z
" style="fill:#abd0e6;"/>
   </g>
   <g id="patch_95">
    <path clip-path="url(#pad66cec7bb)" d="M 87.548438 12.922432 
L 108.870938 12.922432 
L 108.870938 10.778906 
L 87.548438 10.778906 
z
" style="fill:#f7fbff;"/>
   </g>
   <g id="patch_96">
    <path clip-path="url(#pad66cec7bb)" d="M 108.870938 12.922432 
L 130.193438 12.922432 
L 130.193438 10.778906 
L 108.870938 10.778906 
z
" style="fill:#abd0e6;"/>
   </g>
   <g id="patch_97">
    <path clip-path="url(#pad66cec7bb)" d="M 130.193438 12.922432 
L 151.515938 12.922432 
L 151.515938 10.778906 
L 130.193438 10.778906 
z
" style="fill:#abd0e6;"/>
   </g>
   <g id="matplotlib.axis_1">
    <g id="xtick_1">
     <g id="line2d_1">
      <defs>
       <path d="M 0 0 
L 0 3.5 
" id="mf0adf7603e" style="stroke:#000000;stroke-width:0.8;"/>
      </defs>
      <g>
       <use style="stroke:#000000;stroke-width:0.8;" x="55.564688" xlink:href="#mf0adf7603e" y="388.553906"/>
      </g>
     </g>
     <g id="text_1">
      <!-- AFR -->
      <g transform="translate(58.149844 415.553906)rotate(-90)scale(0.1 -0.1)">
       <defs>
        <path d="M -0.140625 0 
L 27.34375 71.578125 
L 37.546875 71.578125 
L 66.84375 0 
L 56.0625 0 
L 47.703125 21.6875 
L 17.78125 21.6875 
L 9.90625 0 
z
M 20.515625 29.390625 
L 44.78125 29.390625 
L 37.3125 49.21875 
Q 33.890625 58.25 32.234375 64.0625 
Q 30.859375 57.171875 28.375 50.390625 
z
" id="ArialMT-65"/>
        <path d="M 8.203125 0 
L 8.203125 71.578125 
L 56.5 71.578125 
L 56.5 63.140625 
L 17.671875 63.140625 
L 17.671875 40.96875 
L 51.265625 40.96875 
L 51.265625 32.515625 
L 17.671875 32.515625 
L 17.671875 0 
z
" id="ArialMT-70"/>
        <path d="M 7.859375 0 
L 7.859375 71.578125 
L 39.59375 71.578125 
Q 49.171875 71.578125 54.140625 69.640625 
Q 59.125 67.71875 62.109375 62.828125 
Q 65.09375 57.953125 65.09375 52.046875 
Q 65.09375 44.4375 60.15625 39.203125 
Q 55.21875 33.984375 44.921875 32.5625 
Q 48.6875 30.765625 50.640625 29 
Q 54.78125 25.203125 58.5 19.484375 
L 70.953125 0 
L 59.03125 0 
L 49.5625 14.890625 
Q 45.40625 21.34375 42.71875 24.75 
Q 40.046875 28.171875 37.921875 29.53125 
Q 35.796875 30.90625 33.59375 31.453125 
Q 31.984375 31.78125 28.328125 31.78125 
L 17.328125 31.78125 
L 17.328125 0 
z
M 17.328125 39.984375 
L 37.703125 39.984375 
Q 44.1875 39.984375 47.84375 41.328125 
Q 51.515625 42.671875 53.421875 45.625 
Q 55.328125 48.578125 55.328125 52.046875 
Q 55.328125 57.125 51.640625 60.390625 
Q 47.953125 63.671875 39.984375 63.671875 
L 17.328125 63.671875 
z
" id="ArialMT-82"/>
       </defs>
       <use xlink:href="#ArialMT-65"/>
       <use x="66.699219" xlink:href="#ArialMT-70"/>
       <use x="127.783203" xlink:href="#ArialMT-82"/>
      </g>
     </g>
    </g>
    <g id="xtick_2">
     <g id="line2d_2">
      <g>
       <use style="stroke:#000000;stroke-width:0.8;" x="76.887188" xlink:href="#mf0adf7603e" y="388.553906"/>
      </g>
     </g>
     <g id="text_2">
      <!-- AMR -->
      <g transform="translate(79.472344 417.775781)rotate(-90)scale(0.1 -0.1)">
       <defs>
        <path d="M 7.421875 0 
L 7.421875 71.578125 
L 21.6875 71.578125 
L 38.625 20.90625 
Q 40.96875 13.8125 42.046875 10.296875 
Q 43.265625 14.203125 45.84375 21.78125 
L 62.984375 71.578125 
L 75.734375 71.578125 
L 75.734375 0 
L 66.609375 0 
L 66.609375 59.90625 
L 45.796875 0 
L 37.25 0 
L 16.546875 60.9375 
L 16.546875 0 
z
" id="ArialMT-77"/>
       </defs>
       <use xlink:href="#ArialMT-65"/>
       <use x="66.699219" xlink:href="#ArialMT-77"/>
       <use x="150" xlink:href="#ArialMT-82"/>
      </g>
     </g>
    </g>
    <g id="xtick_3">
     <g id="line2d_3">
      <g>
       <use style="stroke:#000000;stroke-width:0.8;" x="98.209688" xlink:href="#mf0adf7603e" y="388.553906"/>
      </g>
     </g>
     <g id="text_3">
      <!-- EAS -->
      <g transform="translate(100.794844 415.564844)rotate(-90)scale(0.1 -0.1)">
       <defs>
        <path d="M 7.90625 0 
L 7.90625 71.578125 
L 59.671875 71.578125 
L 59.671875 63.140625 
L 17.390625 63.140625 
L 17.390625 41.21875 
L 56.984375 41.21875 
L 56.984375 32.8125 
L 17.390625 32.8125 
L 17.390625 8.453125 
L 61.328125 8.453125 
L 61.328125 0 
z
" id="ArialMT-69"/>
        <path d="M 4.5 23 
L 13.421875 23.78125 
Q 14.0625 18.40625 16.375 14.96875 
Q 18.703125 11.53125 23.578125 9.40625 
Q 28.46875 7.28125 34.578125 7.28125 
Q 39.984375 7.28125 44.140625 8.890625 
Q 48.296875 10.5 50.3125 13.296875 
Q 52.34375 16.109375 52.34375 19.4375 
Q 52.34375 22.796875 50.390625 25.3125 
Q 48.4375 27.828125 43.953125 29.546875 
Q 41.0625 30.671875 31.203125 33.03125 
Q 21.34375 35.40625 17.390625 37.5 
Q 12.25 40.1875 9.734375 44.15625 
Q 7.234375 48.140625 7.234375 53.078125 
Q 7.234375 58.5 10.296875 63.203125 
Q 13.375 67.921875 19.28125 70.359375 
Q 25.203125 72.796875 32.421875 72.796875 
Q 40.375 72.796875 46.453125 70.234375 
Q 52.546875 67.671875 55.8125 62.6875 
Q 59.078125 57.71875 59.328125 51.421875 
L 50.25 50.734375 
Q 49.515625 57.515625 45.28125 60.984375 
Q 41.0625 64.453125 32.8125 64.453125 
Q 24.21875 64.453125 20.28125 61.296875 
Q 16.359375 58.15625 16.359375 53.71875 
Q 16.359375 49.859375 19.140625 47.359375 
Q 21.875 44.875 33.421875 42.265625 
Q 44.96875 39.65625 49.265625 37.703125 
Q 55.515625 34.8125 58.484375 30.390625 
Q 61.46875 25.984375 61.46875 20.21875 
Q 61.46875 14.5 58.203125 9.4375 
Q 54.9375 4.390625 48.796875 1.578125 
Q 42.671875 -1.21875 35.015625 -1.21875 
Q 25.296875 -1.21875 18.71875 1.609375 
Q 12.15625 4.4375 8.421875 10.125 
Q 4.6875 15.828125 4.5 23 
z
" id="ArialMT-83"/>
       </defs>
       <use xlink:href="#ArialMT-69"/>
       <use x="66.699219" xlink:href="#ArialMT-65"/>
       <use x="133.398438" xlink:href="#ArialMT-83"/>
      </g>
     </g>
    </g>
    <g id="xtick_4">
     <g id="line2d_4">
      <g>
       <use style="stroke:#000000;stroke-width:0.8;" x="119.532188" xlink:href="#mf0adf7603e" y="388.553906"/>
      </g>
     </g>
     <g id="text_4">
      <!-- EUR -->
      <g transform="translate(122.117344 416.667969)rotate(-90)scale(0.1 -0.1)">
       <defs>
        <path d="M 54.6875 71.578125 
L 64.15625 71.578125 
L 64.15625 30.21875 
Q 64.15625 19.4375 61.71875 13.078125 
Q 59.28125 6.734375 52.90625 2.75 
Q 46.53125 -1.21875 36.1875 -1.21875 
Q 26.125 -1.21875 19.71875 2.25 
Q 13.328125 5.71875 10.59375 12.28125 
Q 7.859375 18.84375 7.859375 30.21875 
L 7.859375 71.578125 
L 17.328125 71.578125 
L 17.328125 30.28125 
Q 17.328125 20.953125 19.0625 16.53125 
Q 20.796875 12.109375 25.015625 9.71875 
Q 29.25 7.328125 35.359375 7.328125 
Q 45.796875 7.328125 50.234375 12.0625 
Q 54.6875 16.796875 54.6875 30.28125 
z
" id="ArialMT-85"/>
       </defs>
       <use xlink:href="#ArialMT-69"/>
       <use x="66.699219" xlink:href="#ArialMT-85"/>
       <use x="138.916016" xlink:href="#ArialMT-82"/>
      </g>
     </g>
    </g>
    <g id="xtick_5">
     <g id="line2d_5">
      <g>
       <use style="stroke:#000000;stroke-width:0.8;" x="140.854688" xlink:href="#mf0adf7603e" y="388.553906"/>
      </g>
     </g>
     <g id="text_5">
      <!-- SAS -->
      <g transform="translate(143.439844 415.564844)rotate(-90)scale(0.1 -0.1)">
       <use xlink:href="#ArialMT-83"/>
       <use x="66.699219" xlink:href="#ArialMT-65"/>
       <use x="133.398438" xlink:href="#ArialMT-83"/>
      </g>
     </g>
    </g>
   </g>
   <g id="matplotlib.axis_2">
    <g id="ytick_1">
     <g id="line2d_6">
      <defs>
       <path d="M 0 0 
L -3.5 0 
" id="m8e2e5d1003" style="stroke:#000000;stroke-width:0.8;"/>
      </defs>
      <g>
       <use style="stroke:#000000;stroke-width:0.8;" x="44.903438" xlink:href="#m8e2e5d1003" y="388.553906"/>
      </g>
     </g>
     <g id="text_6">
      <!-- 0.0 -->
      <g transform="translate(24.003438 392.132812)scale(0.1 -0.1)">
       <defs>
        <path d="M 4.15625 35.296875 
Q 4.15625 48 6.765625 55.734375 
Q 9.375 63.484375 14.515625 67.671875 
Q 19.671875 71.875 27.484375 71.875 
Q 33.25 71.875 37.59375 69.546875 
Q 41.9375 67.234375 44.765625 62.859375 
Q 47.609375 58.5 49.21875 52.21875 
Q 50.828125 45.953125 50.828125 35.296875 
Q 50.828125 22.703125 48.234375 14.96875 
Q 45.65625 7.234375 40.5 3 
Q 35.359375 -1.21875 27.484375 -1.21875 
Q 17.140625 -1.21875 11.234375 6.203125 
Q 4.15625 15.140625 4.15625 35.296875 
z
M 13.1875 35.296875 
Q 13.1875 17.671875 17.3125 11.828125 
Q 21.4375 6 27.484375 6 
Q 33.546875 6 37.671875 11.859375 
Q 41.796875 17.71875 41.796875 35.296875 
Q 41.796875 52.984375 37.671875 58.78125 
Q 33.546875 64.59375 27.390625 64.59375 
Q 21.34375 64.59375 17.71875 59.46875 
Q 13.1875 52.9375 13.1875 35.296875 
z
" id="ArialMT-48"/>
        <path d="M 9.078125 0 
L 9.078125 10.015625 
L 19.09375 10.015625 
L 19.09375 0 
z
" id="ArialMT-46"/>
       </defs>
       <use xlink:href="#ArialMT-48"/>
       <use x="55.615234" xlink:href="#ArialMT-46"/>
       <use x="83.398438" xlink:href="#ArialMT-48"/>
      </g>
     </g>
    </g>
    <g id="ytick_2">
     <g id="line2d_7">
      <g>
       <use style="stroke:#000000;stroke-width:0.8;" x="44.903438" xlink:href="#m8e2e5d1003" y="312.998906"/>
      </g>
     </g>
     <g id="text_7">
      <!-- 0.2 -->
      <g transform="translate(24.003438 316.577812)scale(0.1 -0.1)">
       <defs>
        <path d="M 50.34375 8.453125 
L 50.34375 0 
L 3.03125 0 
Q 2.9375 3.171875 4.046875 6.109375 
Q 5.859375 10.9375 9.828125 15.625 
Q 13.8125 20.3125 21.34375 26.46875 
Q 33.015625 36.03125 37.109375 41.625 
Q 41.21875 47.21875 41.21875 52.203125 
Q 41.21875 57.421875 37.46875 61 
Q 33.734375 64.59375 27.734375 64.59375 
Q 21.390625 64.59375 17.578125 60.78125 
Q 13.765625 56.984375 13.71875 50.25 
L 4.6875 51.171875 
Q 5.609375 61.28125 11.65625 66.578125 
Q 17.71875 71.875 27.9375 71.875 
Q 38.234375 71.875 44.234375 66.15625 
Q 50.25 60.453125 50.25 52 
Q 50.25 47.703125 48.484375 43.546875 
Q 46.734375 39.40625 42.65625 34.8125 
Q 38.578125 30.21875 29.109375 22.21875 
Q 21.1875 15.578125 18.9375 13.203125 
Q 16.703125 10.84375 15.234375 8.453125 
z
" id="ArialMT-50"/>
       </defs>
       <use xlink:href="#ArialMT-48"/>
       <use x="55.615234" xlink:href="#ArialMT-46"/>
       <use x="83.398438" xlink:href="#ArialMT-50"/>
      </g>
     </g>
    </g>
    <g id="ytick_3">
     <g id="line2d_8">
      <g>
       <use style="stroke:#000000;stroke-width:0.8;" x="44.903438" xlink:href="#m8e2e5d1003" y="237.443906"/>
      </g>
     </g>
     <g id="text_8">
      <!-- 0.4 -->
      <g transform="translate(24.003438 241.022812)scale(0.1 -0.1)">
       <defs>
        <path d="M 32.328125 0 
L 32.328125 17.140625 
L 1.265625 17.140625 
L 1.265625 25.203125 
L 33.9375 71.578125 
L 41.109375 71.578125 
L 41.109375 25.203125 
L 50.78125 25.203125 
L 50.78125 17.140625 
L 41.109375 17.140625 
L 41.109375 0 
z
M 32.328125 25.203125 
L 32.328125 57.46875 
L 9.90625 25.203125 
z
" id="ArialMT-52"/>
       </defs>
       <use xlink:href="#ArialMT-48"/>
       <use x="55.615234" xlink:href="#ArialMT-46"/>
       <use x="83.398438" xlink:href="#ArialMT-52"/>
      </g>
     </g>
    </g>
    <g id="ytick_4">
     <g id="line2d_9">
      <g>
       <use style="stroke:#000000;stroke-width:0.8;" x="44.903438" xlink:href="#m8e2e5d1003" y="161.888906"/>
      </g>
     </g>
     <g id="text_9">
      <!-- 0.6 -->
      <g transform="translate(24.003438 165.467812)scale(0.1 -0.1)">
       <defs>
        <path d="M 49.75 54.046875 
L 41.015625 53.375 
Q 39.84375 58.546875 37.703125 60.890625 
Q 34.125 64.65625 28.90625 64.65625 
Q 24.703125 64.65625 21.53125 62.3125 
Q 17.390625 59.28125 14.984375 53.46875 
Q 12.59375 47.65625 12.5 36.921875 
Q 15.671875 41.75 20.265625 44.09375 
Q 24.859375 46.4375 29.890625 46.4375 
Q 38.671875 46.4375 44.84375 39.96875 
Q 51.03125 33.5 51.03125 23.25 
Q 51.03125 16.5 48.125 10.71875 
Q 45.21875 4.9375 40.140625 1.859375 
Q 35.0625 -1.21875 28.609375 -1.21875 
Q 17.625 -1.21875 10.6875 6.859375 
Q 3.765625 14.9375 3.765625 33.5 
Q 3.765625 54.25 11.421875 63.671875 
Q 18.109375 71.875 29.4375 71.875 
Q 37.890625 71.875 43.28125 67.140625 
Q 48.6875 62.40625 49.75 54.046875 
z
M 13.875 23.1875 
Q 13.875 18.65625 15.796875 14.5 
Q 17.71875 10.359375 21.1875 8.171875 
Q 24.65625 6 28.46875 6 
Q 34.03125 6 38.03125 10.484375 
Q 42.046875 14.984375 42.046875 22.703125 
Q 42.046875 30.125 38.078125 34.390625 
Q 34.125 38.671875 28.125 38.671875 
Q 22.171875 38.671875 18.015625 34.390625 
Q 13.875 30.125 13.875 23.1875 
z
" id="ArialMT-54"/>
       </defs>
       <use xlink:href="#ArialMT-48"/>
       <use x="55.615234" xlink:href="#ArialMT-46"/>
       <use x="83.398438" xlink:href="#ArialMT-54"/>
      </g>
     </g>
    </g>
    <g id="ytick_5">
     <g id="line2d_10">
      <g>
       <use style="stroke:#000000;stroke-width:0.8;" x="44.903438" xlink:href="#m8e2e5d1003" y="86.333906"/>
      </g>
     </g>
     <g id="text_10">
      <!-- 0.8 -->
      <g transform="translate(24.003438 89.912812)scale(0.1 -0.1)">
       <defs>
        <path d="M 17.671875 38.8125 
Q 12.203125 40.828125 9.5625 44.53125 
Q 6.9375 48.25 6.9375 53.421875 
Q 6.9375 61.234375 12.546875 66.546875 
Q 18.171875 71.875 27.484375 71.875 
Q 36.859375 71.875 42.578125 66.421875 
Q 48.296875 60.984375 48.296875 53.171875 
Q 48.296875 48.1875 45.671875 44.5 
Q 43.0625 40.828125 37.75 38.8125 
Q 44.34375 36.671875 47.78125 31.875 
Q 51.21875 27.09375 51.21875 20.453125 
Q 51.21875 11.28125 44.71875 5.03125 
Q 38.234375 -1.21875 27.640625 -1.21875 
Q 17.046875 -1.21875 10.546875 5.046875 
Q 4.046875 11.328125 4.046875 20.703125 
Q 4.046875 27.6875 7.59375 32.390625 
Q 11.140625 37.109375 17.671875 38.8125 
z
M 15.921875 53.71875 
Q 15.921875 48.640625 19.1875 45.40625 
Q 22.46875 42.1875 27.6875 42.1875 
Q 32.765625 42.1875 36.015625 45.375 
Q 39.265625 48.578125 39.265625 53.21875 
Q 39.265625 58.0625 35.90625 61.359375 
Q 32.5625 64.65625 27.59375 64.65625 
Q 22.5625 64.65625 19.234375 61.421875 
Q 15.921875 58.203125 15.921875 53.71875 
z
M 13.09375 20.65625 
Q 13.09375 16.890625 14.875 13.375 
Q 16.65625 9.859375 20.171875 7.921875 
Q 23.6875 6 27.734375 6 
Q 34.03125 6 38.125 10.046875 
Q 42.234375 14.109375 42.234375 20.359375 
Q 42.234375 26.703125 38.015625 30.859375 
Q 33.796875 35.015625 27.4375 35.015625 
Q 21.234375 35.015625 17.15625 30.90625 
Q 13.09375 26.8125 13.09375 20.65625 
z
" id="ArialMT-56"/>
       </defs>
       <use xlink:href="#ArialMT-48"/>
       <use x="55.615234" xlink:href="#ArialMT-46"/>
       <use x="83.398438" xlink:href="#ArialMT-56"/>
      </g>
     </g>
    </g>
    <g id="ytick_6">
     <g id="line2d_11">
      <g>
       <use style="stroke:#000000;stroke-width:0.8;" x="44.903438" xlink:href="#m8e2e5d1003" y="10.778906"/>
      </g>
     </g>
     <g id="text_11">
      <!-- 1.0 -->
      <g transform="translate(24.003438 14.357812)scale(0.1 -0.1)">
       <defs>
        <path d="M 37.25 0 
L 28.46875 0 
L 28.46875 56 
Q 25.296875 52.984375 20.140625 49.953125 
Q 14.984375 46.921875 10.890625 45.40625 
L 10.890625 53.90625 
Q 18.265625 57.375 23.78125 62.296875 
Q 29.296875 67.234375 31.59375 71.875 
L 37.25 71.875 
z
" id="ArialMT-49"/>
       </defs>
       <use xlink:href="#ArialMT-49"/>
       <use x="55.615234" xlink:href="#ArialMT-46"/>
       <use x="83.398438" xlink:href="#ArialMT-48"/>
      </g>
     </g>
    </g>
    <g id="text_12">
     <!-- Cumulative fraction of variants -->
     <g transform="translate(17.220938 293.812031)rotate(-90)scale(0.14 -0.14)">
      <defs>
       <path d="M 58.796875 25.09375 
L 68.265625 22.703125 
Q 65.28125 11.03125 57.546875 4.90625 
Q 49.8125 -1.21875 38.625 -1.21875 
Q 27.046875 -1.21875 19.796875 3.484375 
Q 12.546875 8.203125 8.765625 17.140625 
Q 4.984375 26.078125 4.984375 36.328125 
Q 4.984375 47.515625 9.25 55.828125 
Q 13.53125 64.15625 21.40625 68.46875 
Q 29.296875 72.796875 38.765625 72.796875 
Q 49.515625 72.796875 56.828125 67.328125 
Q 64.15625 61.859375 67.046875 51.953125 
L 57.71875 49.75 
Q 55.21875 57.5625 50.484375 61.125 
Q 45.75 64.703125 38.578125 64.703125 
Q 30.328125 64.703125 24.78125 60.734375 
Q 19.234375 56.78125 16.984375 50.109375 
Q 14.75 43.453125 14.75 36.375 
Q 14.75 27.25 17.40625 20.4375 
Q 20.0625 13.625 25.671875 10.25 
Q 31.296875 6.890625 37.84375 6.890625 
Q 45.796875 6.890625 51.3125 11.46875 
Q 56.84375 16.0625 58.796875 25.09375 
z
" id="ArialMT-67"/>
       <path d="M 40.578125 0 
L 40.578125 7.625 
Q 34.515625 -1.171875 24.125 -1.171875 
Q 19.53125 -1.171875 15.546875 0.578125 
Q 11.578125 2.34375 9.640625 5 
Q 7.71875 7.671875 6.9375 11.53125 
Q 6.390625 14.109375 6.390625 19.734375 
L 6.390625 51.859375 
L 15.1875 51.859375 
L 15.1875 23.09375 
Q 15.1875 16.21875 15.71875 13.8125 
Q 16.546875 10.359375 19.234375 8.375 
Q 21.921875 6.390625 25.875 6.390625 
Q 29.828125 6.390625 33.296875 8.421875 
Q 36.765625 10.453125 38.203125 13.9375 
Q 39.65625 17.4375 39.65625 24.078125 
L 39.65625 51.859375 
L 48.4375 51.859375 
L 48.4375 0 
z
" id="ArialMT-117"/>
       <path d="M 6.59375 0 
L 6.59375 51.859375 
L 14.453125 51.859375 
L 14.453125 44.578125 
Q 16.890625 48.390625 20.9375 50.703125 
Q 25 53.03125 30.171875 53.03125 
Q 35.9375 53.03125 39.625 50.640625 
Q 43.3125 48.25 44.828125 43.953125 
Q 50.984375 53.03125 60.84375 53.03125 
Q 68.5625 53.03125 72.703125 48.75 
Q 76.859375 44.484375 76.859375 35.59375 
L 76.859375 0 
L 68.109375 0 
L 68.109375 32.671875 
Q 68.109375 37.9375 67.25 40.25 
Q 66.40625 42.578125 64.15625 43.984375 
Q 61.921875 45.40625 58.890625 45.40625 
Q 53.421875 45.40625 49.796875 41.765625 
Q 46.1875 38.140625 46.1875 30.125 
L 46.1875 0 
L 37.40625 0 
L 37.40625 33.6875 
Q 37.40625 39.546875 35.25 42.46875 
Q 33.109375 45.40625 28.21875 45.40625 
Q 24.515625 45.40625 21.359375 43.453125 
Q 18.21875 41.5 16.796875 37.734375 
Q 15.375 33.984375 15.375 26.90625 
L 15.375 0 
z
" id="ArialMT-109"/>
       <path d="M 6.390625 0 
L 6.390625 71.578125 
L 15.1875 71.578125 
L 15.1875 0 
z
" id="ArialMT-108"/>
       <path d="M 40.4375 6.390625 
Q 35.546875 2.25 31.03125 0.53125 
Q 26.515625 -1.171875 21.34375 -1.171875 
Q 12.796875 -1.171875 8.203125 3 
Q 3.609375 7.171875 3.609375 13.671875 
Q 3.609375 17.484375 5.34375 20.625 
Q 7.078125 23.78125 9.890625 25.6875 
Q 12.703125 27.59375 16.21875 28.5625 
Q 18.796875 29.25 24.03125 29.890625 
Q 34.671875 31.15625 39.703125 32.90625 
Q 39.75 34.71875 39.75 35.203125 
Q 39.75 40.578125 37.25 42.78125 
Q 33.890625 45.75 27.25 45.75 
Q 21.046875 45.75 18.09375 43.578125 
Q 15.140625 41.40625 13.71875 35.890625 
L 5.125 37.0625 
Q 6.296875 42.578125 8.984375 45.96875 
Q 11.671875 49.359375 16.75 51.1875 
Q 21.828125 53.03125 28.515625 53.03125 
Q 35.15625 53.03125 39.296875 51.46875 
Q 43.453125 49.90625 45.40625 47.53125 
Q 47.359375 45.171875 48.140625 41.546875 
Q 48.578125 39.3125 48.578125 33.453125 
L 48.578125 21.734375 
Q 48.578125 9.46875 49.140625 6.21875 
Q 49.703125 2.984375 51.375 0 
L 42.1875 0 
Q 40.828125 2.734375 40.4375 6.390625 
z
M 39.703125 26.03125 
Q 34.90625 24.078125 25.34375 22.703125 
Q 19.921875 21.921875 17.671875 20.9375 
Q 15.4375 19.96875 14.203125 18.09375 
Q 12.984375 16.21875 12.984375 13.921875 
Q 12.984375 10.40625 15.640625 8.0625 
Q 18.3125 5.71875 23.4375 5.71875 
Q 28.515625 5.71875 32.46875 7.9375 
Q 36.421875 10.15625 38.28125 14.015625 
Q 39.703125 17 39.703125 22.796875 
z
" id="ArialMT-97"/>
       <path d="M 25.78125 7.859375 
L 27.046875 0.09375 
Q 23.34375 -0.6875 20.40625 -0.6875 
Q 15.625 -0.6875 12.984375 0.828125 
Q 10.359375 2.34375 9.28125 4.8125 
Q 8.203125 7.28125 8.203125 15.1875 
L 8.203125 45.015625 
L 1.765625 45.015625 
L 1.765625 51.859375 
L 8.203125 51.859375 
L 8.203125 64.703125 
L 16.9375 69.96875 
L 16.9375 51.859375 
L 25.78125 51.859375 
L 25.78125 45.015625 
L 16.9375 45.015625 
L 16.9375 14.703125 
Q 16.9375 10.9375 17.40625 9.859375 
Q 17.875 8.796875 18.921875 8.15625 
Q 19.96875 7.515625 21.921875 7.515625 
Q 23.390625 7.515625 25.78125 7.859375 
z
" id="ArialMT-116"/>
       <path d="M 6.640625 61.46875 
L 6.640625 71.578125 
L 15.4375 71.578125 
L 15.4375 61.46875 
z
M 6.640625 0 
L 6.640625 51.859375 
L 15.4375 51.859375 
L 15.4375 0 
z
" id="ArialMT-105"/>
       <path d="M 21 0 
L 1.265625 51.859375 
L 10.546875 51.859375 
L 21.6875 20.796875 
Q 23.484375 15.765625 25 10.359375 
Q 26.171875 14.453125 28.265625 20.21875 
L 39.796875 51.859375 
L 48.828125 51.859375 
L 29.203125 0 
z
" id="ArialMT-118"/>
       <path d="M 42.09375 16.703125 
L 51.171875 15.578125 
Q 49.03125 7.625 43.21875 3.21875 
Q 37.40625 -1.171875 28.375 -1.171875 
Q 17 -1.171875 10.328125 5.828125 
Q 3.65625 12.84375 3.65625 25.484375 
Q 3.65625 38.578125 10.390625 45.796875 
Q 17.140625 53.03125 27.875 53.03125 
Q 38.28125 53.03125 44.875 45.953125 
Q 51.46875 38.875 51.46875 26.03125 
Q 51.46875 25.25 51.421875 23.6875 
L 12.75 23.6875 
Q 13.234375 15.140625 17.578125 10.59375 
Q 21.921875 6.0625 28.421875 6.0625 
Q 33.25 6.0625 36.671875 8.59375 
Q 40.09375 11.140625 42.09375 16.703125 
z
M 13.234375 30.90625 
L 42.1875 30.90625 
Q 41.609375 37.453125 38.875 40.71875 
Q 34.671875 45.796875 27.984375 45.796875 
Q 21.921875 45.796875 17.796875 41.75 
Q 13.671875 37.703125 13.234375 30.90625 
z
" id="ArialMT-101"/>
       <path id="ArialMT-32"/>
       <path d="M 8.6875 0 
L 8.6875 45.015625 
L 0.921875 45.015625 
L 0.921875 51.859375 
L 8.6875 51.859375 
L 8.6875 57.375 
Q 8.6875 62.59375 9.625 65.140625 
Q 10.890625 68.5625 14.078125 70.671875 
Q 17.28125 72.796875 23.046875 72.796875 
Q 26.765625 72.796875 31.25 71.921875 
L 29.9375 64.265625 
Q 27.203125 64.75 24.75 64.75 
Q 20.75 64.75 19.09375 63.03125 
Q 17.4375 61.328125 17.4375 56.640625 
L 17.4375 51.859375 
L 27.546875 51.859375 
L 27.546875 45.015625 
L 17.4375 45.015625 
L 17.4375 0 
z
" id="ArialMT-102"/>
       <path d="M 6.5 0 
L 6.5 51.859375 
L 14.40625 51.859375 
L 14.40625 44 
Q 17.4375 49.515625 20 51.265625 
Q 22.5625 53.03125 25.640625 53.03125 
Q 30.078125 53.03125 34.671875 50.203125 
L 31.640625 42.046875 
Q 28.421875 43.953125 25.203125 43.953125 
Q 22.3125 43.953125 20.015625 42.21875 
Q 17.71875 40.484375 16.75 37.40625 
Q 15.28125 32.71875 15.28125 27.15625 
L 15.28125 0 
z
" id="ArialMT-114"/>
       <path d="M 40.4375 19 
L 49.078125 17.875 
Q 47.65625 8.9375 41.8125 3.875 
Q 35.984375 -1.171875 27.484375 -1.171875 
Q 16.84375 -1.171875 10.375 5.78125 
Q 3.90625 12.75 3.90625 25.734375 
Q 3.90625 34.125 6.6875 40.421875 
Q 9.46875 46.734375 15.15625 49.875 
Q 20.84375 53.03125 27.546875 53.03125 
Q 35.984375 53.03125 41.359375 48.75 
Q 46.734375 44.484375 48.25 36.625 
L 39.703125 35.296875 
Q 38.484375 40.53125 35.375 43.15625 
Q 32.28125 45.796875 27.875 45.796875 
Q 21.234375 45.796875 17.078125 41.03125 
Q 12.9375 36.28125 12.9375 25.984375 
Q 12.9375 15.53125 16.9375 10.796875 
Q 20.953125 6.0625 27.390625 6.0625 
Q 32.5625 6.0625 36.03125 9.234375 
Q 39.5 12.40625 40.4375 19 
z
" id="ArialMT-99"/>
       <path d="M 3.328125 25.921875 
Q 3.328125 40.328125 11.328125 47.265625 
Q 18.015625 53.03125 27.640625 53.03125 
Q 38.328125 53.03125 45.109375 46.015625 
Q 51.90625 39.015625 51.90625 26.65625 
Q 51.90625 16.65625 48.90625 10.90625 
Q 45.90625 5.171875 40.15625 2 
Q 34.421875 -1.171875 27.640625 -1.171875 
Q 16.75 -1.171875 10.03125 5.8125 
Q 3.328125 12.796875 3.328125 25.921875 
z
M 12.359375 25.921875 
Q 12.359375 15.96875 16.703125 11.015625 
Q 21.046875 6.0625 27.640625 6.0625 
Q 34.1875 6.0625 38.53125 11.03125 
Q 42.875 16.015625 42.875 26.21875 
Q 42.875 35.84375 38.5 40.796875 
Q 34.125 45.75 27.640625 45.75 
Q 21.046875 45.75 16.703125 40.8125 
Q 12.359375 35.890625 12.359375 25.921875 
z
" id="ArialMT-111"/>
       <path d="M 6.59375 0 
L 6.59375 51.859375 
L 14.5 51.859375 
L 14.5 44.484375 
Q 20.21875 53.03125 31 53.03125 
Q 35.6875 53.03125 39.625 51.34375 
Q 43.5625 49.65625 45.515625 46.921875 
Q 47.46875 44.1875 48.25 40.4375 
Q 48.734375 37.984375 48.734375 31.890625 
L 48.734375 0 
L 39.9375 0 
L 39.9375 31.546875 
Q 39.9375 36.921875 38.90625 39.578125 
Q 37.890625 42.234375 35.28125 43.8125 
Q 32.671875 45.40625 29.15625 45.40625 
Q 23.53125 45.40625 19.453125 41.84375 
Q 15.375 38.28125 15.375 28.328125 
L 15.375 0 
z
" id="ArialMT-110"/>
       <path d="M 3.078125 15.484375 
L 11.765625 16.84375 
Q 12.5 11.625 15.84375 8.84375 
Q 19.1875 6.0625 25.203125 6.0625 
Q 31.25 6.0625 34.171875 8.515625 
Q 37.109375 10.984375 37.109375 14.3125 
Q 37.109375 17.28125 34.515625 19 
Q 32.71875 20.171875 25.53125 21.96875 
Q 15.875 24.421875 12.140625 26.203125 
Q 8.40625 27.984375 6.46875 31.125 
Q 4.546875 34.28125 4.546875 38.09375 
Q 4.546875 41.546875 6.125 44.5 
Q 7.71875 47.46875 10.453125 49.421875 
Q 12.5 50.921875 16.03125 51.96875 
Q 19.578125 53.03125 23.640625 53.03125 
Q 29.734375 53.03125 34.34375 51.265625 
Q 38.96875 49.515625 41.15625 46.5 
Q 43.359375 43.5 44.1875 38.484375 
L 35.59375 37.3125 
Q 35.015625 41.3125 32.203125 43.546875 
Q 29.390625 45.796875 24.265625 45.796875 
Q 18.21875 45.796875 15.625 43.796875 
Q 13.03125 41.796875 13.03125 39.109375 
Q 13.03125 37.40625 14.109375 36.03125 
Q 15.1875 34.625 17.484375 33.6875 
Q 18.796875 33.203125 25.25 31.453125 
Q 34.578125 28.953125 38.25 27.359375 
Q 41.9375 25.78125 44.03125 22.75 
Q 46.140625 19.734375 46.140625 15.234375 
Q 46.140625 10.84375 43.578125 6.953125 
Q 41.015625 3.078125 36.171875 0.953125 
Q 31.34375 -1.171875 25.25 -1.171875 
Q 15.140625 -1.171875 9.84375 3.03125 
Q 4.546875 7.234375 3.078125 15.484375 
z
" id="ArialMT-115"/>
      </defs>
      <use xlink:href="#ArialMT-67"/>
      <use x="72.216797" xlink:href="#ArialMT-117"/>
      <use x="127.832031" xlink:href="#ArialMT-109"/>
      <use x="211.132812" xlink:href="#ArialMT-117"/>
      <use x="266.748047" xlink:href="#ArialMT-108"/>
      <use x="288.964844" xlink:href="#ArialMT-97"/>
      <use x="344.580078" xlink:href="#ArialMT-116"/>
      <use x="372.363281" xlink:href="#ArialMT-105"/>
      <use x="394.580078" xlink:href="#ArialMT-118"/>
      <use x="444.580078" xlink:href="#ArialMT-101"/>
      <use x="500.195312" xlink:href="#ArialMT-32"/>
      <use x="527.978516" xlink:href="#ArialMT-102"/>
      <use x="555.761719" xlink:href="#ArialMT-114"/>
      <use x="589.0625" xlink:href="#ArialMT-97"/>
      <use x="644.677734" xlink:href="#ArialMT-99"/>
      <use x="694.677734" xlink:href="#ArialMT-116"/>
      <use x="722.460938" xlink:href="#ArialMT-105"/>
      <use x="744.677734" xlink:href="#ArialMT-111"/>
      <use x="800.292969" xlink:href="#ArialMT-110"/>
      <use x="855.908203" xlink:href="#ArialMT-32"/>
      <use x="883.691406" xlink:href="#ArialMT-111"/>
      <use x="939.306641" xlink:href="#ArialMT-102"/>
      <use x="967.089844" xlink:href="#ArialMT-32"/>
      <use x="994.873047" xlink:href="#ArialMT-118"/>
      <use x="1044.873047" xlink:href="#ArialMT-97"/>
      <use x="1100.488281" xlink:href="#ArialMT-114"/>
      <use x="1133.789062" xlink:href="#ArialMT-105"/>
      <use x="1156.005859" xlink:href="#ArialMT-97"/>
      <use x="1211.621094" xlink:href="#ArialMT-110"/>
      <use x="1267.236328" xlink:href="#ArialMT-116"/>
      <use x="1295.019531" xlink:href="#ArialMT-115"/>
     </g>
    </g>
   </g>
   <g id="line2d_12">
    <path clip-path="url(#pad66cec7bb)" d="M 44.903438 388.553906 
L 44.903438 10.778906 
" style="fill:none;stroke:#808080;stroke-linecap:square;stroke-opacity:0.5;stroke-width:0.5;"/>
   </g>
   <g id="line2d_13">
    <path clip-path="url(#pad66cec7bb)" d="M 66.225938 388.553906 
L 66.225938 10.778906 
" style="fill:none;stroke:#808080;stroke-linecap:square;stroke-opacity:0.5;stroke-width:0.5;"/>
   </g>
   <g id="line2d_14">
    <path clip-path="url(#pad66cec7bb)" d="M 87.548438 388.553906 
L 87.548438 10.778906 
" style="fill:none;stroke:#808080;stroke-linecap:square;stroke-opacity:0.5;stroke-width:0.5;"/>
   </g>
   <g id="line2d_15">
    <path clip-path="url(#pad66cec7bb)" d="M 108.870938 388.553906 
L 108.870938 10.778906 
" style="fill:none;stroke:#808080;stroke-linecap:square;stroke-opacity:0.5;stroke-width:0.5;"/>
   </g>
   <g id="line2d_16">
    <path clip-path="url(#pad66cec7bb)" d="M 130.193438 388.553906 
L 130.193438 10.778906 
" style="fill:none;stroke:#808080;stroke-linecap:square;stroke-opacity:0.5;stroke-width:0.5;"/>
   </g>
   <g id="line2d_17">
    <path clip-path="url(#pad66cec7bb)" d="M 151.515938 388.553906 
L 151.515938 10.778906 
" style="fill:none;stroke:#808080;stroke-linecap:square;stroke-opacity:0.5;stroke-width:0.5;"/>
   </g>
   <g id="line2d_18">
    <path clip-path="url(#pad66cec7bb)" d="M 44.903438 289.351529 
L 151.515938 289.351529 
" style="fill:none;stroke:#808080;stroke-linecap:square;stroke-opacity:0.5;stroke-width:0.5;"/>
   </g>
   <g id="line2d_19">
    <path clip-path="url(#pad66cec7bb)" d="M 44.903438 226.331868 
L 151.515938 226.331868 
" style="fill:none;stroke:#808080;stroke-linecap:square;stroke-opacity:0.5;stroke-width:0.5;"/>
   </g>
   <g id="line2d_20">
    <path clip-path="url(#pad66cec7bb)" d="M 44.903438 165.541474 
L 151.515938 165.541474 
" style="fill:none;stroke:#808080;stroke-linecap:square;stroke-opacity:0.5;stroke-width:0.5;"/>
   </g>
   <g id="line2d_21">
    <path clip-path="url(#pad66cec7bb)" d="M 44.903438 121.127618 
L 151.515938 121.127618 
" style="fill:none;stroke:#808080;stroke-linecap:square;stroke-opacity:0.5;stroke-width:0.5;"/>
   </g>
   <g id="line2d_22">
    <path clip-path="url(#pad66cec7bb)" d="M 44.903438 89.746399 
L 151.515938 89.746399 
" style="fill:none;stroke:#808080;stroke-linecap:square;stroke-opacity:0.5;stroke-width:0.5;"/>
   </g>
   <g id="line2d_23">
    <path clip-path="url(#pad66cec7bb)" d="M 44.903438 69.168551 
L 151.515938 69.168551 
" style="fill:none;stroke:#808080;stroke-linecap:square;stroke-opacity:0.5;stroke-width:0.5;"/>
   </g>
   <g id="line2d_24">
    <path clip-path="url(#pad66cec7bb)" d="M 44.903438 57.593511 
L 151.515938 57.593511 
" style="fill:none;stroke:#808080;stroke-linecap:square;stroke-opacity:0.5;stroke-width:0.5;"/>
   </g>
   <g id="line2d_25">
    <path clip-path="url(#pad66cec7bb)" d="M 44.903438 49.705336 
L 151.515938 49.705336 
" style="fill:none;stroke:#808080;stroke-linecap:square;stroke-opacity:0.5;stroke-width:0.5;"/>
   </g>
   <g id="line2d_26">
    <path clip-path="url(#pad66cec7bb)" d="M 44.903438 42.674571 
L 151.515938 42.674571 
" style="fill:none;stroke:#808080;stroke-linecap:square;stroke-opacity:0.5;stroke-width:0.5;"/>
   </g>
   <g id="line2d_27">
    <path clip-path="url(#pad66cec7bb)" d="M 44.903438 37.358627 
L 151.515938 37.358627 
" style="fill:none;stroke:#808080;stroke-linecap:square;stroke-opacity:0.5;stroke-width:0.5;"/>
   </g>
   <g id="line2d_28">
    <path clip-path="url(#pad66cec7bb)" d="M 44.903438 32.471388 
L 151.515938 32.471388 
" style="fill:none;stroke:#808080;stroke-linecap:square;stroke-opacity:0.5;stroke-width:0.5;"/>
   </g>
   <g id="line2d_29">
    <path clip-path="url(#pad66cec7bb)" d="M 44.903438 29.041747 
L 151.515938 29.041747 
" style="fill:none;stroke:#808080;stroke-linecap:square;stroke-opacity:0.5;stroke-width:0.5;"/>
   </g>
   <g id="line2d_30">
    <path clip-path="url(#pad66cec7bb)" d="M 44.903438 25.612105 
L 151.515938 25.612105 
" style="fill:none;stroke:#808080;stroke-linecap:square;stroke-opacity:0.5;stroke-width:0.5;"/>
   </g>
   <g id="line2d_31">
    <path clip-path="url(#pad66cec7bb)" d="M 44.903438 22.611169 
L 151.515938 22.611169 
" style="fill:none;stroke:#808080;stroke-linecap:square;stroke-opacity:0.5;stroke-width:0.5;"/>
   </g>
   <g id="line2d_32">
    <path clip-path="url(#pad66cec7bb)" d="M 44.903438 19.867456 
L 151.515938 19.867456 
" style="fill:none;stroke:#808080;stroke-linecap:square;stroke-opacity:0.5;stroke-width:0.5;"/>
   </g>
   <g id="line2d_33">
    <path clip-path="url(#pad66cec7bb)" d="M 44.903438 17.380966 
L 151.515938 17.380966 
" style="fill:none;stroke:#808080;stroke-linecap:square;stroke-opacity:0.5;stroke-width:0.5;"/>
   </g>
   <g id="line2d_34">
    <path clip-path="url(#pad66cec7bb)" d="M 44.903438 15.065958 
L 151.515938 15.065958 
" style="fill:none;stroke:#808080;stroke-linecap:square;stroke-opacity:0.5;stroke-width:0.5;"/>
   </g>
   <g id="line2d_35">
    <path clip-path="url(#pad66cec7bb)" d="M 44.903438 12.922432 
L 151.515938 12.922432 
" style="fill:none;stroke:#808080;stroke-linecap:square;stroke-opacity:0.5;stroke-width:0.5;"/>
   </g>
   <g id="line2d_36">
    <path clip-path="url(#pad66cec7bb)" d="M 44.903438 10.778906 
L 151.515938 10.778906 
" style="fill:none;stroke:#808080;stroke-linecap:square;stroke-opacity:0.5;stroke-width:0.5;"/>
   </g>
   <g id="patch_98">
    <path d="M 44.903438 388.553906 
L 44.903438 10.778906 
" style="fill:none;stroke:#808080;stroke-linecap:square;stroke-linejoin:miter;stroke-width:0.8;"/>
   </g>
   <g id="patch_99">
    <path d="M 151.515938 388.553906 
L 151.515938 10.778906 
" style="fill:none;stroke:#808080;stroke-linecap:square;stroke-linejoin:miter;stroke-width:0.8;"/>
   </g>
   <g id="patch_100">
    <path d="M 44.903438 388.553906 
L 151.515938 388.553906 
" style="fill:none;stroke:#808080;stroke-linecap:square;stroke-linejoin:miter;stroke-width:0.8;"/>
   </g>
   <g id="patch_101">
    <path d="M 44.903438 10.778906 
L 151.515938 10.778906 
" style="fill:none;stroke:#808080;stroke-linecap:square;stroke-linejoin:miter;stroke-width:0.8;"/>
   </g>
   <g id="text_13">
    <!-- R -->
    <g transform="translate(50.509375 342.571936)scale(0.14 -0.14)">
     <use xlink:href="#ArialMT-82"/>
    </g>
   </g>
   <g id="text_14">
    <!-- U -->
    <g transform="translate(71.831875 342.571936)scale(0.14 -0.14)">
     <use xlink:href="#ArialMT-85"/>
    </g>
   </g>
   <g id="text_15">
    <!-- U -->
    <g transform="translate(93.154375 342.571936)scale(0.14 -0.14)">
     <use xlink:href="#ArialMT-85"/>
    </g>
   </g>
   <g id="text_16">
    <!-- U -->
    <g transform="translate(114.476875 342.571936)scale(0.14 -0.14)">
     <use xlink:href="#ArialMT-85"/>
    </g>
   </g>
   <g id="text_17">
    <!-- U -->
    <g transform="translate(135.799375 342.571936)scale(0.14 -0.14)">
     <use xlink:href="#ArialMT-85"/>
    </g>
   </g>
   <g id="text_18">
    <!-- U -->
    <g transform="translate(50.509375 261.460917)scale(0.14 -0.14)">
     <use xlink:href="#ArialMT-85"/>
    </g>
   </g>
   <g id="text_19">
    <!-- U -->
    <g transform="translate(71.831875 261.460917)scale(0.14 -0.14)">
     <use xlink:href="#ArialMT-85"/>
    </g>
   </g>
   <g id="text_20">
    <!-- R -->
    <g transform="translate(93.154375 261.460917)scale(0.14 -0.14)">
     <use xlink:href="#ArialMT-82"/>
    </g>
   </g>
   <g id="text_21">
    <!-- U -->
    <g transform="translate(114.476875 261.460917)scale(0.14 -0.14)">
     <use xlink:href="#ArialMT-85"/>
    </g>
   </g>
   <g id="text_22">
    <!-- U -->
    <g transform="translate(135.799375 261.460917)scale(0.14 -0.14)">
     <use xlink:href="#ArialMT-85"/>
    </g>
   </g>
   <g id="text_23">
    <!-- U -->
    <g transform="translate(50.509375 199.55589)scale(0.14 -0.14)">
     <use xlink:href="#ArialMT-85"/>
    </g>
   </g>
   <g id="text_24">
    <!-- U -->
    <g transform="translate(71.831875 199.55589)scale(0.14 -0.14)">
     <use xlink:href="#ArialMT-85"/>
    </g>
   </g>
   <g id="text_25">
    <!-- U -->
    <g transform="translate(93.154375 199.55589)scale(0.14 -0.14)">
     <use xlink:href="#ArialMT-85"/>
    </g>
   </g>
   <g id="text_26">
    <!-- U -->
    <g transform="translate(114.476875 199.55589)scale(0.14 -0.14)">
     <use xlink:href="#ArialMT-85"/>
    </g>
   </g>
   <g id="text_27">
    <!-- R -->
    <g transform="translate(135.799375 199.55589)scale(0.14 -0.14)">
     <use xlink:href="#ArialMT-82"/>
    </g>
   </g>
   <g id="text_28">
    <!-- U -->
    <g transform="translate(50.509375 146.953765)scale(0.14 -0.14)">
     <use xlink:href="#ArialMT-85"/>
    </g>
   </g>
   <g id="text_29">
    <!-- U -->
    <g transform="translate(71.831875 146.953765)scale(0.14 -0.14)">
     <use xlink:href="#ArialMT-85"/>
    </g>
   </g>
   <g id="text_30">
    <!-- U -->
    <g transform="translate(93.154375 146.953765)scale(0.14 -0.14)">
     <use xlink:href="#ArialMT-85"/>
    </g>
   </g>
   <g id="text_31">
    <!-- R -->
    <g transform="translate(114.476875 146.953765)scale(0.14 -0.14)">
     <use xlink:href="#ArialMT-82"/>
    </g>
   </g>
   <g id="text_32">
    <!-- U -->
    <g transform="translate(135.799375 146.953765)scale(0.14 -0.14)">
     <use xlink:href="#ArialMT-85"/>
    </g>
   </g>
   <g id="text_33">
    <!-- U -->
    <g transform="translate(50.509375 109.056228)scale(0.14 -0.14)">
     <use xlink:href="#ArialMT-85"/>
    </g>
   </g>
   <g id="text_34">
    <!-- R -->
    <g transform="translate(71.831875 109.056228)scale(0.14 -0.14)">
     <use xlink:href="#ArialMT-82"/>
    </g>
   </g>
   <g id="text_35">
    <!-- U -->
    <g transform="translate(93.154375 109.056228)scale(0.14 -0.14)">
     <use xlink:href="#ArialMT-85"/>
    </g>
   </g>
   <g id="text_36">
    <!-- U -->
    <g transform="translate(114.476875 109.056228)scale(0.14 -0.14)">
     <use xlink:href="#ArialMT-85"/>
    </g>
   </g>
   <g id="text_37">
    <!-- U -->
    <g transform="translate(135.799375 109.056228)scale(0.14 -0.14)">
     <use xlink:href="#ArialMT-85"/>
    </g>
   </g>
   <g id="text_38">
    <!-- C -->
    <g style="fill:#ffffff;" transform="translate(50.975207 82.743194)scale(0.127099 -0.127099)">
     <use xlink:href="#ArialMT-67"/>
    </g>
   </g>
   <g id="text_39">
    <!-- C -->
    <g style="fill:#ffffff;" transform="translate(72.297707 82.743194)scale(0.127099 -0.127099)">
     <use xlink:href="#ArialMT-67"/>
    </g>
   </g>
   <g id="text_40">
    <!-- C -->
    <g style="fill:#ffffff;" transform="translate(93.620207 82.743194)scale(0.127099 -0.127099)">
     <use xlink:href="#ArialMT-67"/>
    </g>
   </g>
   <g id="text_41">
    <!-- C -->
    <g style="fill:#ffffff;" transform="translate(114.942707 82.743194)scale(0.127099 -0.127099)">
     <use xlink:href="#ArialMT-67"/>
    </g>
   </g>
   <g id="text_42">
    <!-- C -->
    <g style="fill:#ffffff;" transform="translate(136.265207 82.743194)scale(0.127099 -0.127099)">
     <use xlink:href="#ArialMT-67"/>
    </g>
   </g>
   <g id="text_43">
    <!-- L -->
    <g style="fill:#ffffff;" transform="translate(53.576835 65.229248)scale(0.071493 -0.071493)">
     <defs>
      <path d="M 7.328125 0 
L 7.328125 71.578125 
L 16.796875 71.578125 
L 16.796875 8.453125 
L 52.046875 8.453125 
L 52.046875 0 
z
" id="ArialMT-76"/>
     </defs>
     <use xlink:href="#ArialMT-76"/>
    </g>
   </g>
   <g id="text_44">
    <!-- R -->
    <g transform="translate(74.305605 65.229248)scale(0.071493 -0.071493)">
     <use xlink:href="#ArialMT-82"/>
    </g>
   </g>
   <g id="text_45">
    <!-- U -->
    <g transform="translate(95.628105 65.229248)scale(0.071493 -0.071493)">
     <use xlink:href="#ArialMT-85"/>
    </g>
   </g>
   <g id="text_46">
    <!-- U -->
    <g transform="translate(116.950605 65.229248)scale(0.071493 -0.071493)">
     <use xlink:href="#ArialMT-85"/>
    </g>
   </g>
   <g id="text_47">
    <!-- U -->
    <g transform="translate(138.273105 65.229248)scale(0.071493 -0.071493)">
     <use xlink:href="#ArialMT-85"/>
    </g>
   </g>
   <g id="text_48">
    <!-- R -->
    <g transform="translate(53.805387 54.908949)scale(0.048721 -0.048721)">
     <use xlink:href="#ArialMT-82"/>
    </g>
   </g>
   <g id="text_49">
    <!-- R -->
    <g transform="translate(75.127887 54.908949)scale(0.048721 -0.048721)">
     <use xlink:href="#ArialMT-82"/>
    </g>
   </g>
   <g id="text_50">
    <!-- U -->
    <g transform="translate(96.450387 54.908949)scale(0.048721 -0.048721)">
     <use xlink:href="#ArialMT-85"/>
    </g>
   </g>
   <g id="text_51">
    <!-- U -->
    <g transform="translate(117.772887 54.908949)scale(0.048721 -0.048721)">
     <use xlink:href="#ArialMT-85"/>
    </g>
   </g>
   <g id="text_52">
    <!-- U -->
    <g transform="translate(139.095387 54.908949)scale(0.048721 -0.048721)">
     <use xlink:href="#ArialMT-85"/>
    </g>
   </g>
   <g id="text_53">
    <!-- L -->
    <g style="fill:#ffffff;" transform="translate(54.357251 47.312574)scale(0.043426 -0.043426)">
     <use xlink:href="#ArialMT-76"/>
    </g>
   </g>
   <g id="text_54">
    <!-- U -->
    <g transform="translate(75.319115 47.312574)scale(0.043426 -0.043426)">
     <use xlink:href="#ArialMT-85"/>
    </g>
   </g>
   <g id="text_55">
    <!-- U -->
    <g transform="translate(96.641615 47.312574)scale(0.043426 -0.043426)">
     <use xlink:href="#ArialMT-85"/>
    </g>
   </g>
   <g id="text_56">
    <!-- U -->
    <g transform="translate(117.964115 47.312574)scale(0.043426 -0.043426)">
     <use xlink:href="#ArialMT-85"/>
    </g>
   </g>
   <g id="text_57">
    <!-- U -->
    <g transform="translate(139.286615 47.312574)scale(0.043426 -0.043426)">
     <use xlink:href="#ArialMT-85"/>
    </g>
   </g>
   <g id="text_58">
    <!-- U -->
    <g transform="translate(54.379072 40.86541)scale(0.032834 -0.032834)">
     <use xlink:href="#ArialMT-85"/>
    </g>
   </g>
   <g id="text_59">
    <!-- R -->
    <g transform="translate(75.701572 40.86541)scale(0.032834 -0.032834)">
     <use xlink:href="#ArialMT-82"/>
    </g>
   </g>
   <g id="text_60">
    <!-- U -->
    <g transform="translate(97.024072 40.86541)scale(0.032834 -0.032834)">
     <use xlink:href="#ArialMT-85"/>
    </g>
   </g>
   <g id="text_61">
    <!-- R -->
    <g transform="translate(118.346572 40.86541)scale(0.032834 -0.032834)">
     <use xlink:href="#ArialMT-82"/>
    </g>
   </g>
   <g id="text_62">
    <!-- U -->
    <g transform="translate(139.669072 40.86541)scale(0.032834 -0.032834)">
     <use xlink:href="#ArialMT-85"/>
    </g>
   </g>
   <g id="text_63">
    <!-- C -->
    <g style="fill:#ffffff;" transform="translate(54.474686 35.695366)scale(0.030186 -0.030186)">
     <use xlink:href="#ArialMT-67"/>
    </g>
   </g>
   <g id="text_64">
    <!-- R -->
    <g transform="translate(75.797186 35.695366)scale(0.030186 -0.030186)">
     <use xlink:href="#ArialMT-82"/>
    </g>
   </g>
   <g id="text_65">
    <!-- U -->
    <g transform="translate(97.119686 35.695366)scale(0.030186 -0.030186)">
     <use xlink:href="#ArialMT-85"/>
    </g>
   </g>
   <g id="text_66">
    <!-- U -->
    <g transform="translate(118.442186 35.695366)scale(0.030186 -0.030186)">
     <use xlink:href="#ArialMT-85"/>
    </g>
   </g>
   <g id="text_67">
    <!-- U -->
    <g transform="translate(139.764686 35.695366)scale(0.030186 -0.030186)">
     <use xlink:href="#ArialMT-85"/>
    </g>
   </g>
   <g id="text_68">
    <!-- U -->
    <g transform="translate(54.799774 31.304187)scale(0.021183 -0.021183)">
     <use xlink:href="#ArialMT-85"/>
    </g>
   </g>
   <g id="text_69">
    <!-- U -->
    <g transform="translate(76.122274 31.304187)scale(0.021183 -0.021183)">
     <use xlink:href="#ArialMT-85"/>
    </g>
   </g>
   <g id="text_70">
    <!-- U -->
    <g transform="translate(97.444774 31.304187)scale(0.021183 -0.021183)">
     <use xlink:href="#ArialMT-85"/>
    </g>
   </g>
   <g id="text_71">
    <!-- U -->
    <g transform="translate(118.767274 31.304187)scale(0.021183 -0.021183)">
     <use xlink:href="#ArialMT-85"/>
    </g>
   </g>
   <g id="text_72">
    <!-- L -->
    <g style="fill:#ffffff;" transform="translate(140.265694 31.304187)scale(0.021183 -0.021183)">
     <use xlink:href="#ArialMT-76"/>
    </g>
   </g>
   <g id="text_73">
    <!-- U -->
    <g transform="translate(54.799774 27.874546)scale(0.021183 -0.021183)">
     <use xlink:href="#ArialMT-85"/>
    </g>
   </g>
   <g id="text_74">
    <!-- U -->
    <g transform="translate(76.122274 27.874546)scale(0.021183 -0.021183)">
     <use xlink:href="#ArialMT-85"/>
    </g>
   </g>
   <g id="text_75">
    <!-- R -->
    <g transform="translate(97.444774 27.874546)scale(0.021183 -0.021183)">
     <use xlink:href="#ArialMT-82"/>
    </g>
   </g>
   <g id="text_76">
    <!-- U -->
    <g transform="translate(118.767274 27.874546)scale(0.021183 -0.021183)">
     <use xlink:href="#ArialMT-85"/>
    </g>
   </g>
   <g id="text_77">
    <!-- R -->
    <g transform="translate(140.089774 27.874546)scale(0.021183 -0.021183)">
     <use xlink:href="#ArialMT-82"/>
    </g>
   </g>
   <g id="text_78">
    <!-- R -->
    <g transform="translate(54.895388 24.590804)scale(0.018535 -0.018535)">
     <use xlink:href="#ArialMT-82"/>
    </g>
   </g>
   <g id="text_79">
    <!-- U -->
    <g transform="translate(76.217888 24.590804)scale(0.018535 -0.018535)">
     <use xlink:href="#ArialMT-85"/>
    </g>
   </g>
   <g id="text_80">
    <!-- U -->
    <g transform="translate(97.540388 24.590804)scale(0.018535 -0.018535)">
     <use xlink:href="#ArialMT-85"/>
    </g>
   </g>
   <g id="text_81">
    <!-- R -->
    <g transform="translate(118.862888 24.590804)scale(0.018535 -0.018535)">
     <use xlink:href="#ArialMT-82"/>
    </g>
   </g>
   <g id="text_82">
    <!-- U -->
    <g transform="translate(140.185388 24.590804)scale(0.018535 -0.018535)">
     <use xlink:href="#ArialMT-85"/>
    </g>
   </g>
   <g id="text_83">
    <!-- U -->
    <g transform="translate(54.952757 21.677408)scale(0.016947 -0.016947)">
     <use xlink:href="#ArialMT-85"/>
    </g>
   </g>
   <g id="text_84">
    <!-- U -->
    <g transform="translate(76.275257 21.677408)scale(0.016947 -0.016947)">
     <use xlink:href="#ArialMT-85"/>
    </g>
   </g>
   <g id="text_85">
    <!-- U -->
    <g transform="translate(97.597757 21.677408)scale(0.016947 -0.016947)">
     <use xlink:href="#ArialMT-85"/>
    </g>
   </g>
   <g id="text_86">
    <!-- R -->
    <g transform="translate(118.920257 21.677408)scale(0.016947 -0.016947)">
     <use xlink:href="#ArialMT-82"/>
    </g>
   </g>
   <g id="text_87">
    <!-- R -->
    <g transform="translate(140.242757 21.677408)scale(0.016947 -0.016947)">
     <use xlink:href="#ArialMT-82"/>
    </g>
   </g>
   <g id="text_88">
    <!-- R -->
    <g transform="translate(55.010125 19.021235)scale(0.015358 -0.015358)">
     <use xlink:href="#ArialMT-82"/>
    </g>
   </g>
   <g id="text_89">
    <!-- R -->
    <g transform="translate(76.332625 19.021235)scale(0.015358 -0.015358)">
     <use xlink:href="#ArialMT-82"/>
    </g>
   </g>
   <g id="text_90">
    <!-- U -->
    <g transform="translate(97.655125 19.021235)scale(0.015358 -0.015358)">
     <use xlink:href="#ArialMT-85"/>
    </g>
   </g>
   <g id="text_91">
    <!-- R -->
    <g transform="translate(118.977625 19.021235)scale(0.015358 -0.015358)">
     <use xlink:href="#ArialMT-82"/>
    </g>
   </g>
   <g id="text_92">
    <!-- U -->
    <g transform="translate(140.300125 19.021235)scale(0.015358 -0.015358)">
     <use xlink:href="#ArialMT-85"/>
    </g>
   </g>
   <g id="text_93">
    <!-- R -->
    <g transform="translate(55.048371 16.593105)scale(0.014299 -0.014299)">
     <use xlink:href="#ArialMT-82"/>
    </g>
   </g>
   <g id="text_94">
    <!-- U -->
    <g transform="translate(76.370871 16.593105)scale(0.014299 -0.014299)">
     <use xlink:href="#ArialMT-85"/>
    </g>
   </g>
   <g id="text_95">
    <!-- R -->
    <g transform="translate(97.693371 16.593105)scale(0.014299 -0.014299)">
     <use xlink:href="#ArialMT-82"/>
    </g>
   </g>
   <g id="text_96">
    <!-- U -->
    <g transform="translate(119.015871 16.593105)scale(0.014299 -0.014299)">
     <use xlink:href="#ArialMT-85"/>
    </g>
   </g>
   <g id="text_97">
    <!-- U -->
    <g transform="translate(140.338371 16.593105)scale(0.014299 -0.014299)">
     <use xlink:href="#ArialMT-85"/>
    </g>
   </g>
   <g id="text_98">
    <!-- U -->
    <g transform="translate(55.086617 14.336457)scale(0.01324 -0.01324)">
     <use xlink:href="#ArialMT-85"/>
    </g>
   </g>
   <g id="text_99">
    <!-- U -->
    <g transform="translate(76.409117 14.336457)scale(0.01324 -0.01324)">
     <use xlink:href="#ArialMT-85"/>
    </g>
   </g>
   <g id="text_100">
    <!-- L -->
    <g style="fill:#ffffff;" transform="translate(97.841567 14.336457)scale(0.01324 -0.01324)">
     <use xlink:href="#ArialMT-76"/>
    </g>
   </g>
   <g id="text_101">
    <!-- U -->
    <g transform="translate(119.054117 14.336457)scale(0.01324 -0.01324)">
     <use xlink:href="#ArialMT-85"/>
    </g>
   </g>
   <g id="text_102">
    <!-- U -->
    <g transform="translate(140.376617 14.336457)scale(0.01324 -0.01324)">
     <use xlink:href="#ArialMT-85"/>
    </g>
   </g>
   <g id="text_103">
    <!-- U -->
    <g transform="translate(55.086617 12.192932)scale(0.01324 -0.01324)">
     <use xlink:href="#ArialMT-85"/>
    </g>
   </g>
   <g id="text_104">
    <!-- R -->
    <g transform="translate(76.409117 12.192932)scale(0.01324 -0.01324)">
     <use xlink:href="#ArialMT-82"/>
    </g>
   </g>
   <g id="text_105">
    <!-- U -->
    <g transform="translate(97.731617 12.192932)scale(0.01324 -0.01324)">
     <use xlink:href="#ArialMT-85"/>
    </g>
   </g>
   <g id="text_106">
    <!-- R -->
    <g transform="translate(119.054117 12.192932)scale(0.01324 -0.01324)">
     <use xlink:href="#ArialMT-82"/>
    </g>
   </g>
   <g id="text_107">
    <!-- R -->
    <g transform="translate(140.376617 12.192932)scale(0.01324 -0.01324)">
     <use xlink:href="#ArialMT-82"/>
    </g>
   </g>
  </g>
  <g id="axes_2">
   <g id="patch_102">
    <path d="M 165.815937 388.553906 
L 272.428437 388.553906 
L 272.428437 10.778906 
L 165.815937 10.778906 
z
" style="fill:#ffffff;"/>
   </g>
   <g id="matplotlib.axis_3"/>
   <g id="matplotlib.axis_4">
    <g id="ytick_7">
     <g id="line2d_37">
      <g>
       <use style="stroke:#000000;stroke-width:0.8;" x="165.815937" xlink:href="#m8e2e5d1003" y="388.553906"/>
      </g>
     </g>
    </g>
    <g id="ytick_8">
     <g id="line2d_38">
      <g>
       <use style="stroke:#000000;stroke-width:0.8;" x="165.815937" xlink:href="#m8e2e5d1003" y="312.998906"/>
      </g>
     </g>
    </g>
    <g id="ytick_9">
     <g id="line2d_39">
      <g>
       <use style="stroke:#000000;stroke-width:0.8;" x="165.815937" xlink:href="#m8e2e5d1003" y="237.443906"/>
      </g>
     </g>
    </g>
    <g id="ytick_10">
     <g id="line2d_40">
      <g>
       <use style="stroke:#000000;stroke-width:0.8;" x="165.815937" xlink:href="#m8e2e5d1003" y="161.888906"/>
      </g>
     </g>
    </g>
    <g id="ytick_11">
     <g id="line2d_41">
      <g>
       <use style="stroke:#000000;stroke-width:0.8;" x="165.815937" xlink:href="#m8e2e5d1003" y="86.333906"/>
      </g>
     </g>
    </g>
    <g id="ytick_12">
     <g id="line2d_42">
      <g>
       <use style="stroke:#000000;stroke-width:0.8;" x="165.815937" xlink:href="#m8e2e5d1003" y="10.778906"/>
      </g>
     </g>
    </g>
   </g>
   <g id="line2d_43">
    <path clip-path="url(#p5e8f42c666)" d="M 165.815937 289.351529 
L 272.428437 289.351529 
" style="fill:none;stroke:#808080;stroke-linecap:square;stroke-width:0.5;"/>
   </g>
   <g id="line2d_44">
    <path clip-path="url(#p5e8f42c666)" d="M 165.815937 226.331868 
L 272.428437 226.331868 
" style="fill:none;stroke:#808080;stroke-linecap:square;stroke-width:0.5;"/>
   </g>
   <g id="line2d_45">
    <path clip-path="url(#p5e8f42c666)" d="M 165.815937 165.541474 
L 272.428437 165.541474 
" style="fill:none;stroke:#808080;stroke-linecap:square;stroke-width:0.5;"/>
   </g>
   <g id="line2d_46">
    <path clip-path="url(#p5e8f42c666)" d="M 165.815937 121.127618 
L 272.428437 121.127618 
" style="fill:none;stroke:#808080;stroke-linecap:square;stroke-width:0.5;"/>
   </g>
   <g id="line2d_47">
    <path clip-path="url(#p5e8f42c666)" d="M 165.815937 89.746399 
L 272.428437 89.746399 
" style="fill:none;stroke:#808080;stroke-linecap:square;stroke-width:0.5;"/>
   </g>
   <g id="line2d_48">
    <path clip-path="url(#p5e8f42c666)" d="M 165.815937 69.168551 
L 272.428437 69.168551 
" style="fill:none;stroke:#808080;stroke-linecap:square;stroke-width:0.5;"/>
   </g>
   <g id="line2d_49">
    <path clip-path="url(#p5e8f42c666)" d="M 165.815937 57.593511 
L 272.428437 57.593511 
" style="fill:none;stroke:#808080;stroke-linecap:square;stroke-width:0.5;"/>
   </g>
   <g id="line2d_50">
    <path clip-path="url(#p5e8f42c666)" d="M 165.815937 49.705336 
L 272.428437 49.705336 
" style="fill:none;stroke:#808080;stroke-linecap:square;stroke-width:0.5;"/>
   </g>
   <g id="line2d_51">
    <path clip-path="url(#p5e8f42c666)" d="M 165.815937 42.674571 
L 272.428437 42.674571 
" style="fill:none;stroke:#808080;stroke-linecap:square;stroke-width:0.5;"/>
   </g>
   <g id="line2d_52">
    <path clip-path="url(#p5e8f42c666)" d="M 165.815937 37.358627 
L 272.428437 37.358627 
" style="fill:none;stroke:#808080;stroke-linecap:square;stroke-width:0.5;"/>
   </g>
   <g id="line2d_53">
    <path clip-path="url(#p5e8f42c666)" d="M 165.815937 32.471388 
L 272.428437 32.471388 
" style="fill:none;stroke:#808080;stroke-linecap:square;stroke-width:0.5;"/>
   </g>
   <g id="line2d_54">
    <path clip-path="url(#p5e8f42c666)" d="M 165.815937 29.041747 
L 272.428437 29.041747 
" style="fill:none;stroke:#808080;stroke-linecap:square;stroke-width:0.5;"/>
   </g>
   <g id="line2d_55">
    <path clip-path="url(#p5e8f42c666)" d="M 165.815937 25.612105 
L 272.428437 25.612105 
" style="fill:none;stroke:#808080;stroke-linecap:square;stroke-width:0.5;"/>
   </g>
   <g id="line2d_56">
    <path clip-path="url(#p5e8f42c666)" d="M 165.815937 22.611169 
L 272.428437 22.611169 
" style="fill:none;stroke:#808080;stroke-linecap:square;stroke-width:0.5;"/>
   </g>
   <g id="line2d_57">
    <path clip-path="url(#p5e8f42c666)" d="M 165.815937 19.867456 
L 272.428437 19.867456 
" style="fill:none;stroke:#808080;stroke-linecap:square;stroke-width:0.5;"/>
   </g>
   <g id="line2d_58">
    <path clip-path="url(#p5e8f42c666)" d="M 165.815937 17.380966 
L 272.428437 17.380966 
" style="fill:none;stroke:#808080;stroke-linecap:square;stroke-width:0.5;"/>
   </g>
   <g id="line2d_59">
    <path clip-path="url(#p5e8f42c666)" d="M 165.815937 15.065958 
L 272.428437 15.065958 
" style="fill:none;stroke:#808080;stroke-linecap:square;stroke-width:0.5;"/>
   </g>
   <g id="line2d_60">
    <path clip-path="url(#p5e8f42c666)" d="M 165.815937 12.922432 
L 272.428437 12.922432 
" style="fill:none;stroke:#808080;stroke-linecap:square;stroke-width:0.5;"/>
   </g>
   <g id="line2d_61">
    <path clip-path="url(#p5e8f42c666)" d="M 165.815937 10.778906 
L 272.428437 10.778906 
" style="fill:none;stroke:#808080;stroke-linecap:square;stroke-width:0.5;"/>
   </g>
   <g id="patch_103">
    <path d="M 165.815937 388.553906 
L 165.815937 10.778906 
" style="fill:none;stroke:#808080;stroke-linecap:square;stroke-linejoin:miter;stroke-width:0.8;"/>
   </g>
   <g id="patch_104">
    <path d="M 272.428437 388.553906 
L 272.428437 10.778906 
" style="fill:none;stroke:#808080;stroke-linecap:square;stroke-linejoin:miter;stroke-width:0.8;"/>
   </g>
   <g id="patch_105">
    <path d="M 165.815937 388.553906 
L 272.428437 388.553906 
" style="fill:none;stroke:#808080;stroke-linecap:square;stroke-linejoin:miter;stroke-width:0.8;"/>
   </g>
   <g id="patch_106">
    <path d="M 165.815937 10.778906 
L 272.428437 10.778906 
" style="fill:none;stroke:#808080;stroke-linecap:square;stroke-linejoin:miter;stroke-width:0.8;"/>
   </g>
   <g id="text_108">
    <!-- 1,157 (23%) -->
    <g transform="translate(166.882062 342.575218)scale(0.14 -0.14)">
     <defs>
      <path d="M 8.890625 0 
L 8.890625 10.015625 
L 18.890625 10.015625 
L 18.890625 0 
Q 18.890625 -5.515625 16.9375 -8.90625 
Q 14.984375 -12.3125 10.75 -14.15625 
L 8.296875 -10.40625 
Q 11.078125 -9.1875 12.390625 -6.8125 
Q 13.71875 -4.4375 13.875 0 
z
" id="ArialMT-44"/>
      <path d="M 4.15625 18.75 
L 13.375 19.53125 
Q 14.40625 12.796875 18.140625 9.390625 
Q 21.875 6 27.15625 6 
Q 33.5 6 37.890625 10.78125 
Q 42.28125 15.578125 42.28125 23.484375 
Q 42.28125 31 38.0625 35.34375 
Q 33.84375 39.703125 27 39.703125 
Q 22.75 39.703125 19.328125 37.765625 
Q 15.921875 35.84375 13.96875 32.765625 
L 5.71875 33.84375 
L 12.640625 70.609375 
L 48.25 70.609375 
L 48.25 62.203125 
L 19.671875 62.203125 
L 15.828125 42.96875 
Q 22.265625 47.46875 29.34375 47.46875 
Q 38.71875 47.46875 45.15625 40.96875 
Q 51.609375 34.46875 51.609375 24.265625 
Q 51.609375 14.546875 45.953125 7.46875 
Q 39.0625 -1.21875 27.15625 -1.21875 
Q 17.390625 -1.21875 11.203125 4.25 
Q 5.03125 9.71875 4.15625 18.75 
z
" id="ArialMT-53"/>
      <path d="M 4.734375 62.203125 
L 4.734375 70.65625 
L 51.078125 70.65625 
L 51.078125 63.8125 
Q 44.234375 56.546875 37.515625 44.484375 
Q 30.8125 32.421875 27.15625 19.671875 
Q 24.515625 10.6875 23.78125 0 
L 14.75 0 
Q 14.890625 8.453125 18.0625 20.40625 
Q 21.234375 32.375 27.171875 43.484375 
Q 33.109375 54.59375 39.796875 62.203125 
z
" id="ArialMT-55"/>
      <path d="M 23.390625 -21.046875 
Q 16.109375 -11.859375 11.078125 0.4375 
Q 6.0625 12.75 6.0625 25.921875 
Q 6.0625 37.546875 9.8125 48.1875 
Q 14.203125 60.546875 23.390625 72.796875 
L 29.6875 72.796875 
Q 23.78125 62.640625 21.875 58.296875 
Q 18.890625 51.5625 17.1875 44.234375 
Q 15.09375 35.109375 15.09375 25.875 
Q 15.09375 2.390625 29.6875 -21.046875 
z
" id="ArialMT-40"/>
      <path d="M 4.203125 18.890625 
L 12.984375 20.0625 
Q 14.5 12.59375 18.140625 9.296875 
Q 21.78125 6 27 6 
Q 33.203125 6 37.46875 10.296875 
Q 41.75 14.59375 41.75 20.953125 
Q 41.75 27 37.796875 30.921875 
Q 33.84375 34.859375 27.734375 34.859375 
Q 25.25 34.859375 21.53125 33.890625 
L 22.515625 41.609375 
Q 23.390625 41.5 23.921875 41.5 
Q 29.546875 41.5 34.03125 44.421875 
Q 38.53125 47.359375 38.53125 53.46875 
Q 38.53125 58.296875 35.25 61.46875 
Q 31.984375 64.65625 26.8125 64.65625 
Q 21.6875 64.65625 18.265625 61.421875 
Q 14.84375 58.203125 13.875 51.765625 
L 5.078125 53.328125 
Q 6.6875 62.15625 12.390625 67.015625 
Q 18.109375 71.875 26.609375 71.875 
Q 32.46875 71.875 37.390625 69.359375 
Q 42.328125 66.84375 44.9375 62.5 
Q 47.5625 58.15625 47.5625 53.265625 
Q 47.5625 48.640625 45.0625 44.828125 
Q 42.578125 41.015625 37.703125 38.765625 
Q 44.046875 37.3125 47.5625 32.6875 
Q 51.078125 28.078125 51.078125 21.140625 
Q 51.078125 11.765625 44.234375 5.25 
Q 37.40625 -1.265625 26.953125 -1.265625 
Q 17.53125 -1.265625 11.296875 4.34375 
Q 5.078125 9.96875 4.203125 18.890625 
z
" id="ArialMT-51"/>
      <path d="M 5.8125 54.390625 
Q 5.8125 62.0625 9.671875 67.421875 
Q 13.53125 72.796875 20.84375 72.796875 
Q 27.59375 72.796875 32 67.984375 
Q 36.421875 63.1875 36.421875 53.859375 
Q 36.421875 44.78125 31.953125 39.875 
Q 27.484375 34.96875 20.953125 34.96875 
Q 14.453125 34.96875 10.125 39.796875 
Q 5.8125 44.625 5.8125 54.390625 
z
M 21.09375 66.75 
Q 17.828125 66.75 15.65625 63.90625 
Q 13.484375 61.078125 13.484375 53.515625 
Q 13.484375 46.625 15.671875 43.8125 
Q 17.875 41.015625 21.09375 41.015625 
Q 24.421875 41.015625 26.59375 43.84375 
Q 28.765625 46.6875 28.765625 54.203125 
Q 28.765625 61.140625 26.5625 63.9375 
Q 24.359375 66.75 21.09375 66.75 
z
M 21.140625 -2.640625 
L 60.296875 72.796875 
L 67.4375 72.796875 
L 28.421875 -2.640625 
z
M 52.09375 16.796875 
Q 52.09375 24.515625 55.953125 29.859375 
Q 59.8125 35.203125 67.1875 35.203125 
Q 73.921875 35.203125 78.34375 30.390625 
Q 82.765625 25.59375 82.765625 16.265625 
Q 82.765625 7.171875 78.296875 2.265625 
Q 73.828125 -2.640625 67.234375 -2.640625 
Q 60.75 -2.640625 56.421875 2.21875 
Q 52.09375 7.078125 52.09375 16.796875 
z
M 67.4375 29.15625 
Q 64.109375 29.15625 61.9375 26.3125 
Q 59.765625 23.484375 59.765625 15.921875 
Q 59.765625 9.078125 61.953125 6.25 
Q 64.15625 3.421875 67.390625 3.421875 
Q 70.75 3.421875 72.921875 6.25 
Q 75.09375 9.078125 75.09375 16.609375 
Q 75.09375 23.53125 72.890625 26.34375 
Q 70.703125 29.15625 67.4375 29.15625 
z
" id="ArialMT-37"/>
      <path d="M 12.359375 -21.046875 
L 6.0625 -21.046875 
Q 20.65625 2.390625 20.65625 25.875 
Q 20.65625 35.0625 18.5625 44.09375 
Q 16.890625 51.421875 13.921875 58.15625 
Q 12.015625 62.546875 6.0625 72.796875 
L 12.359375 72.796875 
Q 21.53125 60.546875 25.921875 48.1875 
Q 29.6875 37.546875 29.6875 25.921875 
Q 29.6875 12.75 24.625 0.4375 
Q 19.578125 -11.859375 12.359375 -21.046875 
z
" id="ArialMT-41"/>
     </defs>
     <use xlink:href="#ArialMT-49"/>
     <use x="55.615234" xlink:href="#ArialMT-44"/>
     <use x="83.398438" xlink:href="#ArialMT-49"/>
     <use x="139.013672" xlink:href="#ArialMT-53"/>
     <use x="194.628906" xlink:href="#ArialMT-55"/>
     <use x="250.244141" xlink:href="#ArialMT-32"/>
     <use x="278.027344" xlink:href="#ArialMT-40"/>
     <use x="311.328125" xlink:href="#ArialMT-50"/>
     <use x="366.943359" xlink:href="#ArialMT-51"/>
     <use x="422.558594" xlink:href="#ArialMT-37"/>
     <use x="511.474609" xlink:href="#ArialMT-41"/>
    </g>
   </g>
   <g id="text_109">
    <!-- 735 (15%) -->
    <g transform="translate(166.882062 261.464198)scale(0.14 -0.14)">
     <use xlink:href="#ArialMT-55"/>
     <use x="55.615234" xlink:href="#ArialMT-51"/>
     <use x="111.230469" xlink:href="#ArialMT-53"/>
     <use x="166.845703" xlink:href="#ArialMT-32"/>
     <use x="194.628906" xlink:href="#ArialMT-40"/>
     <use x="227.929688" xlink:href="#ArialMT-49"/>
     <use x="283.544922" xlink:href="#ArialMT-53"/>
     <use x="339.160156" xlink:href="#ArialMT-37"/>
     <use x="428.076172" xlink:href="#ArialMT-41"/>
    </g>
   </g>
   <g id="text_110">
    <!-- 709 (14%) -->
    <g transform="translate(166.882062 199.559171)scale(0.14 -0.14)">
     <defs>
      <path d="M 5.46875 16.546875 
L 13.921875 17.328125 
Q 14.984375 11.375 18.015625 8.6875 
Q 21.046875 6 25.78125 6 
Q 29.828125 6 32.875 7.859375 
Q 35.9375 9.71875 37.890625 12.8125 
Q 39.84375 15.921875 41.15625 21.1875 
Q 42.484375 26.46875 42.484375 31.9375 
Q 42.484375 32.515625 42.4375 33.6875 
Q 39.796875 29.5 35.234375 26.875 
Q 30.671875 24.265625 25.34375 24.265625 
Q 16.453125 24.265625 10.296875 30.703125 
Q 4.15625 37.15625 4.15625 47.703125 
Q 4.15625 58.59375 10.578125 65.234375 
Q 17 71.875 26.65625 71.875 
Q 33.640625 71.875 39.421875 68.109375 
Q 45.21875 64.359375 48.21875 57.390625 
Q 51.21875 50.4375 51.21875 37.25 
Q 51.21875 23.53125 48.234375 15.40625 
Q 45.265625 7.28125 39.375 3.03125 
Q 33.5 -1.21875 25.59375 -1.21875 
Q 17.1875 -1.21875 11.859375 3.4375 
Q 6.546875 8.109375 5.46875 16.546875 
z
M 41.453125 48.140625 
Q 41.453125 55.71875 37.421875 60.15625 
Q 33.40625 64.59375 27.734375 64.59375 
Q 21.875 64.59375 17.53125 59.8125 
Q 13.1875 55.03125 13.1875 47.40625 
Q 13.1875 40.578125 17.3125 36.296875 
Q 21.4375 32.03125 27.484375 32.03125 
Q 33.59375 32.03125 37.515625 36.296875 
Q 41.453125 40.578125 41.453125 48.140625 
z
" id="ArialMT-57"/>
     </defs>
     <use xlink:href="#ArialMT-55"/>
     <use x="55.615234" xlink:href="#ArialMT-48"/>
     <use x="111.230469" xlink:href="#ArialMT-57"/>
     <use x="166.845703" xlink:href="#ArialMT-32"/>
     <use x="194.628906" xlink:href="#ArialMT-40"/>
     <use x="227.929688" xlink:href="#ArialMT-49"/>
     <use x="283.544922" xlink:href="#ArialMT-52"/>
     <use x="339.160156" xlink:href="#ArialMT-37"/>
     <use x="428.076172" xlink:href="#ArialMT-41"/>
    </g>
   </g>
   <g id="text_111">
    <!-- 518 (10%) -->
    <g transform="translate(166.882062 146.957046)scale(0.14 -0.14)">
     <use xlink:href="#ArialMT-53"/>
     <use x="55.615234" xlink:href="#ArialMT-49"/>
     <use x="111.230469" xlink:href="#ArialMT-56"/>
     <use x="166.845703" xlink:href="#ArialMT-32"/>
     <use x="194.628906" xlink:href="#ArialMT-40"/>
     <use x="227.929688" xlink:href="#ArialMT-49"/>
     <use x="283.544922" xlink:href="#ArialMT-48"/>
     <use x="339.160156" xlink:href="#ArialMT-37"/>
     <use x="428.076172" xlink:href="#ArialMT-41"/>
    </g>
   </g>
   <g id="text_112">
    <!-- 366 (7%) -->
    <g transform="translate(166.882062 109.059509)scale(0.14 -0.14)">
     <use xlink:href="#ArialMT-51"/>
     <use x="55.615234" xlink:href="#ArialMT-54"/>
     <use x="111.230469" xlink:href="#ArialMT-54"/>
     <use x="166.845703" xlink:href="#ArialMT-32"/>
     <use x="194.628906" xlink:href="#ArialMT-40"/>
     <use x="227.929688" xlink:href="#ArialMT-55"/>
     <use x="283.544922" xlink:href="#ArialMT-37"/>
     <use x="372.460938" xlink:href="#ArialMT-41"/>
    </g>
   </g>
   <g id="text_113">
    <!-- 240 (5%) -->
    <g transform="translate(166.882062 82.219981)scale(0.106764 -0.106764)">
     <use xlink:href="#ArialMT-50"/>
     <use x="55.615234" xlink:href="#ArialMT-52"/>
     <use x="111.230469" xlink:href="#ArialMT-48"/>
     <use x="166.845703" xlink:href="#ArialMT-32"/>
     <use x="194.628906" xlink:href="#ArialMT-40"/>
     <use x="227.929688" xlink:href="#ArialMT-53"/>
     <use x="283.544922" xlink:href="#ArialMT-37"/>
     <use x="372.460938" xlink:href="#ArialMT-41"/>
    </g>
   </g>
   <g id="text_114">
    <!-- 135 (3%) -->
    <g transform="translate(166.882062 64.934941)scale(0.060054 -0.060054)">
     <use xlink:href="#ArialMT-49"/>
     <use x="55.615234" xlink:href="#ArialMT-51"/>
     <use x="111.230469" xlink:href="#ArialMT-53"/>
     <use x="166.845703" xlink:href="#ArialMT-32"/>
     <use x="194.628906" xlink:href="#ArialMT-40"/>
     <use x="227.929688" xlink:href="#ArialMT-51"/>
     <use x="283.544922" xlink:href="#ArialMT-37"/>
     <use x="372.460938" xlink:href="#ArialMT-41"/>
    </g>
   </g>
   <g id="text_115">
    <!-- 92 (2%) -->
    <g transform="translate(166.882062 54.708384)scale(0.040926 -0.040926)">
     <use xlink:href="#ArialMT-57"/>
     <use x="55.615234" xlink:href="#ArialMT-50"/>
     <use x="111.230469" xlink:href="#ArialMT-32"/>
     <use x="139.013672" xlink:href="#ArialMT-40"/>
     <use x="172.314453" xlink:href="#ArialMT-50"/>
     <use x="227.929688" xlink:href="#ArialMT-37"/>
     <use x="316.845703" xlink:href="#ArialMT-41"/>
    </g>
   </g>
   <g id="text_116">
    <!-- 82 (2%) -->
    <g transform="translate(166.882062 47.13381)scale(0.036478 -0.036478)">
     <use xlink:href="#ArialMT-56"/>
     <use x="55.615234" xlink:href="#ArialMT-50"/>
     <use x="111.230469" xlink:href="#ArialMT-32"/>
     <use x="139.013672" xlink:href="#ArialMT-40"/>
     <use x="172.314453" xlink:href="#ArialMT-50"/>
     <use x="227.929688" xlink:href="#ArialMT-37"/>
     <use x="316.845703" xlink:href="#ArialMT-41"/>
    </g>
   </g>
   <g id="text_117">
    <!-- 62 (1%) -->
    <g transform="translate(166.882062 40.730246)scale(0.027581 -0.027581)">
     <use xlink:href="#ArialMT-54"/>
     <use x="55.615234" xlink:href="#ArialMT-50"/>
     <use x="111.230469" xlink:href="#ArialMT-32"/>
     <use x="139.013672" xlink:href="#ArialMT-40"/>
     <use x="172.314453" xlink:href="#ArialMT-49"/>
     <use x="227.929688" xlink:href="#ArialMT-37"/>
     <use x="316.845703" xlink:href="#ArialMT-41"/>
    </g>
   </g>
   <g id="text_118">
    <!-- 57 (1%) -->
    <g transform="translate(166.882062 35.571103)scale(0.025356 -0.025356)">
     <use xlink:href="#ArialMT-53"/>
     <use x="55.615234" xlink:href="#ArialMT-55"/>
     <use x="111.230469" xlink:href="#ArialMT-32"/>
     <use x="139.013672" xlink:href="#ArialMT-40"/>
     <use x="172.314453" xlink:href="#ArialMT-49"/>
     <use x="227.929688" xlink:href="#ArialMT-37"/>
     <use x="316.845703" xlink:href="#ArialMT-41"/>
    </g>
   </g>
   <g id="text_119">
    <!-- 40 (1%) -->
    <g transform="translate(166.882062 31.216985)scale(0.017794 -0.017794)">
     <use xlink:href="#ArialMT-52"/>
     <use x="55.615234" xlink:href="#ArialMT-48"/>
     <use x="111.230469" xlink:href="#ArialMT-32"/>
     <use x="139.013672" xlink:href="#ArialMT-40"/>
     <use x="172.314453" xlink:href="#ArialMT-49"/>
     <use x="227.929688" xlink:href="#ArialMT-37"/>
     <use x="316.845703" xlink:href="#ArialMT-41"/>
    </g>
   </g>
   <g id="text_120">
    <!-- 40 (1%) -->
    <g transform="translate(166.882062 27.787344)scale(0.017794 -0.017794)">
     <use xlink:href="#ArialMT-52"/>
     <use x="55.615234" xlink:href="#ArialMT-48"/>
     <use x="111.230469" xlink:href="#ArialMT-32"/>
     <use x="139.013672" xlink:href="#ArialMT-40"/>
     <use x="172.314453" xlink:href="#ArialMT-49"/>
     <use x="227.929688" xlink:href="#ArialMT-37"/>
     <use x="316.845703" xlink:href="#ArialMT-41"/>
    </g>
   </g>
   <g id="text_121">
    <!-- 35 (1%) -->
    <g transform="translate(166.882062 24.514503)scale(0.01557 -0.01557)">
     <use xlink:href="#ArialMT-51"/>
     <use x="55.615234" xlink:href="#ArialMT-53"/>
     <use x="111.230469" xlink:href="#ArialMT-32"/>
     <use x="139.013672" xlink:href="#ArialMT-40"/>
     <use x="172.314453" xlink:href="#ArialMT-49"/>
     <use x="227.929688" xlink:href="#ArialMT-37"/>
     <use x="316.845703" xlink:href="#ArialMT-41"/>
    </g>
   </g>
   <g id="text_122">
    <!-- 32 (1%) -->
    <g transform="translate(166.882062 21.607647)scale(0.014235 -0.014235)">
     <use xlink:href="#ArialMT-51"/>
     <use x="55.615234" xlink:href="#ArialMT-50"/>
     <use x="111.230469" xlink:href="#ArialMT-32"/>
     <use x="139.013672" xlink:href="#ArialMT-40"/>
     <use x="172.314453" xlink:href="#ArialMT-49"/>
     <use x="227.929688" xlink:href="#ArialMT-37"/>
     <use x="316.845703" xlink:href="#ArialMT-41"/>
    </g>
   </g>
   <g id="text_123">
    <!-- 29 (1%) -->
    <g transform="translate(166.882062 18.958014)scale(0.012901 -0.012901)">
     <use xlink:href="#ArialMT-50"/>
     <use x="55.615234" xlink:href="#ArialMT-57"/>
     <use x="111.230469" xlink:href="#ArialMT-32"/>
     <use x="139.013672" xlink:href="#ArialMT-40"/>
     <use x="172.314453" xlink:href="#ArialMT-49"/>
     <use x="227.929688" xlink:href="#ArialMT-37"/>
     <use x="316.845703" xlink:href="#ArialMT-41"/>
    </g>
   </g>
   <g id="text_124">
    <!-- 27 (1%) -->
    <g transform="translate(166.882062 16.534244)scale(0.012011 -0.012011)">
     <use xlink:href="#ArialMT-50"/>
     <use x="55.615234" xlink:href="#ArialMT-55"/>
     <use x="111.230469" xlink:href="#ArialMT-32"/>
     <use x="139.013672" xlink:href="#ArialMT-40"/>
     <use x="172.314453" xlink:href="#ArialMT-49"/>
     <use x="227.929688" xlink:href="#ArialMT-37"/>
     <use x="316.845703" xlink:href="#ArialMT-41"/>
    </g>
   </g>
   <g id="text_125">
    <!-- 25 (0%) -->
    <g transform="translate(166.882062 14.281956)scale(0.011121 -0.011121)">
     <use xlink:href="#ArialMT-50"/>
     <use x="55.615234" xlink:href="#ArialMT-53"/>
     <use x="111.230469" xlink:href="#ArialMT-32"/>
     <use x="139.013672" xlink:href="#ArialMT-40"/>
     <use x="172.314453" xlink:href="#ArialMT-48"/>
     <use x="227.929688" xlink:href="#ArialMT-37"/>
     <use x="316.845703" xlink:href="#ArialMT-41"/>
    </g>
   </g>
   <g id="text_126">
    <!-- 25 (0%) -->
    <g transform="translate(166.882062 12.13843)scale(0.011121 -0.011121)">
     <use xlink:href="#ArialMT-50"/>
     <use x="55.615234" xlink:href="#ArialMT-53"/>
     <use x="111.230469" xlink:href="#ArialMT-32"/>
     <use x="139.013672" xlink:href="#ArialMT-40"/>
     <use x="172.314453" xlink:href="#ArialMT-48"/>
     <use x="227.929688" xlink:href="#ArialMT-37"/>
     <use x="316.845703" xlink:href="#ArialMT-41"/>
    </g>
   </g>
  </g>
 </g>
 <defs>
  <clipPath id="pad66cec7bb">
   <rect height="377.775" width="106.6125" x="44.903438" y="10.778906"/>
  </clipPath>
  <clipPath id="p5e8f42c666">
   <rect height="377.775" width="106.6125" x="165.815937" y="10.778906"/>
  </clipPath>
 </defs>
</svg>
